<?xml version="1.0" encoding="UTF-8"?>
<!DOCTYPE svg PUBLIC "-//W3C//DTD SVG 1.1//EN" "http://www.w3.org/Graphics/SVG/1.1/DTD/svg11.dtd">
<!-- Creator: CorelDRAW 2019 (64-Bit) -->
<svg xmlns="http://www.w3.org/2000/svg" xml:space="preserve" width="461px" height="240px" version="1.1" style="shape-rendering:geometricPrecision; text-rendering:geometricPrecision; image-rendering:optimizeQuality; fill-rule:evenodd; clip-rule:evenodd"
viewBox="0 0 461 239.76"
 xmlns:xlink="http://www.w3.org/1999/xlink"
 xmlns:xodm="http://www.corel.com/coreldraw/odm/2003">
 <defs>
  <style type="text/css">
   <![CDATA[
    .fil0 {fill:#165680;fill-rule:nonzero}
    .fil1 {fill:url(#id0)}
   ]]>
  </style>
  <linearGradient id="id0" gradientUnits="userSpaceOnUse" x1="146.85" y1="69.12" x2="288.36" y2="55.97">
   <stop offset="0" style="stop-opacity:1; stop-color:#00418A"/>
   <stop offset="1" style="stop-opacity:1; stop-color:#FFCC00"/>
  </linearGradient>
 </defs>
 <g id="Layer_x0020_1">
  <metadata id="CorelCorpID_0Corel-Layer"/>
  <path class="fil0" d="M11.43 193.96c0,1.38 0.26,2.75 0.51,4.02 2.13,7.66 8.54,12.94 16.58,12.94 11.56,0 18.47,-9.43 18.47,-23.37 0,-12.19 -6.28,-22.62 -18.09,-22.62 -7.54,0 -14.58,5.16 -16.84,13.58 -0.25,1.25 -0.63,2.75 -0.63,4.52l0 10.93zm-10.93 -64.83l0 0 10.93 0 0 38.19 0.26 0c3.89,-6.78 10.93,-11.18 20.73,-11.18 15.08,0 25.76,12.56 25.63,31.04 0,21.73 -13.69,32.54 -27.27,32.54 -8.8,0 -15.83,-3.4 -20.35,-11.44l-0.38 0 -0.49 10.05 -9.56 0c0.25,-4.15 0.5,-10.31 0.5,-15.7l0 -73.5z"/>
  <path class="fil0" d="M102.53 187.3c-12.07,-0.26 -25.76,1.88 -25.76,13.69 0,7.16 4.77,10.56 10.42,10.56 7.92,0 12.95,-5.03 14.7,-10.18 0.38,-1.14 0.64,-2.39 0.64,-3.52l0 -10.55zm10.68 16.46l0 0c0,5.28 0.25,10.42 1,14.57l-10.05 0 -0.88 -7.66 -0.38 0c-3.39,4.78 -9.93,9.05 -18.59,9.05 -12.32,0 -18.59,-8.67 -18.59,-17.46 0,-14.71 13.06,-22.75 36.55,-22.62l0 -1.26c0,-5.02 -1.38,-14.07 -13.81,-14.07 -5.66,0 -11.56,1.75 -15.84,4.53l-2.52 -7.29c5.03,-3.27 12.33,-5.41 19.98,-5.41 18.6,0 23.13,12.7 23.13,24.88l0 22.74z"/>
  <path class="fil0" d="M130.17 173.97c0,-6.27 -0.13,-11.41 -0.5,-16.45l9.79 0 0.63 10.05 0.26 0c3.01,-5.77 10.05,-11.43 20.1,-11.43 8.41,0 21.48,5.03 21.48,25.88l0 36.31 -11.06 0 0 -35.05c0,-9.81 -3.63,-17.98 -14.07,-17.98 -7.28,0 -12.94,5.16 -14.83,11.32 -0.5,1.37 -0.75,3.26 -0.75,5.16l0 36.55 -11.05 0 0 -44.36z"/>
  <path class="fil0" d="M209.07 185.41l0.25 0c1.51,-2.13 3.64,-4.77 5.41,-6.91l17.84 -20.98 13.32 0 -23.5 25.01 26.76 35.8 -13.44 0 -20.98 -29.15 -5.66 6.28 0 22.87 -10.93 0 0 -89.2 10.93 0 0 56.28z"/>
  <path class="fil0" d="M315.26 206.09c-8.86,0 -16.05,-9.55 -16.05,-21.33 0,-11.78 7.19,-21.33 16.05,-21.33 8.86,0 16.05,9.55 16.05,21.33 0,11.78 -7.19,21.33 -16.05,21.33zm24.99 -46.41l0 0c-0.42,-0.49 -0.83,-0.99 -1.26,-1.43 -0.71,-0.75 -1.51,-1.44 -2.36,-2.1 -4.57,-3.74 -10.1,-5.94 -16.06,-5.94 -6.43,0 -12.36,2.59 -17.12,6.88 -0.14,0.09 -0.27,0.19 -0.4,0.26 -0.17,0.1 -0.42,0.21 -0.7,0.14 -0.78,-0.21 -1.62,-1.04 -1.62,-2.24l0 -24.86c0,-1.56 -1.28,-2.82 -2.86,-2.82l-12.1 0c-1.58,0 -2.85,1.26 -2.85,2.82l0 0.86c0,0.04 -0.01,0.06 -0.01,0.09l0 2.89 0.02 80.16c0,1.59 1.29,2.88 2.88,2.88l10.95 0c0.7,0 1.34,-0.26 1.83,-0.68 0.02,-0.01 0.04,-0.01 0.05,-0.03 0.02,-0.01 0.03,-0.03 0.04,-0.04 0.23,-0.21 0.41,-0.45 0.57,-0.72l0.01 0c0.19,-0.35 0.31,-0.72 0.35,-1.14 0.22,-1.77 1.43,-2.75 2.17,-2.49 0.26,0.08 0.51,0.2 0.76,0.38 0.25,0.16 0.51,0.33 0.75,0.49 0.75,0.54 4.01,2.78 6.54,3.91 1.28,0.56 5.34,1.94 10.05,1.94 4.72,0 8.08,-1.04 8.87,-1.26 0.79,-0.21 1.57,-0.47 2.32,-0.82 3.7,-1.59 6.67,-3.77 8.92,-6.53 2.23,-2.72 4.09,-5.93 5.58,-9.62 2.23,-4.86 3.5,-10.43 3.5,-16.36 0,-9.69 -3.39,-18.42 -8.82,-24.62z"/>
  <path class="fil0" d="M380.57 157.35c-0.02,-0.16 -0.03,-0.32 -0.04,-0.48l0 -2.12c0,-1.6 -1.29,-2.9 -2.89,-2.9l-12.19 0c-1.6,0 -2.89,1.3 -2.89,2.9l0 65.69c-0.07,1.67 -2.1,3.96 -4.45,4.53 -1.09,0.34 -2.17,0.49 -3.27,0.44 -1.09,-0.03 -1.84,0.4 -2.26,1.33 -0.17,0.41 -0.29,0.96 -0.38,1.63 -0.08,0.67 0.02,7.71 0.07,8.3 0.04,0.58 0.14,1.08 0.31,1.5 0.5,0.75 1.39,1.26 2.64,1.51 0.41,0.17 8.52,0.19 13.96,-1.13 2.14,-0.51 3.85,-1.54 5.29,-2.63 1.41,-1.09 2.67,-2.47 3.77,-4.16 1.26,-2.01 1.95,-4.54 2.08,-7.6 0.03,-0.92 0.21,-3.33 0.21,-3.62l0 -59.68c0.01,-0.32 0.02,-0.65 0.04,-0.99 0.04,-0.84 0.04,-1.68 0,-2.52z"/>
  <path class="fil0" d="M427.2 206.09c-8.87,0 -16.06,-9.55 -16.06,-21.33 0,-11.78 7.19,-21.33 16.06,-21.33 8.86,0 16.04,9.55 16.04,21.33 0,11.78 -7.18,21.33 -16.04,21.33zm24.97 -46.41l0 0c-0.4,-0.49 -0.81,-0.99 -1.25,-1.43 -0.72,-0.75 -1.51,-1.44 -2.36,-2.1 -4.57,-3.74 -10.1,-5.94 -16.06,-5.94 -6.43,0 -12.35,2.59 -17.12,6.88 -0.14,0.09 -0.26,0.19 -0.41,0.26 -0.17,0.1 -0.4,0.21 -0.68,0.14 -0.79,-0.21 -1.63,-1.04 -1.64,-2.24l0 -24.86c0,-1.56 -1.27,-2.82 -2.84,-2.82l-12.1 0c-1.58,0 -2.86,1.26 -2.86,2.82l0 0.86c0,0.04 0,0.06 0,0.09l0 2.89 0.01 80.16c0,1.59 1.29,2.88 2.88,2.88l10.95 0c0.7,0 1.34,-0.26 1.84,-0.68 0.01,-0.01 0.03,-0.01 0.04,-0.03 0.02,-0.01 0.03,-0.03 0.04,-0.04 0.22,-0.21 0.42,-0.45 0.57,-0.72l0.01 -0.01c0.19,-0.34 0.31,-0.71 0.35,-1.13 0.22,-1.77 1.42,-2.75 2.17,-2.49 0.26,0.08 0.51,0.2 0.76,0.38 0.25,0.16 0.5,0.33 0.76,0.49 0.74,0.54 4,2.78 6.53,3.91 1.28,0.56 5.33,1.94 10.06,1.94 4.71,0 8.06,-1.04 8.86,-1.26 0.79,-0.21 1.57,-0.47 2.32,-0.82 3.68,-1.59 6.67,-3.77 8.93,-6.53 2.23,-2.72 4.08,-5.93 5.57,-9.62 2.23,-4.86 3.5,-10.43 3.5,-16.36 0,-9.69 -3.4,-18.42 -8.83,-24.62z"/>
  <path class="fil0" d="M371.33 128.29c-1.74,0.02 -3.26,0.42 -4.58,1.18 -1.28,0.79 -2.28,1.84 -2.99,3.13 -0.74,1.31 -1.1,2.76 -1.1,4.36 0,1.55 0.36,2.95 1.05,4.24 0.68,1.28 1.65,2.31 2.89,3.09 1.26,0.76 2.73,1.16 4.41,1.18 1.9,-0.02 3.5,-0.42 4.81,-1.18 1.32,-0.78 2.31,-1.81 3,-3.09 0.68,-1.29 1.02,-2.69 1.02,-4.24 0,-1.6 -0.36,-3.05 -1.05,-4.36 -0.68,-1.29 -1.68,-2.34 -2.95,-3.13 -1.25,-0.76 -2.78,-1.16 -4.51,-1.18z"/>
  <path class="fil1" d="M279.21 0c-15.11,25.77 -59.11,45.22 -129.18,58.97 0.56,-5.31 1.12,-10.62 1.68,-15.93 49.14,-4.76 90.43,-20.86 127.5,-43.04zm-5.99 25.56c-15.11,25.77 -59.11,45.22 -129.17,58.97 0.55,-5.31 1.11,-10.62 1.67,-15.93 49.14,-4.76 90.43,-20.87 127.5,-43.04zm-5.59 22.36c-15.11,25.77 -59.11,45.22 -129.18,58.97 0.56,-5.31 1.12,-10.62 1.68,-15.93 49.14,-4.76 90.43,-20.86 127.5,-43.04z"/>
 </g>
</svg>
