<svg width="125" height="219" viewBox="0 0 125 219" fill="none" xmlns="http://www.w3.org/2000/svg">
<path d="M26.9796 169.282C26.3614 169.507 25.7432 169.732 25.1251 169.956C21.3198 171.369 17.4743 171.217 13.6128 170.246C12.4167 169.948 11.2285 169.611 10.1206 169.049C9.52656 168.744 8.98065 168.375 8.5953 167.821C8.45883 167.62 8.28221 167.508 8.08151 167.388C7.69616 167.147 7.64799 166.834 7.98517 166.561C8.28221 166.328 8.41869 166.055 8.51502 165.718C8.62742 165.324 8.88431 165.003 9.13318 164.682C11.6941 161.423 14.4237 158.308 17.5145 155.554C19.088 154.157 20.8381 153.009 22.9174 152.455C25.8075 151.685 28.6173 151.982 31.3308 153.146C33.1291 153.916 34.3012 155.345 35.0879 157.12C35.3448 157.69 35.6258 158.244 35.971 158.958C39.5917 149.726 45.6368 142.621 53.6809 136.897C52.862 136.873 52.2198 136.841 51.5856 136.833C48.3342 136.785 45.0989 136.881 41.9278 137.708C39.8887 138.238 37.9941 139.121 36.0914 139.988C34.3092 140.799 32.4868 141.457 30.5842 141.914C28.1677 142.492 25.7513 142.549 23.3509 141.85C19.9149 140.847 16.4708 139.851 13.1874 138.382C12.4568 138.053 11.7262 137.716 11.092 137.202C10.0484 136.351 9.90388 135.572 10.5782 134.416C11.2927 133.204 12.0715 132.032 12.9064 130.892C14.801 128.315 16.1015 125.465 16.9525 122.39C17.1853 121.563 17.5145 120.761 17.7634 119.934C18.526 117.373 20.3002 116.096 22.8933 115.783C25.0287 115.526 27.1562 115.213 29.2836 114.924C29.388 114.908 29.5245 114.956 29.5887 114.739C29.4763 114.523 29.1953 114.499 28.9786 114.41C27.0197 113.6 25.0448 112.821 23.094 111.986C20.3966 110.83 17.9801 109.264 16.0293 107.033C15.2907 106.182 14.7689 105.202 14.3514 104.15C13.8135 102.794 13.3238 101.413 12.6174 100.12C11.9109 98.8198 11.8306 97.423 11.9992 96.018C12.7619 89.4912 15.9811 84.2569 20.7097 79.8576C21.2796 79.3277 21.9219 78.8942 22.5882 78.4928C22.7969 78.3724 22.9976 78.2359 23.1502 77.971C22.8531 77.971 22.5481 77.9629 22.251 77.971C17.7634 78.1155 13.5165 77.2806 9.67909 74.8159C7.19039 73.2184 4.68564 71.6449 2.10863 70.2078C1.46639 69.8626 0.984702 69.3007 0.390625 68.8752C0.390625 68.53 0.390625 68.1848 0.390625 67.8396C0.920477 67.6148 1.39413 67.3258 1.81962 66.9244C3.86678 64.9976 6.31533 64.0021 9.11713 63.8737C11.5255 63.7613 13.7654 64.4196 15.949 65.3509C17.2977 65.9208 18.5662 66.6434 19.8185 67.398C19.9229 67.5024 20.0433 67.7111 20.1637 67.6067C20.3163 67.4783 20.1316 67.3338 20.0192 67.2294C18.6384 65.0137 17.1372 62.8782 15.6199 60.7588C14.801 59.6108 13.9741 58.4788 13.1633 57.3308C12.9305 57.0017 12.7378 56.6484 12.513 56.3113C11.8708 55.3318 12.1678 54.4086 12.6976 53.5095C12.8261 53.2927 13.0509 53.2044 13.2917 53.2445C14.7368 53.5014 16.2059 53.3971 17.667 53.5014C19.8747 53.67 21.9379 54.3283 23.8326 55.4683C26.4738 57.0659 28.8501 59.0007 31.0819 61.112C31.3789 61.393 31.6439 61.7222 32.0051 62.1155C32.0212 60.6063 31.8847 59.2495 31.7723 57.8928C31.7322 57.4031 31.7242 56.9134 31.8205 56.4317C32.0212 55.38 32.8079 54.8903 33.8516 55.1472C35.12 55.4523 36.0111 56.2872 36.838 57.2265C38.2349 58.824 38.8611 60.7267 39.0618 62.7979C39.3749 66.0654 38.6443 69.108 37.0628 71.974C36.8862 72.2951 36.7337 72.6403 36.5731 72.9695C36.4928 73.0899 36.2279 73.1381 36.3563 73.3307C36.4045 73.411 36.6213 73.3709 36.7015 73.2103C37.0869 73.0096 37.3839 72.6885 37.697 72.3995C39.6639 70.5611 41.9439 69.4933 44.6814 69.5174C46.2871 69.5335 47.8927 69.2766 49.4983 69.4853C50.7507 69.6459 51.995 69.8305 53.2153 70.1757C53.3758 70.2239 53.5284 70.3282 53.7451 70.1837C53.432 68.9715 52.9584 67.8235 52.3482 66.7236C50.8069 63.9299 49.0648 61.2565 47.2103 58.6715C44.4647 54.8421 41.6629 51.0609 38.5079 47.5526C37.408 46.3324 36.1476 45.2807 34.9113 44.213C34.4858 43.8437 34.0443 43.4824 33.5385 43.0569C33.4261 43.4503 33.5546 43.7233 33.6188 44.0042C33.9319 45.2566 34.3975 46.4608 34.6062 47.7373C34.7347 48.508 34.5982 48.9977 34.1727 49.1743C33.7874 49.3349 33.2977 49.1261 32.8802 48.524C31.7242 46.8462 30.8812 45.0399 30.8732 42.9445C30.8732 42.8402 30.9133 42.7197 30.809 42.6314C30.5681 42.5271 30.4397 42.7358 30.2791 42.8241C29.2435 43.4423 28.0955 43.7634 26.9153 43.7875C21.7292 43.9079 17.3138 42.1337 13.8055 38.2481C13.2596 37.646 12.8903 36.9315 12.6414 36.1608C12.5612 35.9119 12.505 35.6952 12.2481 35.5346C10.5863 34.5311 9.366 33.0861 8.30629 31.4965C5.65703 27.5146 3.57777 23.2356 1.89187 18.764C1.6992 18.2502 1.53061 17.7364 1.52258 17.1745C1.4985 16.0907 2.07652 15.4404 3.16031 15.4002C3.58579 15.3842 4.01931 15.3521 4.4448 15.4564C4.86226 15.5528 5.27971 15.617 5.76943 15.7133C5.64901 15.2959 5.52858 14.9346 5.4483 14.5653C5.23155 13.5859 5.67309 12.7992 6.6204 12.462C7.51152 12.1409 8.43474 12.1971 9.34994 12.2613C12.0715 12.454 14.6485 13.2648 17.1211 14.3646C23.375 17.1423 28.2239 21.5337 31.7241 27.4022C33.2174 29.907 33.9078 32.6204 33.6589 35.5587C33.6027 36.1769 33.5786 36.8031 33.5144 37.4935C34.2771 37.3891 34.9675 37.2687 35.6659 37.2125C36.7337 37.1322 37.7853 37.2205 38.7888 37.646C39.6559 38.0073 40.266 38.6174 40.5871 39.5085C40.7397 39.934 40.8199 40.3515 40.4667 40.7127C40.0894 41.1061 39.6719 40.9375 39.2786 40.7368C37.9459 40.0544 36.541 39.7895 34.9755 39.9661C35.112 40.3354 35.393 40.5361 35.6418 40.7448C38.259 42.9526 40.7236 45.3208 43.1401 47.7453C45.8535 50.4668 48.1656 53.4854 50.2128 56.7287C50.847 57.7402 51.5294 58.7277 52.2037 59.7473C52.3884 59.4743 52.284 59.2495 52.2359 59.0408C51.6337 56.5039 51.0316 53.9671 50.4054 51.4382C49.6749 48.524 49.0326 45.5858 48.5108 42.6234C48.4145 42.0695 48.1897 41.6119 47.8124 41.1864C46.9534 40.223 46.1345 39.2195 45.3076 38.2321C45.0588 37.927 44.8179 37.7745 44.3603 37.8226C43.2043 37.943 42.0563 37.068 41.7913 35.9521C41.6067 35.1894 41.8235 34.5151 42.4256 34.0093C42.9956 33.5356 43.6458 33.4152 44.3603 33.7123C45.4762 34.1859 46.1024 35.1734 45.9017 36.4017C45.8054 36.9556 45.9499 37.3008 46.3111 37.6781C46.7848 38.1759 47.2023 38.7298 47.6358 39.2677C47.7401 39.3961 47.8365 39.5406 48.0773 39.6129C47.9649 38.3204 47.8846 37.076 47.7482 35.8397C47.4913 33.5758 47.5635 31.3119 47.9007 29.064C48.0853 27.7875 48.3262 26.5191 48.567 25.2587C48.6232 24.9777 48.5911 24.8413 48.3101 24.7449C47.1942 24.3676 46.0864 23.9822 44.9865 23.5728C44.6814 23.4604 44.561 23.5246 44.4005 23.7976C43.9429 24.5683 43.2926 25.042 42.3453 24.8814C41.7432 24.777 41.2615 24.472 40.9966 23.918C40.3383 22.5533 40.6273 20.8834 41.7673 19.92C42.0402 19.6953 42.3372 19.5347 42.6664 19.4303C43.7422 19.0932 44.6333 19.623 44.842 20.7389C44.8982 21.0199 44.8821 21.3089 44.8661 21.5979C44.85 21.8789 44.7858 22.1518 44.7296 22.5051C45.7973 22.4168 46.6242 23.1232 47.6599 23.2758C47.5796 22.5693 47.5234 21.8869 47.403 21.2206C47.3387 20.8433 47.2906 20.474 47.3307 20.1047C47.4511 19.0129 46.9855 18.178 46.3433 17.3511C45.6528 16.4519 45.7411 15.3922 46.1104 14.3887C46.4637 13.4253 47.2263 12.8473 48.2379 12.7108C48.8962 12.6225 49.4742 12.9356 49.8756 13.4815C50.6864 14.5814 50.8952 16.6125 49.0086 17.608C48.559 17.8488 48.4707 18.0897 48.4787 18.5312C48.4948 19.9682 48.4787 21.4052 48.84 22.8102C48.8962 23.043 48.8962 23.4363 49.2012 23.3721C49.5545 23.2918 49.9639 23.6772 50.285 23.1875C50.6463 22.6416 51.0959 22.1438 51.5214 21.6461C51.8344 21.2848 51.9147 20.9075 51.7381 20.4579C51.144 18.9567 52.5168 17.7605 53.6889 17.6401C54.0422 17.5999 54.3713 17.6722 54.6684 17.8809C55.3748 18.3706 55.8966 19.7354 55.6879 20.5703C55.431 21.622 54.4436 22.2321 53.3758 21.903C52.9503 21.7745 52.7577 21.8709 52.5409 22.2C52.0753 22.8904 51.5535 23.5407 50.9754 24.1428C50.8952 24.2231 50.839 24.3515 50.7426 24.3917C49.7391 24.8252 49.715 25.7645 49.5143 26.6556C48.856 29.626 48.6874 32.6204 48.9042 35.639C49.0166 37.2366 49.2173 38.8261 49.3779 40.3916C49.6669 40.5361 49.7231 40.3113 49.8114 40.1909C50.0602 39.8377 50.269 39.4604 50.5259 39.1151C50.847 38.6816 50.9915 38.2401 50.9192 37.6781C50.8069 36.795 51.1842 36.0484 51.7783 35.4222C52.5008 34.6596 53.6167 34.5392 54.5479 35.0851C55.4551 35.6229 55.8083 36.5462 55.5033 37.6059C55.3588 38.1116 55.142 38.5773 54.7727 38.9546C54.0743 39.6851 53.1992 39.7734 52.3081 39.4764C51.8505 39.3239 51.6498 39.4604 51.425 39.8216C50.9754 40.5281 50.4938 41.2024 50.004 41.8768C49.7953 42.1658 49.6749 42.4468 49.7472 42.8321C50.1004 44.7749 50.4697 46.7177 50.9674 48.7006C51.4973 48.243 51.7863 47.657 52.1636 47.1512C52.3161 46.9425 52.1074 46.7177 52.0432 46.509C51.8104 45.6741 51.9549 44.9114 52.5008 44.237C53.4561 43.0569 55.0617 43.1051 55.9609 44.3254C56.0412 44.4377 56.1134 44.5662 56.2017 44.7268C56.3783 44.5582 56.4024 44.3494 56.4586 44.1407C57.1249 41.7323 57.992 39.3961 58.859 37.06C59.132 36.3214 58.9874 35.7032 58.586 35.1413C57.1972 33.1824 56.3462 30.9907 55.985 28.6466C55.3829 24.7851 55.6799 20.9798 56.9965 17.2788C57.5263 15.7856 58.2328 14.3727 59.1239 13.0641C61.3638 9.77258 63.9729 6.8022 67.0155 4.21716C67.5614 3.75153 68.1475 3.32605 68.7656 2.96478C69.9136 2.29043 70.6121 2.6276 70.8208 3.93618C70.8369 4.04054 70.7726 4.16899 70.9974 4.2573C71.439 3.91209 71.7601 3.40633 72.1454 2.95676C72.4666 2.58746 72.7315 2.17803 73.0767 1.8248C73.8073 1.07819 74.4977 1.1665 75.0516 2.04156C75.5092 2.76408 75.6858 3.58294 75.7581 4.40983C75.9507 6.71389 75.8865 9.00189 75.1158 11.2176C74.883 11.8759 74.8589 12.5262 74.883 13.2246C74.9633 15.9622 74.6181 18.6516 73.7591 21.2688C72.4987 25.1303 70.7887 28.7911 68.7415 32.2913C67.0476 35.1894 64.6312 37.2767 61.5564 38.6013C61.2674 38.7298 61.0186 38.8582 60.9302 39.2356C60.4164 41.4433 59.5574 43.5547 59.132 45.7784C58.6904 48.0584 58.3934 50.3625 58.0241 52.6505C57.5745 55.4603 57.4862 58.3022 57.2935 61.1281C57.1651 62.9585 57.0125 64.7889 56.86 66.6193C56.7396 68.0563 56.8921 69.4933 57.0447 70.9143C57.2052 72.3995 57.3096 73.8847 57.4541 75.3618C57.5263 76.0523 57.7752 76.6865 57.8475 77.3608C58.2087 77.3448 58.1525 77.0879 58.2007 76.9113C59.148 73.5876 60.3763 70.3844 62.2709 67.4622C63.0577 66.25 63.9247 65.118 65.0647 64.2109C65.5383 63.8335 66.0521 63.5044 66.6141 63.2876C67.5614 62.9184 68.2599 63.1351 68.862 63.954C69.143 64.3393 69.432 64.7247 69.721 65.11C69.7691 65.1742 69.8574 65.2063 69.9939 65.3027C70.1465 64.7648 70.1786 64.243 70.2428 63.7212C70.6763 60.0523 71.1901 56.3915 72.3461 52.8592C73.3336 49.8567 74.4977 46.9345 75.8705 44.0845C76.296 43.2095 76.6652 42.3023 77.0747 41.4192C77.2272 41.0981 77.2513 40.8733 76.9221 40.6084C74.3451 38.5291 73.3978 35.7032 73.2051 32.508C73.0366 29.7384 73.454 27.0169 73.7511 24.2793C73.7751 24.0545 73.8474 23.8297 73.9277 23.613C74.024 23.3561 74.2167 23.1794 74.4977 23.1554C74.8268 23.1313 75.0596 23.2999 75.1801 23.5889C75.3005 23.8779 75.3888 24.183 75.445 24.488C75.742 26.0695 75.8705 27.6671 75.9829 29.2647C75.9989 29.4333 75.9507 29.6099 76.0953 29.7544C76.1113 29.915 76.0792 30.0836 76.2076 30.2281C76.312 30.0755 76.2638 29.915 76.2638 29.7544C76.6572 27.8437 77.0907 25.9491 77.741 24.1107C78.7606 21.2447 80.2056 18.6115 82.1002 16.2352C85.175 12.3737 88.7073 8.9778 92.6812 6.03953C93.9737 5.08419 95.3626 4.26533 96.7916 3.53478C98.2928 2.76408 99.8342 2.04958 101.295 1.19861C101.416 1.12636 101.552 1.06213 101.681 1.00594C102.62 0.580449 103.07 0.813263 103.254 1.8248C103.302 2.0817 103.351 2.33057 103.407 2.6276C103.704 2.57944 103.872 2.33859 104.081 2.17803C104.723 1.68832 105.317 1.15044 106.008 0.732982C107.068 0.0907373 107.886 0.460028 107.999 1.69635C108.087 2.66775 108.071 3.64717 107.967 4.61856C107.935 4.93166 107.91 5.24475 107.87 5.55785C107.838 5.79869 107.846 5.98333 108.087 6.15192C108.472 6.42488 108.537 6.85839 108.537 7.29994C108.537 9.09822 108.135 10.8243 107.613 12.5262C106.377 16.6045 104.362 20.2974 102.018 23.8217C99.497 27.6109 96.7595 31.2155 93.484 34.3946C92.1433 35.6952 90.7304 36.9155 89.2693 38.0795C89.1328 38.1839 89.0204 38.3123 88.892 38.4328C88.8438 38.4568 88.7876 38.4729 88.7475 38.505C88.6913 38.5532 88.6351 38.6094 88.5869 38.6656C88.6592 38.7298 88.7394 38.7137 88.8197 38.6816C88.892 38.6415 88.9482 38.5853 89.0204 38.5371C89.5021 38.3525 89.9838 38.1839 90.4575 37.9832C90.6983 37.8788 90.9472 37.8066 91.2041 37.7985C91.9748 37.7584 92.4404 38.3043 92.2638 39.067C92.0631 39.926 91.6456 40.6726 91.0596 41.3229C88.908 43.7393 86.2829 44.4618 83.1921 43.5145C82.7505 43.378 82.317 43.2335 81.8915 43.081C81.7871 43.0409 81.6908 42.9766 81.5543 42.8964C81.2573 43.1131 81.161 43.4824 81.0004 43.8035C78.9854 47.8497 77.5082 52.0885 76.32 56.4397C75.461 59.5947 74.594 62.7417 73.9758 65.953C73.7992 66.8762 73.7109 67.8235 73.5744 68.7548C73.4942 69.3167 73.6226 69.7823 73.9357 70.2801C75.5092 72.7688 76.7054 75.4421 77.2112 78.3643C77.5724 80.4276 77.7089 82.5148 77.3637 84.6102C77.3476 84.7226 77.3476 84.835 77.3396 84.9473C77.6286 84.9875 77.7571 84.7627 77.9257 84.6262C79.4911 83.3979 81.1529 82.3382 83.0315 81.6318C83.3928 81.4953 83.6095 81.2785 83.7861 80.9012C84.6853 78.9584 85.9698 77.2565 87.3506 75.6428C90.61 71.8456 94.038 68.2088 98.0359 65.1662C98.2447 65.0137 98.4454 64.8451 98.638 64.6845C98.8066 64.548 98.8628 64.4276 98.7424 64.1788C97.5783 61.8827 97.6185 59.4261 97.7951 56.9455C97.9316 55.0589 98.3571 53.2124 98.5578 51.3339C98.5979 50.9886 98.8628 50.796 98.9672 50.4989C100.083 47.1593 101.986 44.2692 104.113 41.4995C105.406 39.8136 106.682 38.1116 107.838 36.3294C108.039 36.0163 108.24 35.7273 108.248 35.3179C108.256 34.9004 108.448 34.5632 108.978 34.5392C109.299 34.5231 109.548 34.1377 109.942 34.2903C110.375 34.4589 110.616 34.8201 110.793 35.2135C111.274 36.2572 111.644 37.349 111.844 38.4809C112.334 41.2586 112.462 44.0524 112.222 46.8703C111.989 49.6881 111.555 52.4417 110.568 55.091C110.247 55.95 109.861 56.7849 109.508 57.6279C109.42 57.7081 109.356 57.7964 109.452 57.9008C109.476 57.9249 109.588 57.8607 109.661 57.8366C110.688 57.2666 111.716 56.6886 112.735 56.1186C115.136 54.7699 117.713 53.9269 120.442 53.5817C123.292 53.2205 126.078 52.5702 128.832 51.7674C129.57 51.5506 130.309 51.2937 131.104 51.3178C131.81 51.3339 132.147 51.655 132.187 52.3615C132.211 52.7468 132.075 53.1 131.938 53.4452C131.449 54.6896 130.678 55.7653 129.835 56.7769C128.133 58.816 126.206 60.6063 124.103 62.2279C121.414 64.3072 118.331 65.4954 115.08 66.3303C112.856 66.9003 110.624 67.3739 108.288 67.5265C108.424 67.8476 108.697 67.8877 108.906 68.0081C110.423 68.8591 111.82 69.8546 112.912 71.2194C113.948 72.5119 114.453 74.0131 114.622 75.6508C114.879 78.1155 114.237 80.4276 113.49 82.7155C112.783 84.8831 111.692 86.8661 110.568 88.841C109.813 90.1656 108.802 89.7963 108.216 88.9293C106.353 86.1917 104.707 83.3578 103.856 80.1064C103.286 77.9389 102.917 75.7392 102.516 73.5475C102.243 72.0543 101.97 70.5611 101.472 69.124C101.408 68.9394 101.376 68.7387 101.223 68.6022C99.2723 69.7342 90.2327 77.7783 89.1649 79.3598C89.5663 79.2795 89.8955 79.2233 90.2166 79.1511C90.7384 79.0387 91.2442 79.0628 91.7419 79.2474C92.5688 79.5445 93.0907 80.2188 92.8097 81.0457C92.2638 82.6513 92.6411 84.2409 92.7455 85.8224C92.898 88.0542 92.6812 90.2298 92.2477 92.3974C91.7098 95.1189 90.626 97.6477 89.4861 100.161C88.8599 101.541 88.1935 102.906 87.9527 104.431C87.8082 105.347 87.7681 106.286 87.9045 107.177C88.4665 110.798 87.7681 114.178 86.2267 117.453C85.1268 119.781 83.8182 121.957 82.0601 123.843C81.4901 124.453 80.8559 124.991 80.1655 125.585C80.5508 125.907 80.9121 126.212 81.2814 126.501C82.8549 127.729 83.738 129.359 84.0189 131.317C84.3642 133.75 84.3561 136.174 83.9066 138.591C83.6336 140.052 83.0395 141.377 82.2287 142.613C81.458 143.793 80.6712 144.957 80.3501 146.362C80.2377 146.86 79.8604 147.109 79.3868 147.269C80.0531 148.465 80.888 149.493 81.6186 150.585C84.1715 154.406 86.7324 158.211 88.6271 162.426C89.7911 165.019 90.626 167.733 91.461 170.438C91.9507 172.02 92.4484 173.601 92.9381 175.191C93.179 175.054 93.1388 174.838 93.1469 174.645C93.6446 163.871 96.7354 153.852 101.97 144.459C104.009 140.799 106.273 137.266 108.4 133.662C110.046 130.868 111.563 128.002 113.145 125.168C113.482 124.566 113.819 123.964 114.333 123.49C114.518 123.321 114.622 123.169 114.51 122.896C114.405 122.647 114.566 122.454 114.766 122.318C114.991 122.165 115.208 122.246 115.401 122.39C115.971 122.824 116.428 123.289 116.236 124.124C116.155 124.469 116.26 124.855 116.268 125.224C116.34 129.375 115.738 133.461 114.823 137.483C112.342 148.377 108.063 158.533 102.146 168.006C100.364 170.856 98.6059 173.714 96.5668 176.395C96.1172 176.989 95.6195 177.551 95.1298 178.113C95.0013 178.258 94.8247 178.466 94.6642 178.474C94.0139 178.506 94.054 178.924 94.0861 179.365C94.2708 182.039 94.2467 184.712 94.1584 187.377C94.1263 188.469 94.0942 189.601 93.6125 190.645C93.5081 190.862 93.5643 191.151 93.5563 191.407C93.484 194.137 93.6285 196.867 93.7409 199.588C93.8854 203.088 94.3591 206.548 95.202 209.944C95.2261 210.025 95.2502 210.105 95.2743 210.193C95.3465 210.779 95.4429 211.357 95.6596 211.991C95.8603 211.67 96.0289 211.413 96.2136 211.124C95.8282 210.908 95.5472 210.635 95.5312 210.193C95.7881 208.66 95.7239 207.118 95.6837 205.569C95.6436 204.116 95.8443 202.647 95.9808 201.194C96.1012 199.853 96.3179 198.52 96.4223 197.18C96.8077 192.242 98.1323 187.546 99.9225 182.962C101.279 179.486 102.877 176.114 104.643 172.831C107.469 167.564 109.853 162.097 112.173 156.606C112.47 155.891 112.783 155.185 113.121 154.486C113.41 153.892 113.715 153.29 114.325 152.953C114.51 152.857 114.526 152.704 114.582 152.544C114.726 152.15 115.055 152.07 115.425 152.158C115.786 152.239 116.003 152.512 115.922 152.849C115.81 153.322 116.043 153.668 116.22 154.053C116.581 154.84 116.814 155.675 116.902 156.526C117.038 157.778 117.151 159.03 117.087 160.299C116.982 162.338 116.798 164.353 116.404 166.352C115.513 170.896 114.108 175.287 112.302 179.542C109.717 185.611 106.851 191.552 104.025 197.517C103.029 199.62 101.809 201.603 100.661 203.618C100.509 203.891 100.316 204.148 100.252 204.461C99.9386 204.854 99.7299 205.304 99.5693 205.842C99.8744 205.473 100.147 205.176 100.324 204.806C103.318 200.961 106.313 197.107 109.299 193.262C111.074 190.974 112.711 188.582 114.413 186.237C114.831 185.659 115.264 185.081 115.794 184.592C116.926 183.54 118.227 183.701 119.061 185.009C119.808 186.181 120.049 187.514 120.081 188.863C120.137 191.279 119.511 193.567 118.62 195.791C117.705 198.071 116.396 200.118 114.935 202.077C111.33 206.886 107.1 211.076 102.283 214.657C99.9547 216.383 97.49 217.9 94.6722 218.743C94.5598 218.775 94.3671 218.775 94.4153 219C93.9577 219 93.4921 219 93.0345 219C93.0425 218.976 93.0666 218.928 93.0585 218.92C92.1674 217.9 92.047 216.632 91.8383 215.371C91.0997 210.827 90.3611 206.275 89.5583 201.74C89.1248 199.307 88.3461 196.971 87.3185 194.715C86.9974 194.009 86.5398 193.615 85.9136 193.246C84.2357 192.234 82.7826 190.918 81.2573 189.697C76.6572 185.98 72.9804 181.485 69.8334 176.54C68.3803 174.26 67.2804 171.787 66.2047 169.314C66.0441 168.953 65.8434 168.72 65.4741 168.536C61.6849 166.673 59.0918 163.727 57.6869 159.753C57.0848 158.051 56.5309 156.325 55.9368 154.623C55.5113 153.403 54.9975 152.223 54.3874 151.074C54.2509 150.818 54.1224 150.569 54.0181 150.296C53.7612 149.613 54.1224 149.108 54.861 149.1C55.3989 149.092 55.8726 149.316 56.3382 149.525C59.6779 151.002 62.9051 152.688 65.8514 154.856C66.1324 155.056 66.3331 155.257 66.7345 154.952C67.0476 154.711 67.4892 154.928 67.5454 155.41C67.6578 156.389 68.3723 156.863 68.9744 157.457C71.6798 160.138 73.446 163.341 74.1364 167.09C74.305 168.03 74.6261 168.784 75.172 169.547C76.6251 171.562 77.3717 173.882 77.8614 176.283C78.1103 177.487 78.3993 178.691 78.4154 179.927C78.4154 180.257 78.6321 180.449 78.8087 180.666C80.3421 182.641 82.0039 184.511 83.7701 186.286C85.2713 187.787 86.8529 189.216 88.4023 190.677C88.619 190.886 88.8759 191.054 89.1248 191.247C89.189 191.118 89.2292 191.07 89.2292 191.022C89.1248 188.317 89.2934 185.619 89.2773 182.922C89.2613 180.216 88.9803 177.551 88.4103 174.91C87.744 171.851 86.9893 168.825 85.9296 165.878C84.605 162.177 82.7184 158.773 80.3903 155.61C78.7365 153.371 77.0827 151.123 75.7661 148.658C75.4771 148.112 75.0195 147.743 74.6101 147.317C74.4495 147.157 74.297 147.245 74.1364 147.277C72.9001 147.51 71.6557 147.727 70.4194 147.968C69.0466 148.233 67.6899 148.241 66.3331 147.887C64.7115 147.462 63.162 146.876 61.7491 145.977C61.0105 145.511 60.3281 144.989 60.0472 144.106C60.007 143.978 59.9026 143.857 59.8143 143.745C58.8831 142.557 58.7386 141.248 59.2203 139.851C59.421 139.289 59.6297 138.727 59.8545 138.093C59.3407 138.117 58.9473 138.334 58.5539 138.527C56.7075 139.426 55.0778 140.662 53.5364 141.995C49.1611 145.792 45.5164 150.199 42.6263 155.225C42.4737 155.498 42.3212 155.779 42.1526 156.092C43.0437 156.421 43.9268 156.662 44.7376 157.079C50.1887 159.881 53.8013 164.2 55.431 170.125C55.9047 171.835 56.3061 173.561 56.5389 175.327C56.7717 177.126 56.555 178.868 56.1696 180.61C55.8324 182.119 55.6157 183.652 54.9654 185.081C54.1305 186.904 52.9503 188.413 51.2163 189.465C50.4697 189.914 49.6749 190.227 48.7918 190.276C47.4752 190.356 46.7206 189.778 46.4556 188.501C46.3031 187.771 46.2951 187.024 46.271 186.278C46.2389 184.985 46.2148 183.693 46.1426 182.4C45.9579 179.389 45.0507 176.612 43.421 174.075C42.4577 172.582 41.4461 171.113 40.4747 169.619C39.4793 168.094 38.7166 166.464 38.4918 164.626C38.4838 164.578 38.4356 164.538 38.3874 164.481C38.1546 164.497 38.1867 164.714 38.1386 164.843C37.5525 166.368 36.9906 167.901 36.3804 169.419C36.268 169.7 36.2921 169.892 36.4286 170.133C37.7131 172.413 37.8817 174.862 37.5445 177.39C36.8541 182.625 34.9434 187.361 31.6037 191.472C29.2997 194.314 26.3935 196.281 22.7729 197.091C22.0102 197.26 21.2475 197.348 20.4688 197.324C19.1281 197.284 18.3333 196.489 18.3253 195.157C18.3173 193.92 18.6063 192.708 18.7508 191.488C18.9595 189.697 19.1201 187.899 19.2405 186.101C19.6098 180.65 21.3198 175.721 24.9806 171.578C25.663 170.807 26.4176 170.093 27.1401 169.354C27.1883 169.33 27.2445 169.306 27.2846 169.274C27.3408 169.218 27.4452 169.114 27.4372 169.097C27.3649 169.001 27.2686 169.089 27.1883 169.106C27.1 169.154 27.0438 169.234 26.9796 169.282ZM59.5574 112.724C59.5655 112.62 59.5414 112.532 59.437 112.476C59.2203 111.753 58.8189 111.119 58.4415 110.485C57.0366 108.124 55.2303 106.077 53.3999 104.054C51.4812 101.935 49.8756 99.6226 48.6072 97.0456C46.3673 92.4857 45.982 87.8455 47.6197 83.0286C48.9203 79.1993 50.6463 75.5947 52.9664 72.2791C53.3839 71.685 53.2474 71.2996 52.5409 71.107C51.5695 70.8501 50.574 70.7136 49.5786 70.6012C48.0532 70.4326 46.5359 70.6092 45.0106 70.6012C42.6102 70.5852 40.5069 71.3639 38.7407 73.0016C38.2991 73.403 37.8175 73.7 37.8094 74.4868C37.8014 75.0648 37.6729 75.6509 37.7934 76.2449C38.251 78.5008 39.0618 80.6523 39.8084 82.8199C40.547 84.9634 41.4461 87.0427 42.4657 89.0738C42.6263 89.3949 42.7467 89.7401 42.3453 89.9809C42.0643 90.1495 41.7913 90.005 41.5344 89.5715C41.4301 89.4029 41.3578 89.2103 41.2615 89.0336C40.5871 87.7331 39.969 86.4085 39.4632 85.0357C38.2349 81.7441 36.9183 78.4848 36.3885 74.9524C35.9068 75.2334 35.4411 75.4983 34.9755 75.7793C34.4537 76.1004 33.7793 76.1807 33.4181 76.7748C33.3137 76.9434 33.0408 76.9675 32.8561 76.8952C32.4708 76.7427 32.1256 76.9032 31.7643 76.9755C31.0899 77.1039 30.4156 77.2565 29.7332 77.3207C27.1482 77.5856 24.7317 78.3242 22.6043 79.8656C22.4357 79.986 22.1627 80.0422 22.1627 80.3633C25.2535 81.1902 28.1517 82.4586 30.8651 84.1445C34.5179 86.4165 37.6167 89.2905 40.266 92.6623C40.5871 93.0717 40.5952 93.3126 40.3222 93.5615C40.0412 93.8184 39.68 93.7702 39.3428 93.4089C39.1662 93.2243 39.0136 93.0075 38.8531 92.8068C36.3001 89.6036 33.2736 86.9544 29.7653 84.835C27.1642 83.2695 24.4026 82.1054 21.4643 81.3749C21.1913 81.3026 20.9344 81.1822 20.6695 81.4471C19.6981 82.4185 18.7829 83.4381 17.9319 84.5941C18.1567 84.7065 18.3253 84.8028 18.5019 84.8912C22.5561 86.9383 26.4497 89.2584 30.1426 91.8997C30.8651 92.4215 31.5636 92.9834 32.1336 93.6658C32.4226 94.011 32.4146 94.3643 32.1657 94.5891C31.9249 94.8138 31.5556 94.8058 31.2585 94.4606C30.2229 93.2805 28.9224 92.4295 27.6298 91.5625C24.5069 89.4671 21.2796 87.5404 17.8998 85.8866C17.1211 85.5093 17.2736 85.405 16.7839 86.1997C14.9696 89.13 13.5807 92.2208 13.1954 95.6889C13.0348 97.1259 13.0589 98.5308 13.7895 99.8715C14.1909 100.618 14.7448 101.317 14.9214 102.176C15.1382 103.203 15.8206 103.725 16.7438 104.038C17.2335 104.207 17.7152 104.383 18.2049 104.544C19.5697 104.977 20.9505 105.371 22.3072 105.836C26.3213 107.233 29.5325 109.786 32.3263 112.917C32.5751 113.198 32.8962 113.455 33.0247 113.784C33.2174 114.258 33.5064 114.258 33.8998 114.178C36.0513 113.736 38.2269 113.616 40.4105 113.704C41.0688 113.728 41.7271 113.768 42.3854 113.824C42.7387 113.856 42.9956 114.041 42.9875 114.426C42.9795 114.828 42.6905 114.948 42.3533 114.996C42.2409 115.012 42.1285 114.98 42.0161 114.972C38.9333 114.691 35.8827 114.868 32.8561 115.51C30.7768 115.944 28.6895 116.281 26.5701 116.49C25.093 116.634 23.6078 116.827 22.1467 117.132C20.7097 117.429 19.7222 118.216 19.1683 119.58C18.7669 120.56 18.4056 121.555 18.1246 122.583C17.1934 125.963 15.7242 129.086 13.6289 131.912C12.9305 132.859 12.3203 133.87 11.6781 134.858C11.5577 135.05 11.4372 135.259 11.381 135.476C11.3088 135.773 11.3891 135.982 11.7824 135.926C11.9751 135.893 12.1437 135.934 12.3203 135.765C13.5807 134.625 15.0499 133.758 16.3986 132.738C21.2475 129.086 26.5782 126.308 32.2058 124.092C32.7919 123.859 33.3699 123.619 33.964 123.394C34.2771 123.273 34.5982 123.257 34.7909 123.619C34.9514 123.924 34.823 124.245 34.4216 124.461C34.1727 124.598 33.8917 124.686 33.6268 124.791C30.6404 125.979 27.6941 127.239 24.8441 128.74C20.8622 130.836 17.2817 133.533 13.6369 136.126C13.5326 136.199 13.4764 136.279 13.4924 136.431C15.09 136.977 16.7438 137.258 18.4297 137.467C20.6213 137.74 22.5882 137.266 24.3142 135.845C24.4668 135.717 24.6354 135.604 24.804 135.492C25.8878 134.737 27.0759 134.28 28.4166 134.264C28.6895 134.264 28.9063 134.175 29.1311 134.023C31.7884 132.257 34.4617 130.531 37.0789 128.7C37.8576 128.154 38.6684 127.673 39.4552 127.143C39.7763 126.926 40.0573 126.958 40.2821 127.263C40.5069 127.576 40.4185 127.857 40.1376 128.098C40.0733 128.154 40.0011 128.203 39.9288 128.243C37.0548 130.137 34.1807 132.04 31.3067 133.943C31.106 134.071 30.825 134.127 30.7367 134.416C30.9454 134.585 31.1702 134.505 31.387 134.48C32.2861 134.376 33.113 134.047 33.9158 133.67C37.962 131.767 42.2168 130.9 46.6885 131.069C48.856 131.149 50.9674 131.43 52.9825 132.297C54.7486 133.06 56.5389 133.75 58.289 134.529C59.5093 135.075 60.858 135.307 61.9819 136.094C62.1264 136.19 62.3111 136.062 62.4797 136.022C63.3868 135.813 64.2217 135.412 64.9844 134.906C67.449 133.276 69.9859 131.759 72.5468 130.29C73.6467 129.656 74.602 128.813 75.3968 127.817C76.2237 126.79 77.0024 125.746 77.7169 124.63C78.2949 123.723 78.9613 122.848 79.4911 121.909C80.8398 119.516 81.8674 116.995 82.0922 114.234C82.2688 112.09 82.3491 109.939 82.4615 107.787C82.5418 106.294 82.7746 104.825 83.1037 103.372C83.8825 99.9117 85.175 96.6362 86.5398 93.3848C88.049 89.7883 89.5583 86.1917 91.0515 82.5871C91.172 82.2901 91.4128 82.0011 91.2683 81.6398C91.1077 81.6237 91.0435 81.7361 90.9552 81.8003C88.3942 83.8796 86.2588 86.3603 84.2999 88.9935C82.4936 91.418 81.0325 94.0512 79.8444 96.8209C79.7079 97.142 79.5072 97.3587 79.1218 97.2865C78.7686 97.2142 78.5679 96.8851 78.6482 96.4917C78.6883 96.299 78.7766 96.1144 78.873 95.9378C79.2503 95.1992 79.6437 94.4606 80.029 93.722C82.5016 88.9132 85.7771 84.7386 89.8714 81.2063C90.1845 80.9333 90.5217 80.6764 90.7465 80.2911C90.4575 80.2108 90.2407 80.2831 90.0159 80.3473C88.2899 80.7968 86.6602 81.5113 84.9743 82.0733C81.8032 83.125 79.0817 84.8751 76.7214 87.2193C76.5609 87.3799 76.2478 87.4922 76.32 87.7331C76.4967 88.3512 76.031 88.56 75.6938 88.8329C74.6502 89.6919 73.8795 90.7436 73.3978 92.012C73.0285 92.9754 72.7074 93.9548 72.4826 94.9664C71.5755 99.1329 70.861 103.34 70.0662 107.53C70.01 107.819 69.8735 108.012 69.5765 108.044C69.2875 108.076 69.0867 107.932 68.9663 107.659C68.8459 107.378 68.8861 107.113 68.9583 106.816C69.6246 103.853 70.1946 100.875 70.7164 97.8806C71.2062 95.1109 71.8163 92.3733 73.2132 89.8364C72.314 89.4752 72.0491 88.6643 71.8083 87.8776C71.1259 85.6859 70.5157 83.4782 69.8093 81.2946C68.8299 78.3001 68.3401 75.2254 68.2037 72.0944C68.1394 70.5771 68.1715 69.0438 68.1314 67.5265C68.1073 66.6675 68.011 65.8004 67.9548 64.9414C67.714 64.9896 67.6979 65.11 67.6658 65.2144C67.3366 66.3142 66.9995 67.406 66.6944 68.5139C65.4581 72.9614 64.4224 77.4572 64.005 82.0653C63.9809 82.3463 63.9327 82.6353 63.8685 82.9082C63.8043 83.1972 63.5875 83.3498 63.2985 83.3257C63.0095 83.3016 62.8249 83.133 62.8008 82.8279C62.7847 82.6272 62.7847 82.4265 62.8168 82.2258C63.0737 80.3553 63.2664 78.4687 63.6036 76.6142C64.3181 72.7206 65.4019 68.9153 66.5178 65.118C66.5659 64.9414 66.7345 64.7809 66.5258 64.5641C65.8514 64.9655 65.2574 65.4552 64.7436 66.0413C62.9774 68.0884 61.7571 70.4487 60.7456 72.9374C59.6939 75.5224 59.0517 78.2279 58.3773 80.9173C58.3131 81.1742 58.273 81.4311 58.1204 81.6398C57.8154 82.0733 57.2293 82.0171 57.0045 81.5354C56.9002 81.3187 56.9162 81.0859 56.9162 80.853C56.9082 80.6202 56.9162 80.3874 56.8761 80.1626C56.8359 79.9459 56.852 79.705 56.6754 79.4802C56.5309 80.7647 56.2579 81.9609 55.8806 83.141C55.2143 85.2283 55.15 87.3477 55.5113 89.5073C55.8565 91.6106 56.6995 93.5133 57.719 95.3517C58.6663 97.0617 59.6859 98.7235 60.6653 100.417C61.5805 101.999 62.1505 103.701 62.5037 105.491C63.154 108.775 63.2825 112.098 63.1299 115.43C63.0898 116.257 62.9373 117.076 62.6884 117.878C62.584 118.224 62.3753 118.497 62.0221 118.392C61.5243 118.248 61.5163 118.529 61.444 118.858C61.2112 119.91 60.8339 120.897 60.0552 121.676C59.6297 122.101 59.132 122.39 58.5138 122.23C58.2168 122.149 58.1044 122.27 57.9839 122.495C57.5504 123.321 57.6147 124.221 57.6227 125.112C57.6227 125.674 58.0803 125.931 58.4014 126.284C59.0115 126.958 58.9794 128.09 58.3452 128.708C57.7351 129.31 56.579 129.343 55.8886 128.781C55.15 128.178 55.0055 127.263 55.5514 126.477C55.712 126.244 55.9127 126.027 56.1295 125.834C56.3382 125.642 56.4265 125.441 56.4185 125.16C56.3864 124.221 56.4666 123.289 56.7396 122.382C54.2348 121.82 53.6167 121.571 51.5374 120.15C51.2484 119.95 51.0316 119.974 50.7667 120.11C49.7793 120.624 49.0407 121.427 48.3101 122.246C48.0853 122.503 47.9489 122.727 47.9489 123.137C47.9408 124.052 47.6759 124.903 46.6804 125.28C45.8455 125.601 44.8661 125.377 44.2479 124.678C43.5816 123.94 43.4853 122.856 43.991 121.949C44.4968 121.042 45.7813 120.375 46.8972 121.403C47.0016 121.499 47.0738 121.628 47.2745 121.628C48.1415 120.672 49.0407 119.717 50.2128 119.051C49.7632 118.497 49.2574 118.063 48.9845 117.509C48.2379 116.04 47.0818 114.98 45.8455 113.953C44.3362 112.7 43.1561 111.127 41.9198 109.61C41.7432 109.393 41.6147 109.2 41.2294 109.288C39.7362 109.61 38.0984 108.694 37.5284 107.289C36.9825 105.933 37.7853 104.656 39.2384 104.48C40.4587 104.335 42.4256 105.315 42.6102 107.145C42.6503 107.514 42.6905 107.892 42.6584 108.261C42.6343 108.574 42.7467 108.791 42.9313 109.032C43.8867 110.22 44.8661 111.384 45.9178 112.484C46.2871 112.869 46.6644 113.246 47.138 113.551C47.1621 113.455 47.1782 113.431 47.1701 113.407C47.0899 112.275 47.0578 111.159 47.8766 110.228C48.0934 109.979 47.8686 109.794 47.7562 109.618C46.8811 108.197 46.1987 106.679 45.5726 105.13C45.404 104.72 45.1631 104.52 44.7376 104.383C43.3889 103.958 42.6825 102.93 42.5219 101.59C42.4336 100.859 42.7306 100.177 43.3648 99.711C44.6654 98.7636 46.9614 99.6226 47.3307 101.196C47.5796 102.256 47.2424 103.179 46.6563 104.022C46.5199 104.223 46.4797 104.319 46.56 104.528C47.1621 106.117 47.8606 107.651 48.7356 109.112C48.8239 109.256 48.9042 109.465 49.1129 109.401C49.8435 109.16 50.6142 109.184 51.417 109.072C51.1199 108.421 50.8309 107.908 50.2449 107.57C49.6588 107.233 49.2896 106.663 49.0166 106.053C48.6794 105.298 48.9042 104.64 49.4421 104.078C50.004 103.484 50.9835 103.316 51.7542 103.629C52.4767 103.926 52.8299 104.488 52.838 105.323C52.838 106.005 52.6292 106.623 52.276 107.193C52.0913 107.49 52.0432 107.755 52.2198 108.076C52.3402 108.301 52.4285 108.55 52.5088 108.791C52.6292 109.168 52.8781 109.321 53.2554 109.385C54.6603 109.642 55.9127 110.244 57.1089 111.014C57.8876 111.512 58.5539 112.146 59.2765 112.716C59.2765 112.789 59.3166 112.821 59.3889 112.829C59.429 112.965 59.5896 113.142 59.6297 113.102C59.7581 113.005 59.6618 112.861 59.5815 112.749C59.5976 112.765 59.5735 112.749 59.5574 112.724ZM99.7299 14.3245C99.8423 14.2362 99.9707 14.1639 100.067 14.0596C102.275 11.6833 104.338 9.1785 106.409 6.6898C106.57 6.50516 106.618 6.30446 106.65 6.06361C106.795 4.77913 106.915 3.49464 106.867 2.20212C106.859 2.01747 106.947 1.79269 106.666 1.63213C105.454 2.41085 104.37 3.38224 103.262 4.33758C103.166 4.42589 103.102 4.57842 103.078 4.7149C102.692 6.66572 101.954 8.50415 101.295 10.3667C100.822 11.7154 100.244 13.0239 99.7218 14.3486L99.762 14.3646L99.7299 14.3245ZM96.9602 203.185C97.0726 203.096 97.1368 202.984 97.1769 202.831C97.5783 201.394 98.0038 199.965 98.4133 198.536C99.9306 193.238 101.881 188.092 103.888 182.962C103.993 182.697 104.113 182.432 104.266 182.191C104.458 181.886 104.755 181.766 105.085 181.95C105.406 182.135 105.454 182.432 105.293 182.769C105.069 183.267 104.828 183.757 104.627 184.262C102.13 190.741 99.8583 197.292 98.0921 204.012C97.8031 205.103 97.474 206.187 97.2974 207.375C97.6426 207.006 97.8192 206.605 97.9958 206.219C98.8548 204.365 99.8663 202.599 100.886 200.832C101.697 199.411 102.516 197.99 103.206 196.513C105.47 191.68 107.782 186.872 109.95 181.999C112.912 175.343 115.377 168.552 115.882 161.19C115.995 159.52 116.011 157.874 115.674 156.229C115.625 155.996 115.722 155.691 115.393 155.562C115.369 155.642 115.336 155.723 115.32 155.795C114.485 159.64 113.353 163.39 111.997 167.082C110.776 170.39 109.211 173.569 108.127 176.933C107.91 177.599 107.694 177.776 107.357 177.655C107.011 177.535 106.939 177.238 107.132 176.612C107.573 175.191 108.055 173.778 108.649 172.405C110.969 166.994 112.936 161.463 114.172 155.699C114.221 155.49 114.309 155.289 114.172 154.968C113.827 155.747 113.522 156.453 113.217 157.152C111.202 161.848 109.243 166.561 106.859 171.08C105.39 173.874 103.929 176.676 102.628 179.55C100.677 183.869 99.0234 188.293 98.1483 192.973C97.5221 196.353 97.2893 199.781 96.9602 203.209C97.0485 203.313 96.8879 203.385 96.9281 203.482C96.9361 203.377 96.9522 203.281 96.9602 203.185ZM82.0601 40.4879C82.3571 40.6244 82.5257 40.5602 82.6943 40.5281C83.762 40.3434 84.7174 39.8858 85.6005 39.2837C88.4986 37.2928 91.172 35.0369 93.6205 32.5241C96.8558 29.1925 99.5854 25.4674 102.05 21.5417C103.607 19.061 104.988 16.476 105.96 13.6983C106.57 11.9482 107.164 10.1981 107.276 8.32753C106.754 8.19908 106.465 8.43992 106.168 8.80921C104.065 11.3942 101.889 13.9151 99.5532 16.2994C99.3124 16.5483 99.0475 16.765 98.7906 16.9898C98.5016 17.2387 98.1885 17.343 97.8513 17.0942C97.5623 16.8694 97.5543 16.5643 97.6827 16.2432C97.7228 16.1388 97.755 16.0264 97.7951 15.9221C98.1403 15.039 98.4775 14.1559 98.8387 13.2808C99.9145 10.7199 100.926 8.12683 101.689 5.45348C101.994 4.39378 102.235 3.30999 102.114 2.09775C101.881 2.21015 101.705 2.29043 101.536 2.37873C100.26 3.03704 98.9913 3.69534 97.7068 4.34561C95.5954 5.41334 93.6125 6.66572 91.7821 8.15091C89.6787 9.85286 87.7038 11.6913 85.8413 13.6501C84.2598 15.32 82.7746 17.0701 81.5222 19.0048C79.2182 22.5613 77.9578 26.487 77.3155 30.6455C76.9382 33.1102 77.1309 35.5025 78.0059 37.8387C78.1103 38.1116 78.1906 38.3766 78.4314 38.5692C78.889 38.9385 79.2021 38.8663 79.3627 38.3043C79.8845 36.5301 80.6712 34.8763 81.458 33.2145C82.8549 30.2843 84.5809 27.5307 85.9457 24.5844C86.0982 24.2552 86.3712 24.1187 86.7244 24.2391C87.0536 24.3515 87.2061 24.7048 87.0295 25.0821C86.7967 25.6039 86.5076 26.1017 86.2427 26.6155C84.5809 29.7625 82.7826 32.8372 81.3777 36.1126C80.88 37.2767 80.4384 38.4488 80.1815 39.6932C80.1253 39.9741 80.0852 40.1829 80.3903 40.3354C80.6953 40.4879 80.7917 40.2712 80.9362 40.0946C82.6542 37.943 84.3882 35.7996 86.0902 33.632C86.5237 33.078 87.0536 32.5723 87.2542 31.8497C87.3426 31.5447 87.5834 31.3681 87.9206 31.4483C88.2979 31.5447 88.3942 31.8337 88.3541 32.1869C88.314 32.5723 88.1293 32.8934 87.8965 33.1904C86.9492 34.3786 86.0099 35.5748 85.0626 36.7629C84.0751 37.9832 83.0877 39.2035 82.0601 40.4879ZM31.973 39.4523C31.8847 39.372 31.7964 39.2998 31.7241 39.2195C31.2344 38.6736 31.2826 38.3605 31.973 38.0956C32.254 37.9912 32.3102 37.8387 32.3263 37.5978C32.3744 36.8593 32.4467 36.1126 32.5029 35.3741C32.6955 32.7489 32.0694 30.3164 30.7608 28.0444C28.9786 24.9456 26.6665 22.3044 23.953 20.0003C20.3323 16.9176 16.2139 14.8062 11.5577 13.7625C10.3213 13.4815 9.06896 13.3692 7.80053 13.4414C6.6204 13.5056 6.37153 13.8829 6.84519 14.9828C7.1342 15.6652 7.48743 16.3235 7.82461 16.9898C8.68361 18.6837 9.40614 20.4258 9.84768 22.2723C10.1046 23.34 10.4819 24.3515 10.9957 25.3229C11.7584 26.768 12.5853 28.1809 13.4924 29.5457C14.3113 30.782 14.5602 32.0264 13.958 33.4393C13.2917 34.9887 13.7573 36.3535 14.793 37.5738C15.2987 38.1678 15.8607 38.7057 16.4708 39.1874C18.9114 41.1302 21.7051 42.222 24.7879 42.5993C25.8235 42.7278 26.8591 42.7278 27.8707 42.4869C29.4121 42.1257 30.833 41.5557 31.4432 39.8939C31.5234 39.637 31.7884 39.6049 31.973 39.4523ZM114.75 124.927C114.397 125.2 114.277 125.561 114.1 125.874C112.615 128.532 111.186 131.213 109.653 133.838C107.292 137.876 104.723 141.794 102.508 145.912C99.778 150.986 97.6185 156.277 96.1815 161.864C95.3385 165.148 94.8006 168.479 94.4635 171.843C94.3671 172.839 94.1985 173.834 94.327 174.854C94.4073 174.765 94.4394 174.661 94.4715 174.557C96.7996 167.958 99.4489 161.487 102.05 154.992C102.893 152.889 103.832 150.826 104.739 148.754C104.876 148.441 104.98 148.104 105.285 147.895C105.59 147.679 105.879 147.695 106.144 147.952C106.385 148.184 106.409 148.481 106.184 148.722C105.783 149.164 105.606 149.71 105.382 150.232C102.066 157.922 98.9913 165.71 96.1092 173.569C95.8282 174.34 95.4991 175.102 95.3546 175.913C95.5713 175.833 95.6596 175.648 95.7801 175.488C97.1127 173.722 98.3169 171.867 99.5211 170.021C104.234 162.771 108.119 155.121 110.937 146.94C112.671 141.923 113.988 136.801 114.726 131.534C114.895 130.338 114.967 129.126 115.096 127.881C114.823 128.026 114.791 128.235 114.718 128.411C114.333 129.343 113.972 130.274 113.562 131.189C112.567 133.429 111.555 135.661 110.528 137.884C110.375 138.214 110.247 138.583 109.917 138.8C109.661 138.968 109.452 138.888 109.436 138.583C109.428 138.414 109.452 138.238 109.5 138.077C109.773 137.266 109.99 136.431 110.351 135.669C111.876 132.457 113.241 129.182 114.493 125.858C114.614 125.577 114.766 125.296 114.75 124.927ZM61.0426 36.0886C60.85 36.2732 60.561 36.3535 60.6894 36.6425C60.8018 36.8994 61.0105 36.9235 61.2594 36.795C61.4119 36.7148 61.6046 36.6505 61.7571 36.7549C62.0863 36.9877 62.3352 36.8031 62.6081 36.6505C64.4144 35.6711 65.8514 34.3063 67.0396 32.6445C68.1635 31.071 69.0145 29.345 69.8414 27.6109C71.6878 23.7494 73.3818 19.8237 73.6387 15.4645C73.7109 14.3165 73.7912 13.1604 73.4701 11.884C73.2292 12.3416 73.0446 12.6547 72.884 12.9838C71.744 15.3681 70.6683 17.7766 69.4159 20.1047C68.3401 22.1037 67.2564 24.0946 65.7872 25.8448C65.5624 26.1097 65.3457 26.3746 65.0727 26.5833C64.8319 26.76 64.5589 26.8723 64.2779 26.6716C63.997 26.4709 63.8525 26.214 63.997 25.8608C64.0291 25.7805 64.0371 25.6922 64.0612 25.6119C65.145 22.77 65.9558 19.8398 67.1761 17.046C68.3 14.461 69.1751 11.7957 69.44 8.96977C69.5122 8.18302 69.8012 7.39627 69.3677 6.62558C69.2794 6.47305 69.3436 6.27234 69.448 6.13587C69.8815 5.61404 69.6567 5.04405 69.6808 4.42589C69.3758 4.58645 69.3437 4.80321 69.2553 4.9718C68.1876 7.06712 67.1279 9.16245 66.0682 11.2658C65.4741 12.4459 64.872 13.618 64.5348 14.9025C64.4465 15.2557 64.2458 15.4725 63.8605 15.4002C63.4992 15.336 63.4591 15.047 63.4671 14.7419C63.4832 14.2121 63.6999 13.7384 63.8926 13.2648C64.8881 10.8483 66.2207 8.59245 67.3206 6.22418C67.441 5.95925 67.6337 5.71038 67.6578 5.41334C67.3527 5.31701 67.2323 5.50968 67.0797 5.63813C65.6347 6.83431 64.4064 8.24725 63.1701 9.64413C61.436 11.603 59.8143 13.6662 58.7225 16.0666C57.1892 19.4464 56.6192 22.9948 56.9082 26.7038C57.0928 29.064 57.7431 31.2557 58.8189 33.343C58.9955 33.6801 59.156 34.0414 59.5655 34.3465C59.4049 31.4965 59.6217 28.7911 59.999 26.0856C60.4164 23.1473 61.3878 20.3536 62.1585 17.5036C62.2147 17.2868 62.3191 17.0701 62.4395 16.8774C62.6161 16.6045 62.8971 16.5001 63.1942 16.6446C63.4832 16.7891 63.6036 17.054 63.4671 17.3671C62.9935 18.5071 62.7526 19.7274 62.3833 20.8995C61.1631 24.7851 60.6252 28.775 60.6252 32.8452C60.6252 33.8086 60.6653 34.796 61.1791 35.7514C61.4039 35.2617 61.6126 34.8201 61.8133 34.3786C61.9659 34.0494 62.2308 33.8808 62.576 34.0254C62.9212 34.1699 63.0095 34.4589 62.8489 34.8121C62.6723 35.2055 62.5118 35.6069 62.3191 35.9922C61.9257 36.8191 61.6688 36.8432 61.0426 36.0886ZM76.0953 147.004C77.4841 149.469 78.9211 151.749 80.5508 153.9C82.9111 157.023 84.9582 160.339 86.4274 163.984C87.744 167.267 88.6351 170.671 89.4138 174.115C90.1604 177.398 90.4735 180.722 90.4334 184.102C90.4013 186.687 90.1765 189.272 90.3451 191.857C90.3531 191.969 90.3451 192.09 90.329 192.202C90.2407 192.756 89.9517 192.933 89.4218 192.748C88.8117 192.531 88.322 192.13 87.8483 191.713C86.909 190.862 86.0019 189.986 85.0706 189.128C80.4705 184.905 76.5288 180.144 73.4139 174.709C72.4826 173.087 71.4871 171.514 70.4355 169.973C70.2669 169.724 70.1465 169.354 69.7531 169.419C69.0065 169.539 68.2759 169.395 67.4892 169.322C67.9949 170.599 68.581 171.787 69.167 172.967C71.1098 176.885 73.6788 180.377 76.5769 183.612C79.8283 187.241 83.4811 190.428 87.6476 192.997C88.049 193.246 88.4183 193.487 88.322 194.073C88.2899 194.265 88.4665 194.498 88.5628 194.707C89.4058 196.505 90.032 198.384 90.4414 200.319C91.2763 204.236 91.8463 208.21 92.5126 212.16C92.7455 213.549 92.9863 214.946 93.2352 216.415C93.5322 216.142 93.6446 215.877 93.765 215.628C94.0942 214.962 94.624 214.32 94.7123 213.621C94.8087 212.891 94.5116 212.104 94.335 211.349C93.3315 207.126 92.7053 202.855 92.5608 198.52C92.4725 195.847 92.4564 193.174 92.4966 190.5C92.5046 190.187 92.4966 189.85 92.609 189.561C92.9462 188.686 92.9702 187.779 93.0184 186.864C93.203 183.548 92.898 180.281 92.1594 177.045C91.6055 174.605 90.7866 172.253 90.0801 169.86C88.9963 166.191 87.6797 162.619 85.7691 159.287C83.9949 156.196 82.1002 153.186 80.0451 150.28C79.4831 149.485 78.8649 148.698 78.4635 147.823C78.0862 146.988 77.5002 146.884 76.7536 146.94C76.5689 146.948 76.3762 146.972 76.0953 147.004ZM116.725 185.571C116.677 185.539 116.621 185.499 116.573 185.467C115.979 185.964 115.545 186.615 115.104 187.249C111.595 192.258 107.854 197.091 104.041 201.876C101.191 205.449 98.5738 209.182 96.326 213.172C96.2136 213.372 96.1092 213.573 96.0209 213.79C95.9968 213.846 96.061 213.95 96.1092 214.006C96.1815 214.079 96.2698 214.031 96.326 213.966C96.5748 213.693 96.8237 213.412 97.0726 213.131C99.4007 210.595 101.745 208.066 103.84 205.328C104.21 204.846 104.595 204.389 104.98 203.923C105.149 203.723 105.325 203.53 105.59 203.466C105.887 203.385 106.168 203.409 106.353 203.698C106.546 203.995 106.457 204.293 106.2 204.453C105.847 204.678 105.606 204.999 105.366 205.312C102.291 209.334 98.8628 213.051 95.3465 216.68C95.1539 216.881 94.9371 217.073 94.8167 217.362C95.2101 217.37 95.5472 217.186 95.8764 217.033C97.8995 216.134 99.8102 215.018 101.584 213.693C106.337 210.121 110.544 205.986 114.108 201.21C115.714 199.058 117.087 196.778 117.954 194.225C118.604 192.315 119.061 190.364 118.877 188.325C118.797 187.393 118.62 186.478 118.042 185.587C117.921 185.804 117.849 185.916 117.785 186.037C116.605 188.429 115.393 190.805 114.108 193.15C113.169 194.86 112.254 196.586 111.218 198.239C110.945 198.681 110.656 199.106 110.255 199.444C109.982 199.668 109.685 199.741 109.412 199.452C109.139 199.171 109.203 198.874 109.476 198.625C109.99 198.151 110.319 197.541 110.672 196.947C112.47 193.904 114.108 190.781 115.706 187.634C116.043 186.944 116.38 186.253 116.725 185.571ZM61.0346 104.632C61.1229 104.472 61.0828 104.367 61.0507 104.255C60.6974 102.97 60.1355 101.782 59.4772 100.634C58.3291 98.6432 57.0768 96.7165 56.0492 94.6613C54.0662 90.6874 53.5685 86.5931 54.9253 82.3141C55.423 80.7487 55.6558 79.135 55.6397 77.4893C55.6317 76.5741 55.5514 75.6508 55.6959 74.7356C55.72 74.5831 55.6719 74.4547 55.6076 74.3262C55.3026 73.7723 54.9333 73.2585 54.4998 72.7929C54.275 72.544 54.1305 72.6323 53.9539 72.8491C53.6809 73.1782 53.5605 73.5074 53.6648 73.9489C53.8896 74.8962 54.0502 75.8596 54.2669 76.8069C54.3553 77.1842 54.275 77.4652 53.9137 77.5615C53.5364 77.6579 53.3196 77.409 53.2313 77.0718C53.143 76.7427 53.0788 76.3975 53.0146 76.0603C52.9343 75.6669 52.854 75.2735 52.7577 74.7918C52.3482 75.2655 52.1475 75.7151 51.8987 76.1245C51.7702 76.3332 51.7783 76.55 51.8344 76.7828C52.2198 78.4286 52.5811 80.0823 53.0547 81.712C53.1189 81.9288 53.1751 82.1536 53.2153 82.3784C53.2715 82.6594 53.2153 82.9163 52.9102 83.0046C52.573 83.1089 52.3563 82.9323 52.2359 82.6272C52.1716 82.4667 52.1475 82.2981 52.0994 82.1295C51.706 80.7888 51.3688 79.4321 51.0638 77.9629C50.7025 78.4446 50.3573 78.9022 50.4215 79.4C50.5178 80.1707 50.6623 80.9815 50.9995 81.6719C51.3528 82.3784 51.4812 83.133 51.7542 83.8475C51.8746 84.1606 51.8425 84.4898 51.4812 84.6503C51.1922 84.7788 50.9192 84.57 50.7667 84.1044C50.566 83.4782 50.4055 82.844 50.2128 82.2178C50.0763 81.7682 50.0121 81.2946 49.7793 80.8771C49.5224 80.9735 49.5224 81.1661 49.4581 81.3187C48.9122 82.6433 48.4867 84.0081 48.1817 85.413C47.7642 87.3638 47.5314 89.3387 47.9248 91.2975C48.6312 94.7737 50.0924 97.9368 52.2198 100.779C53.6006 102.617 55.2223 104.247 56.6914 106.021C58.9794 108.791 60.8901 111.769 61.7331 115.326C61.7571 115.438 61.733 115.623 61.9257 115.671C61.9498 115.623 61.998 115.582 61.998 115.542C62.0461 113.792 62.0702 112.034 61.9819 110.284C61.9338 109.313 61.8535 108.341 61.6768 107.386C61.6447 107.225 61.6929 106.984 61.4761 106.968C60.85 106.92 60.7215 106.398 60.5047 105.989C59.71 104.488 58.9313 102.994 58.008 101.565C57.8234 101.276 57.6307 100.987 57.4541 100.69C57.2614 100.369 57.3016 100.08 57.6468 99.8876C57.9599 99.7029 58.2007 99.8555 58.3853 100.104C58.586 100.385 58.7546 100.682 58.9473 100.971C59.71 102.135 60.3362 103.388 61.0346 104.632ZM20.6133 195.301C21.2957 194.9 21.9941 194.498 22.6685 194.081C23.9128 193.31 25.1492 192.523 26.2249 191.512C28.9224 188.999 30.6163 185.868 31.7964 182.432C32.9846 178.972 33.3217 175.383 33.3458 171.755C33.3538 170.695 33.2093 169.643 32.9203 168.608C32.7758 168.11 32.5912 168.062 32.1496 168.118C30.9535 168.279 29.8857 168.728 28.9384 169.459C25.7673 171.899 23.4633 174.998 21.9781 178.699C20.814 181.613 20.4929 184.688 20.2681 187.779C20.1557 189.376 20.0032 190.974 19.7784 192.564C19.6901 193.198 19.5215 193.832 19.5777 194.627C22.1306 191.464 24.2019 188.172 25.5666 184.463C24.7959 185.073 24.0734 185.716 23.3509 186.366C22.8371 186.831 22.524 186.896 22.2591 186.583C22.0263 186.302 22.0664 186.037 22.5962 185.579C23.9771 184.383 25.1492 182.938 26.6986 181.926C26.7628 181.878 26.827 181.806 26.8591 181.734C27.2365 180.786 27.6941 179.863 28.0072 178.787C26.5139 179.935 25.2294 181.164 23.8727 182.312C23.6319 182.512 23.383 182.721 23.102 182.858C22.8371 182.986 22.524 182.994 22.3393 182.689C22.1627 182.4 22.251 182.143 22.516 181.934C24.3785 180.489 26.0563 178.827 27.8787 177.342C28.6976 176.676 29.1712 175.873 29.4201 174.87C29.7011 173.73 30.0463 172.606 30.3995 171.49C30.536 171.056 30.833 170.904 31.1782 171.008C31.5074 171.113 31.6198 171.394 31.4913 171.843C30.544 175.303 29.404 178.691 28.0072 182.007C26.0242 186.695 23.9289 191.319 20.6133 195.301ZM73.3657 140.935C72.7957 140.269 72.3461 139.723 71.8805 139.185C71.6718 138.944 71.4711 138.703 71.3988 138.382C71.3025 137.981 71.6236 137.435 71.9849 137.363C72.3542 137.282 72.579 137.491 72.603 138.053C72.6111 138.326 72.7556 138.462 72.9001 138.639C73.2694 139.081 73.6868 139.49 73.9999 139.964C74.4415 140.63 74.9874 140.943 75.8143 140.742C75.461 140.036 74.9713 139.442 74.4896 138.84C74.2006 138.486 73.8956 138.141 73.6226 137.772C73.4139 137.491 73.3978 137.178 73.6868 136.929C73.9437 136.704 74.3772 136.76 74.594 137.074C75.437 138.302 76.4565 139.41 77.1469 140.742C77.2593 140.959 77.3235 141.24 77.7089 141.264C77.5483 140.477 77.163 139.811 76.7536 139.177C75.5815 137.363 74.313 135.628 72.7315 134.135C72.5629 133.975 72.3943 133.822 72.2498 133.638C71.9447 133.236 71.9688 132.891 72.2899 132.658C72.5629 132.465 72.9482 132.506 73.2051 132.843C73.9919 133.87 74.9874 134.713 75.734 135.773C76.3521 136.648 76.9864 137.515 77.6206 138.39C77.4841 137.668 77.0907 137.082 76.7696 136.455C76.4565 135.829 76.4645 135.5 76.8097 135.331C77.155 135.171 77.4118 135.339 77.7651 135.958C78.3993 137.066 78.9532 138.214 79.2984 139.474C79.3948 139.394 79.451 139.37 79.4751 139.321C80.6873 136.688 81.2734 133.943 80.7676 131.053C80.5107 129.567 79.9166 128.211 78.9773 127.006C78.6963 126.645 78.4876 126.629 78.1344 126.87C77.6607 127.191 77.2112 127.528 76.8499 127.994C75.9026 129.23 74.8268 130.378 73.4701 131.157C70.6362 132.787 67.8665 134.529 65.1048 136.263C65.0085 136.327 64.9041 136.375 64.7998 136.431C63.9649 136.881 63.0818 137.242 62.1345 137.355C61.6287 137.411 61.3477 137.652 61.155 138.045C60.7456 138.896 60.3683 139.771 60.1515 140.694C59.9348 141.617 60.1595 142.452 60.7938 143.175C61.5725 144.066 62.5359 144.644 63.6678 144.981C64.9764 145.375 66.1645 145.174 67.2403 144.339C67.6899 143.986 68.1475 143.632 68.573 143.255C69.8976 142.043 71.4149 141.224 73.3657 140.935ZM42.1526 160.861C42.2088 160.933 42.2489 161.013 42.3051 161.061C45.9418 164.265 48.6874 168.102 50.4857 172.606C50.7025 173.16 50.6623 173.481 50.2931 173.633C49.9479 173.778 49.691 173.657 49.426 173.152C49.1611 172.646 48.9122 172.124 48.6874 171.602C48.0131 170.013 47.2183 168.495 46.1666 167.115C46.0542 166.97 46.0141 166.737 45.7251 166.745C45.5083 167.243 45.3638 167.765 45.2835 168.295C45.0668 169.764 44.9062 171.249 44.5771 172.702C44.4406 173.296 44.569 173.778 44.8741 174.308C46.3754 176.877 47.1862 179.654 47.2986 182.633C47.3548 184.15 47.411 185.675 47.4672 187.193C47.4752 187.434 47.4752 187.674 47.5876 187.915C47.8606 187.674 47.9007 187.377 47.997 187.112C48.0773 186.872 48.1255 186.615 48.2138 186.374C48.3663 185.932 48.6312 185.764 48.9765 185.86C49.3056 185.964 49.4501 186.253 49.3457 186.703C49.2815 186.984 49.1852 187.249 49.0808 187.522C48.8881 188.036 48.6794 188.549 48.4787 189.063C48.7196 189.16 48.9203 189.087 49.1129 189.047C49.3618 188.991 49.6187 188.927 49.8515 188.822C51.7301 187.988 52.9664 186.526 53.8093 184.696C53.8575 184.6 53.9137 184.463 53.8816 184.367C53.697 183.813 53.994 183.363 54.1786 182.89C54.5881 181.878 54.8851 180.851 54.9092 179.735C54.9333 178.266 54.8369 176.812 54.572 175.375C54.1706 173.224 53.6247 171.113 52.5249 169.202C50.3332 165.38 47.122 162.699 43.0678 161.021C42.7868 160.917 42.5058 160.708 42.1526 160.861ZM58.859 136.239C58.8269 135.974 58.6904 135.982 58.5941 135.934C56.7476 135.147 54.9092 134.352 53.0547 133.589C52.0512 133.172 51.0397 132.754 49.9559 132.578C46.6323 132.048 43.3247 132.112 40.0332 132.795C37.8335 133.252 35.7703 134.111 33.7231 135.026C32.3423 135.645 30.9133 135.797 29.4281 135.532C28.0393 135.283 26.7468 135.54 25.5827 136.359C25.2776 136.576 24.9645 136.785 24.6675 137.009C22.8612 138.382 20.8301 138.88 18.5902 138.599C17.9881 138.519 17.378 138.486 16.7759 138.43C16.8722 138.567 16.9927 138.639 17.1291 138.679C19.3208 139.362 21.4964 140.076 23.6961 140.71C25.4221 141.208 27.1883 141.288 28.9786 141.007C31.2104 140.662 33.3057 139.915 35.3609 139.024C36.6213 138.47 37.8656 137.884 39.1421 137.371C43.71 135.564 48.5028 135.532 53.3116 135.677C54.2188 135.701 55.1259 136.006 56.0331 135.628C56.1295 135.588 56.29 135.596 56.3623 135.661C57.1089 136.215 57.992 136.062 58.859 136.239ZM32.3985 75.5947C30.9856 73.6438 29.7814 71.7251 28.2881 70.0152C27.2525 68.835 26.2169 67.6469 25.0769 66.5551C24.8602 66.3544 24.7879 66.1215 24.8923 65.8566C25.0207 65.5275 25.3097 65.5034 25.6148 65.5355C25.8958 65.5676 26.0885 65.7362 26.257 65.9369C28.1998 68.1607 30.2711 70.2801 31.8847 72.7768C31.981 72.9213 32.0533 73.0979 32.3022 73.1541C31.9971 71.3719 31.4351 69.7342 30.7929 68.1045C29.396 64.5561 27.2846 61.5375 24.2581 59.1933C21.7934 57.2746 19.0238 55.9098 16.0935 54.8662C15.4673 54.6414 14.8251 54.529 14.1507 54.5531C13.8617 54.5611 13.5245 54.5451 13.372 54.8261C13.1954 55.1472 13.3399 55.4523 13.5727 55.7413C13.934 55.0749 14.1507 54.9304 14.5441 55.1954C15.3068 55.7091 16.0534 56.247 16.6715 56.9294C16.9846 57.2746 16.9766 57.6359 16.7036 57.8366C16.3745 58.0774 16.1256 57.9008 15.8768 57.668C15.2345 57.0659 14.52 56.5601 13.6289 55.9339C13.8617 56.3113 13.9741 56.528 14.1186 56.7287C17.0167 60.6865 19.7945 64.7327 22.4919 68.835C24.5069 71.8937 27.2605 73.989 30.7046 75.2013C31.2184 75.3538 31.7081 75.6027 32.3985 75.5947ZM3.18439 67.8797C3.4172 68.0964 3.69819 68.1286 3.97114 68.2008C6.4197 68.8029 8.90037 69.3007 11.2526 70.2399C11.9189 70.5049 12.5772 70.7778 13.2275 71.0749C13.5406 71.2194 13.7573 71.4763 13.5807 71.8375C13.4121 72.1908 13.1071 72.2148 12.7699 72.0784C12.5612 71.9901 12.3524 71.8937 12.1437 71.8054C9.22952 70.545 6.13872 69.9028 3.072 69.1883C2.99975 69.1722 2.90341 69.1562 2.89538 69.3087C2.97566 69.3649 3.06397 69.4291 3.16031 69.4853C5.57675 70.8661 7.92898 72.3513 10.2732 73.8526C11.5095 74.6393 12.81 75.2976 14.2069 75.7713C18.3895 77.1922 22.6524 77.0237 26.9394 76.4055C26.9073 76.2289 26.8029 76.1807 26.6906 76.1486C24.2099 75.5545 21.7934 74.7276 19.2967 74.1657C18.2049 73.9248 17.1291 73.6198 16.0373 73.3789C15.66 73.2986 15.4754 73.114 15.4994 72.7367C15.5235 72.3915 15.8206 72.1988 16.2621 72.2309C16.4066 72.2389 16.5431 72.2871 16.6876 72.3192C19.4733 72.9775 22.2671 73.6358 25.0047 74.4707C25.5185 74.6233 26.0403 74.7437 26.5621 74.8802C25.0528 73.7803 23.4312 72.9293 21.8095 72.0784C19.674 70.9625 17.4984 69.9429 15.2185 69.1481C12.7378 68.2811 10.1608 67.9038 7.55968 67.679C6.11463 67.5666 4.6455 67.5104 3.18439 67.8797ZM79.3546 124.518C80.326 124.06 81.0084 123.321 81.6667 122.567C84.0591 119.805 85.5924 116.594 86.596 113.11C87.0134 111.665 87.0295 110.188 86.885 108.686C86.7645 107.466 86.6682 106.238 86.7405 105.001C86.8288 103.484 87.3506 102.095 87.9527 100.731C88.5227 99.4139 89.1087 98.1134 89.6868 96.7968C89.9035 96.299 90.032 95.8013 89.9677 95.2233C89.8393 94.1154 89.8313 92.9915 89.7108 91.8836C89.6386 91.2253 89.6466 90.5509 89.4539 89.8766C89.1971 90.0211 89.1649 90.2378 89.0927 90.4064C88.4745 91.8595 87.8724 93.3126 87.2623 94.7657C86.1143 97.5113 85.1027 100.305 84.3642 103.203C83.6336 106.093 83.5694 109.04 83.4088 111.978C83.3285 113.495 83.2563 115.012 82.9352 116.498C82.3973 118.962 81.3135 121.202 80.0451 123.362C79.8283 123.755 79.5875 124.14 79.3546 124.518ZM9.94402 166.151C10.6425 166.199 11.1723 166.055 11.7182 166.007C14.0624 165.79 16.3584 165.348 18.6304 164.706C22.3554 163.662 25.7031 161.663 29.396 160.604C29.396 160.515 29.4121 160.475 29.396 160.467C27.5014 158.797 25.5265 157.232 23.2867 156.036C23.0057 155.883 22.7729 155.899 22.4999 156.06C21.6891 156.542 20.8782 157.039 20.1075 157.593C18.1487 158.998 16.3263 160.572 14.52 162.161C13.0348 163.462 11.5496 164.754 9.94402 166.151ZM56.0893 72.7688C56.001 71.7733 55.9127 70.9625 55.8645 70.1516C55.7682 68.6183 55.5434 67.109 55.8003 65.5435C56.1134 63.6569 56.1214 61.7222 56.2579 59.8035C56.3542 58.4307 56.3783 57.0498 56.5148 55.677C56.8279 52.4578 57.3899 49.2706 57.9358 46.0835C58.3853 43.4503 59.3648 40.9536 60.015 38.3766C60.0712 38.1518 60.3201 37.8307 59.9669 37.7263C59.6779 37.638 59.7019 38.0394 59.6297 38.224C58.4817 41.4031 57.3738 44.5983 56.7155 47.93C56.3061 49.9771 55.6879 51.9841 55.4631 54.0714C55.1259 57.1462 54.7486 60.2209 54.7647 63.3198C54.7647 63.5445 54.7486 63.7854 54.6764 64.0021C54.4998 64.4758 53.986 64.5641 53.6488 64.1868C53.5203 64.0423 53.4401 63.8496 53.3357 63.673C52.7577 62.7176 52.1556 61.7703 51.6097 60.7909C50.9915 59.6911 50.1004 58.7839 49.4581 57.6921C48.5751 56.1828 47.5715 54.7458 46.5279 53.3328C44.5369 50.6354 42.1044 48.3635 39.7683 45.9872C38.0182 44.2049 36.0513 42.6475 34.2209 40.9536C33.5867 40.3675 33.5947 40.3675 32.8722 40.9215C33.6107 41.5717 34.3172 42.2381 35.0719 42.8482C37.9459 45.1683 40.4507 47.8416 42.7146 50.7558C46.0061 54.9946 49.2173 59.2897 52.0432 63.8657C53.3036 65.9048 54.3793 68.0081 55.0698 70.3042C55.126 70.4888 55.2945 70.6895 55.2062 70.8822C54.7888 71.7813 55.5354 72.1185 56.0893 72.7688ZM50.3252 117.156C50.2931 117.196 50.2529 117.236 50.2208 117.276C50.4938 117.581 50.7747 117.878 51.0316 118.208C51.3046 118.561 51.6177 118.681 52.0753 118.585C52.5489 118.481 53.0467 118.473 53.5364 118.521C53.9137 118.553 54.2669 118.657 54.572 118.898C54.8129 119.099 54.9574 119.332 54.7807 119.645C54.6122 119.942 54.3472 120.022 54.0502 119.869C53.7451 119.717 53.4481 119.661 52.9343 119.725C54.1305 120.472 55.2303 121.001 56.4747 121.146C56.9082 121.194 57.3738 121.274 57.7752 120.897C58.0161 120.672 58.3934 120.696 58.6744 120.841C59.0436 121.033 59.2604 120.905 59.4611 120.608C60.4887 119.083 60.9624 116.907 59.6297 115.053C58.3051 113.214 56.579 111.865 54.4917 110.998C54.2108 110.886 53.9298 110.701 53.6087 110.798C53.5284 110.934 53.6247 111.022 53.6729 111.111C54.1947 112.106 54.7888 113.054 55.3909 114.001C55.4952 114.169 55.6157 114.33 55.712 114.515C55.8405 114.772 55.8244 115.028 55.5755 115.205C55.3347 115.374 55.0778 115.342 54.8771 115.125C54.7085 114.932 54.556 114.723 54.4195 114.507C53.7371 113.439 53.0788 112.371 52.4847 111.247C52.0191 110.356 51.7301 110.212 50.7185 110.356C50.3974 110.404 50.0362 110.364 49.715 110.589C49.8836 111.047 50.1807 111.392 50.4376 111.761C51.1119 112.716 51.8425 113.632 52.6292 114.499C52.8139 114.707 53.0387 114.972 52.7657 115.253C52.5088 115.526 52.2439 115.39 52.0111 115.189C51.8987 115.093 51.8023 114.996 51.6899 114.9C50.7185 113.993 49.9398 112.925 49.1691 111.849C49.0246 111.649 48.9524 111.392 48.7035 111.303C48.6473 111.32 48.5991 111.32 48.5911 111.336C48.551 111.408 48.5189 111.488 48.4867 111.568C48.1736 112.395 48.3744 113.206 48.5349 114.017C48.6473 114.587 48.9283 114.988 49.4341 115.293C50.3733 115.847 51.2966 116.425 52.3001 116.867C52.6373 117.011 52.8058 117.26 52.6694 117.622C52.5409 117.951 52.2358 117.967 51.9388 117.895C51.7461 117.846 51.5615 117.758 51.3768 117.678C51.0236 117.501 50.6704 117.325 50.3252 117.156ZM35.4251 168.6C36.549 165.934 37.3277 163.285 38.4597 160.772C38.4918 160.692 38.4918 160.604 38.5079 160.524C38.6604 159.729 38.9574 158.99 39.2063 158.227C39.4632 157.441 40.3543 157.063 40.4587 156.196C40.4667 156.156 40.5309 156.1 40.5791 156.084C40.9564 155.956 41.0367 155.594 41.2053 155.305C41.5987 154.639 41.968 153.957 42.3694 153.298C45.0186 149.027 48.2058 145.198 51.9308 141.818C53.6568 140.253 55.5033 138.84 57.5504 137.708C57.703 137.619 57.9358 137.611 57.9679 137.346C57.711 137.298 57.4541 137.234 57.2052 137.202C55.5675 137.009 55.5755 137.025 54.2027 137.949C51.8344 139.538 49.699 141.409 47.6599 143.392C43.7261 147.213 40.5791 151.596 38.267 156.566C36.7096 159.897 35.8024 163.47 34.4296 166.874C34.3574 167.05 34.3734 167.195 34.4938 167.347C34.7909 167.733 35.0719 168.118 35.4251 168.6ZM65.2413 146.378C66.9192 147.004 68.2117 147.173 69.5122 146.964C70.2749 146.844 71.0376 146.699 71.8002 146.563C74.1364 146.145 76.4485 145.439 78.8569 145.937C79.1459 145.993 79.2904 145.88 79.3466 145.615C79.6597 144.299 80.4143 143.215 81.1369 142.107C81.8514 141.015 82.4294 139.875 82.6943 138.591C83.184 136.142 83.1921 133.686 82.8067 131.229C82.598 129.921 82.0922 128.732 80.9362 127.793C80.9843 127.978 81.0004 128.058 81.0325 128.13C81.8674 130.025 82.1966 131.984 82.044 134.071C81.8353 137.025 80.7114 139.618 79.3306 142.155C79.0255 142.717 78.6321 142.838 78.014 142.677C77.8213 142.629 77.6286 142.557 77.444 142.476C75.5333 141.65 73.6306 141.874 71.736 142.549C70.5719 142.958 69.6728 143.785 68.7576 144.564C67.7862 145.423 66.7185 146.121 65.2413 146.378ZM57.4541 151.468C58.4656 152.68 59.4852 153.884 60.4887 155.097C60.9543 155.65 60.9945 155.964 60.6733 156.204C60.3924 156.413 60.1435 156.325 59.6859 155.795C58.6904 154.647 57.703 153.491 56.7075 152.343C56.5228 152.126 56.3061 151.933 56.1134 151.725C56.8279 153.547 57.4461 155.361 58.0241 157.184C58.3934 158.356 58.7948 159.52 59.3086 160.644C59.3969 160.829 59.4129 161.061 59.726 161.118C61.8374 161.503 63.8765 162.169 65.9317 162.787C66.1083 162.844 66.2689 162.996 66.4696 162.852C66.4535 162.683 66.3171 162.603 66.2207 162.514C65.0807 161.423 63.9408 160.331 62.8008 159.239C62.592 159.038 62.3753 158.846 62.2067 158.621C62.0301 158.396 62.0461 158.131 62.2388 157.906C62.4395 157.682 62.6964 157.666 62.9453 157.818C63.1139 157.922 63.2584 158.067 63.4029 158.203C64.5348 159.303 65.6588 160.411 66.7988 161.503C66.9513 161.647 67.0476 161.896 67.3607 161.864C67.3366 160.331 67.1118 158.838 66.8309 157.344C66.7827 157.096 66.6302 156.959 66.4455 156.807C63.732 154.567 60.6733 152.905 57.4541 151.468ZM12.4327 34.2903C12.6174 33.7363 12.7619 33.2145 12.9545 32.7087C13.2436 31.9461 13.1392 31.2557 12.7137 30.5813C12.224 29.8026 11.7423 29.0239 11.2686 28.2371C10.1929 26.4388 9.14121 24.6245 8.67558 22.5533C8.3946 21.3169 7.87278 20.1689 7.47138 18.9727C6.99772 17.5437 6.04238 16.8453 4.61339 16.6847C4.1879 16.6366 3.76241 16.5804 3.33692 16.5723C3.17636 16.5723 2.91946 16.5081 2.84721 16.7891C2.91946 16.9738 3.11214 17.0139 3.24862 17.0942C3.96311 17.5277 4.59733 18.0656 5.23957 18.5954C5.52056 18.8282 5.64098 19.1012 5.39211 19.4143C5.15127 19.7193 4.83817 19.6792 4.54113 19.4946C4.32438 19.3581 4.13973 19.1734 3.931 19.0209C3.68213 18.8363 3.48143 18.5392 3.03186 18.467C3.13622 18.748 3.20045 18.9326 3.26467 19.1092C4.17987 21.4935 5.22352 23.8217 6.4197 26.0776C7.45532 28.0284 8.54714 29.9471 9.86374 31.7293C10.5863 32.6847 11.365 33.5999 12.4327 34.2903ZM9.79149 167.412C10.4016 167.925 11.0037 168.19 11.6139 168.415C13.1552 168.977 14.7448 169.33 16.3584 169.579C18.5662 169.916 20.7578 169.94 22.9254 169.362C23.383 169.242 23.9209 169.25 23.8968 168.536C23.8888 168.383 24.1216 168.214 24.25 168.07C24.5872 167.685 24.9565 167.315 25.2776 166.914C26.5059 165.405 27.6539 163.839 28.7859 162.025C28.3684 162.169 28.1035 162.25 27.8466 162.354C26.3614 162.964 24.8762 163.566 23.4071 164.2C19.8506 165.726 16.1577 166.705 12.3043 167.074C11.5255 167.147 10.7147 167.147 9.79149 167.412ZM21.665 196C21.9701 196.016 22.0905 196.032 22.1948 196.024C22.3634 196 22.532 195.959 22.7006 195.919C25.8316 195.165 28.3604 193.439 30.4316 191.03C33.0969 187.923 34.7427 184.287 35.7703 180.353C36.3804 178.009 36.7176 175.64 36.2761 173.216C35.9951 171.658 35.2244 170.358 34.2129 169.081C34.1245 169.676 34.3252 170.141 34.3574 170.623C34.5019 172.927 34.3654 175.207 34.0683 177.495C33.683 180.449 32.9123 183.275 31.6037 185.956C30.263 188.694 28.5852 191.175 26.1768 193.093C24.828 194.169 23.3589 195.06 21.665 196ZM72.4826 68.0242C72.6432 67.0608 72.7636 66.1858 72.9402 65.3268C73.5664 62.236 74.3853 59.1933 75.2122 56.1507C76.4726 51.5185 78.022 47.0067 80.2377 42.7358C80.3983 42.4307 80.1173 41.5717 79.7962 41.3791C79.4349 41.1623 79.0656 40.9536 78.6642 40.7288C77.9176 42.3585 77.2352 43.9721 76.4645 45.5376C73.3336 51.9279 71.744 58.7277 71.1339 65.7763C71.1098 66.0252 71.0456 66.2741 71.2463 66.5069C71.6477 66.9725 72.0331 67.4622 72.4826 68.0242ZM33.6429 72.3995C33.7793 70.3042 34.1326 68.2971 33.98 66.2661C33.956 65.9449 34.0603 65.688 34.3975 65.6158C34.7186 65.5435 34.9434 65.7041 35.112 65.977C35.2565 66.2179 35.2244 66.4748 35.2244 66.7317C35.1762 68.7949 34.9996 70.8501 34.7668 72.8972C34.7427 73.0899 34.7668 73.2906 34.7668 73.4833C35.4251 72.5279 35.963 71.5806 36.4447 70.6092C37.7532 67.968 38.251 65.1903 37.8335 62.26C37.5365 60.2209 36.6855 58.4869 35.128 57.1141C34.7909 56.817 34.4457 56.536 33.8917 56.4156C34.1567 57.379 34.3734 58.2621 34.6383 59.1291C34.9273 60.0925 35.1762 61.0558 35.3288 62.0513C35.3849 62.4206 35.3207 62.6936 34.9595 62.7979C34.5821 62.9103 34.3574 62.6614 34.253 62.3323C34.1567 62.0353 34.1165 61.7141 34.0603 61.4091C33.8275 60.2771 33.4261 59.2014 33.0648 57.949C32.9685 58.3504 32.9926 58.5752 33.0167 58.808C33.2495 61.0398 33.2977 63.2876 33.121 65.5194C32.9765 67.2776 33.0086 69.0197 33.2254 70.7537C33.2816 71.2916 33.2816 71.8536 33.6429 72.3995ZM74.1765 10.2703C74.7786 7.59697 75.0355 5.06814 74.0561 2.5393C73.7671 2.63563 73.6708 2.78014 73.5584 2.91662C72.8599 3.75956 72.2016 4.62659 71.4631 5.42137C70.9733 5.95122 70.8288 6.52924 70.8048 7.21163C70.7084 9.71638 70.2669 12.1649 69.448 14.5252C68.9262 16.0425 68.2759 17.5116 67.6899 19.0048C67.1761 20.2974 66.7185 21.614 66.3492 22.9627C66.574 22.6978 66.7747 22.4248 66.9433 22.1278C68.2839 19.7595 69.5443 17.343 70.6763 14.8704C71.2624 13.5939 71.8404 12.3175 72.5388 11.0972C72.8921 10.479 73.3095 9.99736 74.1765 10.2703ZM32.0051 114.354C31.7242 114.041 31.4913 113.752 31.2344 113.479C29.1632 111.263 26.9475 109.248 24.1617 107.94C23.0458 107.418 21.9139 106.944 20.7257 106.591C19.2004 106.141 17.6911 105.628 16.1176 105.13C16.3665 105.644 16.6715 106.021 16.9846 106.398C17.5065 107.016 18.1246 107.538 18.7347 108.06C20.3644 109.449 22.251 110.42 24.2099 111.263C26.5782 112.283 29.0428 113.078 31.2344 114.475C31.4833 114.635 31.7161 114.587 32.0051 114.354ZM85.183 80.6764C86.4033 80.4115 86.5237 80.3714 87.2141 79.6328C88.9 77.8265 90.626 76.0603 92.4805 74.4306C95.1539 72.0864 97.7068 69.5977 100.629 67.5425C100.798 67.4221 100.926 67.3097 100.934 67.0689C100.95 66.4346 100.468 66.0091 100.268 65.4713C100.212 65.3187 99.8423 65.1903 99.5773 65.399C99.4649 65.4873 99.3606 65.5837 99.2402 65.672C95.0896 68.7949 91.5252 72.536 88.1534 76.4617C87.0455 77.7542 86.0179 79.135 85.183 80.6764ZM39.8486 160.596C39.696 160.949 39.5595 161.166 39.5355 161.431C39.4311 162.836 39.4632 164.224 39.8325 165.605C40.4828 168.054 42.0964 169.932 43.4531 172.044C43.7502 171.41 43.7502 170.799 43.8465 170.213C44.0954 168.752 44.1676 167.251 44.8581 165.894C45.0106 165.597 44.8581 165.405 44.6814 165.204C44.28 164.754 43.8947 164.289 43.4772 163.855C42.3694 162.707 41.1973 161.615 39.8486 160.596ZM34.839 159.568C34.0924 157.441 32.6554 155.98 30.7206 155.016C28.5611 153.949 26.3935 154.27 24.242 155.209C24.3704 155.45 24.5952 155.538 24.7879 155.642C26.0965 156.373 27.2927 157.256 28.4567 158.195C29.1953 158.789 29.9499 159.351 30.6966 159.937C30.8571 160.058 30.9775 160.218 31.2184 160.17C32.3985 159.929 33.6027 159.897 34.839 159.568ZM60.2238 162.346C60.3763 162.603 60.4566 162.755 60.5449 162.892C61.9257 164.859 63.6919 166.368 65.8354 167.444C66.582 167.813 67.3527 168.166 68.1876 168.238C69.5765 168.367 70.9653 168.142 72.5388 168.182C71.3747 167.355 70.4515 166.569 69.5845 165.702C69.0787 165.196 68.6532 164.674 67.7942 164.61C67.0235 164.554 66.2689 164.144 65.5143 163.887C63.8123 163.293 62.0542 162.908 60.2238 162.346ZM110.544 50.8843C108.617 51.1813 106.811 51.4703 105.004 51.7192C104.683 51.7674 104.571 51.936 104.45 52.1688C103.84 53.4051 103.206 54.6254 102.708 55.9099C102.644 56.0704 102.443 56.239 102.644 56.4638C103.334 56.2872 104.017 56.0945 104.707 55.9259C105.911 55.6289 107.14 55.5325 108.36 55.3479C108.81 55.2837 109.267 55.2355 109.468 54.7056C109.925 53.5095 110.287 52.2812 110.544 50.8843ZM117.657 55.3639C117.335 55.4362 117.223 55.4523 117.111 55.4844C115.569 55.958 114.14 56.6805 112.727 57.4432C110.809 58.4869 108.938 59.6108 107.196 60.9113C105.839 61.9148 104.579 63.0468 103.118 63.9138C102.331 64.3795 102.347 64.4035 102.524 65.2706C102.54 65.3508 102.58 65.3669 102.692 65.3107C102.989 64.7889 103.471 64.3955 104.001 64.0423C104.571 63.6569 105.173 63.3198 105.791 63.0147C107.541 62.1396 109.436 61.6499 111.306 61.112C112.093 60.8873 112.8 60.6063 113.329 59.9319C113.642 59.5305 114.076 59.2174 114.445 58.8561C115.513 57.7884 116.533 56.6725 117.657 55.3639ZM53.6006 59.7232C53.6408 59.7312 53.6809 59.7392 53.721 59.7473C53.9539 57.5957 54.1546 55.4362 54.4275 53.2927C54.6924 51.1572 55.3588 49.094 55.7843 46.798C55.1902 47.368 54.6122 47.7854 53.994 47.7052C53.1832 47.6008 52.8861 48.0825 52.5249 48.5883C52.2599 48.9575 52.0271 49.367 51.7301 49.7042C51.3929 50.0975 51.3768 50.4989 51.4973 50.9646C52.2037 53.8948 52.8941 56.809 53.6006 59.7232ZM108.617 56.5682C106.409 56.7207 104.314 57.09 102.307 57.8848C101.994 58.0052 101.905 58.2701 101.857 58.5591C101.737 59.2656 101.576 59.9721 101.528 60.6785C101.48 61.4171 101.4 62.1637 101.673 62.8862C101.938 62.8782 102.106 62.7096 102.299 62.5892C103.198 62.0272 104.073 61.4171 104.996 60.8953C106.048 60.3012 106.851 59.4663 107.525 58.4949C107.943 57.9088 108.376 57.3469 108.617 56.5682ZM105.341 50.4347C106.209 50.4508 106.899 50.2581 107.605 50.1537C108.625 49.9932 109.636 49.6239 110.72 50.0173C111.041 47.7854 111.282 45.6098 111.146 43.3459C109.893 44.3735 108.705 45.3449 107.389 46.1477C107.244 46.236 107.084 46.3003 107.019 46.4849C106.546 47.7935 105.96 49.0699 105.341 50.4347ZM21.9139 70.8019C21.9219 70.5129 21.7613 70.4166 21.6409 70.3122C19.3208 68.2891 16.7277 66.7477 13.8055 65.7683C12.2722 65.2545 10.7067 64.9414 9.07699 65.0137C7.40715 65.0859 5.87379 65.5676 4.24409 66.4748C7.50349 66.3784 10.514 66.7397 13.4844 67.4381C16.4467 68.1366 19.1683 69.4612 21.9139 70.8019ZM40.6754 159.054C46.2469 160.419 50.4135 163.606 53.4561 168.359C53.5525 168.078 53.3758 167.885 53.2956 167.685C51.6659 163.863 48.9684 160.973 45.4842 158.789C44.4165 158.123 43.2524 157.633 42.0322 157.288C41.7111 157.192 41.4782 157.192 41.3418 157.545C41.1571 158.019 40.8199 158.428 40.6754 159.054ZM34.4617 160.933C33.1933 161.021 32.0934 161.182 31.0016 161.423C30.6404 161.503 30.4076 161.68 30.2149 161.993C29.3639 163.39 28.4407 164.738 27.4613 166.055C26.8752 166.842 26.257 167.62 25.5987 168.375C25.8155 168.455 25.9359 168.367 26.0644 168.311C27.5817 167.677 28.9786 166.834 30.3594 165.959C32.246 164.754 33.3538 162.94 34.4617 160.933ZM113.747 65.3749C113.53 65.1742 113.337 65.1341 113.145 65.0699C111.635 64.54 110.078 64.1145 108.625 63.4321C108.216 63.2395 107.862 63.2636 107.485 63.4241C106.618 63.8014 105.711 64.1065 104.924 64.6042C104.458 64.8933 103.832 65.0779 103.559 65.7201C104.25 65.8968 104.868 66.2741 105.59 66.3062C108.336 66.4266 111.033 66.0894 113.747 65.3749ZM108.761 87.4842C108.577 83.8796 108.898 80.2911 108.047 76.7828C107.34 78.4286 106.61 80.0342 105.807 81.6077C105.671 81.8726 105.783 82.1054 105.879 82.3463C106.433 83.7672 107.22 85.0678 108.015 86.3603C108.248 86.7456 108.513 87.1149 108.761 87.4842ZM69.6246 74.4145C70.9171 73.3548 72.1214 72.3674 73.3175 71.388C72.1856 69.4773 70.9653 67.7352 69.2232 66.1376C69.4962 69.0116 69.2473 71.677 69.6246 74.4145ZM102.267 46.3404C102.162 46.4367 102.082 46.4849 102.042 46.5491C101.239 47.946 100.573 49.3911 100.043 50.9084C99.9466 51.1813 99.9547 51.382 100.107 51.6229C100.79 52.6826 101.303 53.8306 101.737 55.0187C101.801 54.9866 101.873 54.9706 101.897 54.9224C102.435 53.8226 102.965 52.7066 103.511 51.6068C103.623 51.374 103.583 51.1572 103.535 50.9405C103.198 49.4071 102.893 47.8657 102.267 46.3404ZM112.848 80.6042C113.153 79.8174 113.257 79.1109 113.37 78.4125C113.61 76.9193 113.594 76.9113 112.503 75.8355C112.382 75.7151 112.262 75.5947 112.133 75.4742C110.776 74.2058 109.235 73.1943 107.621 72.271C108.143 73.2665 108.617 74.27 108.946 75.3297C108.986 75.4582 109.083 75.5786 109.179 75.691C110.463 77.2244 111.644 78.838 112.848 80.6042ZM113.329 74.9926C113.072 73.5796 112.551 72.5199 111.716 71.6047C109.95 69.6539 107.637 68.5781 105.277 67.5746C105.02 67.4622 104.747 67.4783 104.41 67.5345C104.796 68.0965 105.157 68.5701 105.47 69.0839C105.775 69.5897 106.192 69.9349 106.69 70.248C108.954 71.6449 111.258 73.0016 113.329 74.9926ZM114.951 61.1923C116.059 61.4572 117.03 61.6901 118.002 61.9148C118.997 62.1477 120.049 62.1798 120.988 62.6293C121.141 62.7016 121.261 62.6534 121.382 62.5812C122.618 61.8265 123.79 60.9836 124.89 60.0042C124.657 59.8275 124.456 59.9159 124.264 59.8998C123.059 59.8356 121.847 59.8516 120.667 59.683C120.089 59.6028 119.623 59.675 119.102 59.8597C118.323 60.1326 117.52 60.3494 116.725 60.6063C116.203 60.7909 115.625 60.8632 114.951 61.1923ZM99.489 52.9314C99.1518 55.2114 98.7906 57.3228 98.8709 59.4823C98.919 60.8311 99.0475 62.1637 99.6416 63.4081C99.7941 63.7292 100.011 63.9379 100.38 63.8175C100.733 63.6971 100.709 63.4081 100.637 63.103C100.276 61.4733 100.412 59.8356 100.854 58.2621C101.151 57.2265 101.022 56.3113 100.645 55.372C100.557 55.1632 100.517 54.9304 100.42 54.7297C100.163 54.1517 99.9868 53.5496 99.489 52.9314ZM105.727 71.5405C105.269 72.8009 104.844 73.9569 104.266 75.0487C104.145 75.2816 104.057 75.5224 104.113 75.7873C104.394 77.2565 104.699 78.7176 105.181 80.1546C105.43 79.986 105.478 79.7532 105.582 79.5525C106.345 78.0753 106.803 76.4697 107.477 74.9524C107.557 74.7678 107.485 74.6233 107.413 74.4707C106.979 73.4672 106.433 72.5279 105.727 71.5405ZM72.9563 167.123C72.1695 163.687 70.6281 160.869 68.2839 158.412C68.1314 158.685 68.2037 158.886 68.2358 159.07C68.4204 160.17 68.4525 161.286 68.5007 162.402C68.5248 162.924 68.6693 163.301 69.0787 163.654C69.6889 164.176 70.2187 164.786 70.7967 165.34C71.4309 165.942 72.0732 166.545 72.9563 167.123ZM31.7241 67.3418C31.8044 67.3258 31.8767 67.3017 31.957 67.2856C31.957 66.5791 32.0774 65.8486 31.9329 65.1662C31.6358 63.7452 31.0097 62.4688 29.8777 61.4733C28.3363 60.1326 26.7548 58.8481 25.109 57.6439C23.945 56.7929 22.7006 56.0784 21.376 55.5165C21.1351 55.4121 20.9023 55.2997 20.6535 55.2515C20.4126 55.2034 20.1798 55.0027 19.8025 55.1632C25.374 57.7322 29.4522 61.6499 31.7241 67.3418ZM71.5273 169.33C72.017 170.422 76.4565 177.487 76.9783 177.985C76.7375 176.106 76.2558 174.316 75.5493 172.59C75.1158 171.522 74.5779 170.51 73.8474 169.619C73.7109 169.451 73.5905 169.226 73.3175 169.234C72.7154 169.266 72.1294 169.298 71.5273 169.33ZM111.13 42.5993C111.154 39.8698 110.447 36.6425 109.564 35.647C109.091 37.1322 109.275 38.6495 108.914 40.0785C108.553 41.4995 108.167 42.9204 107.774 44.3735C108.545 43.8838 109.315 43.4182 109.934 42.7759C110.295 42.4066 110.64 42.3183 111.13 42.5993ZM119.479 63.4803C119.463 63.4402 119.463 63.4 119.447 63.4C117.295 62.9424 115.12 62.5571 113.032 61.8426C112.952 61.8185 112.856 61.7944 112.783 61.8185C111.836 62.1155 110.857 62.3162 109.861 62.7177C110.648 63.095 111.395 63.2957 112.125 63.5365C113.048 63.8416 114.068 63.9861 114.871 64.4919C115.545 64.9173 116.043 64.813 116.653 64.6042C117.351 64.3554 118.066 64.1306 118.764 63.8737C119.013 63.7693 119.318 63.7292 119.479 63.4803ZM122.096 54.521C121.205 54.6575 120.426 54.7779 119.647 54.8983C119.423 54.9304 119.334 55.1231 119.206 55.2676C118.451 56.1346 117.705 57.0017 116.934 57.8526C116.34 58.5109 115.722 59.1532 115.007 59.9239C116.476 59.5305 117.769 59.1773 119.021 58.6876C119.286 58.5832 119.559 58.519 119.688 58.2139C119.888 57.7322 120.274 57.371 120.587 56.9615C121.149 56.239 121.614 55.4603 122.096 54.521ZM109.636 78.2841C109.877 81.2143 109.821 84.1526 110.062 87.0828C110.873 85.9428 111.387 84.6744 111.965 83.4381C112.366 82.5871 112.214 81.8565 111.756 81.118C111.138 80.1305 110.439 79.1912 109.636 78.2841ZM13.091 161.848C13.3078 161.663 13.5326 161.487 13.7413 161.294C15.4754 159.745 17.2335 158.236 19.1201 156.871C21.3278 155.273 23.6559 153.908 26.4658 153.298C26.0724 153.154 25.7673 153.186 25.4542 153.202C23.2385 153.322 21.2796 154.109 19.4974 155.41C17.0167 157.208 15.0579 159.528 13.091 161.848ZM130.598 53.3489C128.133 55.5486 125.251 57.09 122.337 58.6314C123.003 58.7036 123.645 58.7036 124.296 58.7036C126.415 58.7036 126.415 58.7036 127.852 57.2024C127.908 57.1381 127.973 57.0819 128.029 57.0177C129.024 55.9018 129.988 54.7699 130.598 53.3489ZM104.466 49.5998C105.02 48.4919 105.43 47.4804 105.807 46.4688C105.871 46.2922 105.96 46.1236 105.855 45.8989C105.671 45.5055 105.671 45.0639 105.582 44.6465C105.422 43.9079 105.317 43.1452 104.924 42.3264C104.474 42.9365 104.121 43.4824 103.696 43.9641C103.118 44.6224 102.853 45.2887 103.391 46.0996C103.487 46.236 103.511 46.4207 103.575 46.5812C103.953 47.5125 104.145 48.4999 104.466 49.5998ZM91.0355 38.9385C88.33 40.1267 85.8574 41.4513 82.9914 42.0374C86.8047 43.8437 90.1283 41.4513 91.0355 38.9385ZM121.614 57.5235C123.975 56.6725 128.189 54.0313 128.952 52.9475C127.194 53.4131 125.492 53.9109 123.75 54.2159C123.517 54.2561 123.421 54.4166 123.324 54.5933C122.835 55.5646 122.281 56.4959 121.614 57.5235ZM74.6903 27.5708C74.5539 27.8919 74.4495 28.1167 74.4415 28.3816C74.3853 30.3324 74.2408 32.2833 74.586 34.2261C74.9472 36.217 75.7099 37.9912 77.4038 39.4202C75.2282 35.7032 74.9874 31.6812 74.6903 27.5708ZM76.0712 78.7095C75.9106 78.7095 75.8143 78.8139 75.7019 78.8942C74.3532 79.8656 73.1249 80.9735 71.9769 82.1777C71.6156 82.555 71.4791 82.9082 71.6959 83.3819C71.7601 83.5264 71.8163 83.6789 71.8966 83.9037C73.1329 82.6272 74.3371 81.407 75.6617 80.3232C76.2317 79.8656 76.3762 79.3679 76.0712 78.7095ZM103.8 73.3227C104.242 72.4075 104.547 71.5003 104.78 70.5611C104.836 70.3443 104.884 70.1356 104.723 69.9108C104.161 69.1562 103.615 68.3855 103.062 67.6228C102.949 67.4703 102.805 67.39 102.628 67.5184C102.492 67.6148 102.323 67.7031 102.379 67.9198C102.427 68.0884 102.483 68.249 102.54 68.4095C102.877 69.413 103.15 70.4326 103.375 71.4602C103.495 72.0623 103.519 72.6965 103.8 73.3227ZM73.7992 72.4958C72.7476 73.3067 71.6397 74.1095 70.6602 75.0568C70.3793 75.3297 69.8334 75.3297 69.7772 75.7311C69.721 76.1325 69.8896 76.5661 69.9458 76.9915C69.9538 77.0638 69.9698 77.1039 70.1063 77.0959C71.4229 75.8756 72.7636 74.6152 74.1284 73.3709C74.2729 73.2344 74.2649 73.13 74.1926 73.0096C74.1043 72.841 74.0802 72.6162 73.7992 72.4958ZM91.5172 85.0035C91.461 85.0035 91.4048 85.0116 91.3486 85.0116C91.0194 85.7983 90.6903 86.5851 90.3691 87.3799C90.321 87.5083 90.2648 87.6689 90.2969 87.7893C90.61 89.1862 90.7304 90.6071 90.8348 92.0281C90.8428 92.1726 90.8428 92.3653 91.0596 92.3974C91.6456 89.9408 91.7821 87.4842 91.5172 85.0035ZM72.7074 86.4245C73.735 85.2926 74.6743 84.1285 75.7661 83.125C76.304 82.6272 76.4485 82.1777 76.3281 81.5434C76.32 81.4953 76.2719 81.4632 76.2157 81.3829C75.0034 82.4265 73.8394 83.5183 72.7395 84.6824C72.3542 85.0919 72.1776 85.4371 72.4505 85.9428C72.5228 86.0873 72.4826 86.28 72.7074 86.4245ZM74.7947 74.3102C73.5664 75.4261 72.3943 76.4697 71.2463 77.5535C70.9493 77.8345 70.6683 78.0914 70.2508 78.1315C70.2348 78.6052 70.4274 78.9745 70.5398 79.5124C71.158 78.838 71.6477 78.2439 72.2337 77.7462C72.9964 77.1039 73.7591 76.4537 74.5137 75.7873C75.0596 75.3217 75.1078 75.0488 74.7947 74.3102ZM41.4702 107.522C41.4542 106.615 40.4587 105.628 39.5676 105.636C38.6765 105.644 38.2751 106.334 38.7407 107.105C39.118 107.723 39.68 108.108 40.3784 108.269C40.9564 108.413 41.4782 108.028 41.4702 107.522ZM46.2549 101.822C46.2389 101.068 45.5726 100.546 44.6975 100.562C44.0312 100.578 43.6057 101.052 43.7502 101.694C43.8867 102.296 44.1917 102.818 44.7376 103.147C45.4923 103.605 45.8616 103.468 46.1024 102.633C46.1747 102.36 46.2951 102.087 46.2549 101.822ZM71.2062 81.3909C71.3908 81.1982 71.5674 81.0136 71.744 80.829C72.8359 79.689 74.032 78.6534 75.3567 77.7943C75.7902 77.5134 75.8865 77.3127 75.7179 76.8952C75.6698 76.7668 75.6055 76.6463 75.5574 76.5339C75.3406 76.542 75.2282 76.6945 75.0998 76.7989C73.743 77.8987 72.4264 79.0387 71.2543 80.3553C70.9011 80.7487 70.8931 81.0056 71.2062 81.3909ZM49.3538 15.1674C49.2976 14.9667 49.2494 14.6777 49.129 14.4208C48.848 13.8027 48.3984 13.6822 47.8044 14.0515C47.2023 14.4208 47.0337 15.0229 47.0096 15.6652C46.9775 16.5804 47.2745 16.8052 48.1736 16.6366C48.7998 16.5162 49.3457 15.8659 49.3538 15.1674ZM107.87 38.3766C107.228 39.2436 106.578 40.1187 105.928 40.9777C105.815 41.1302 105.767 41.2827 105.847 41.4513C106.184 42.1738 106.353 42.9606 106.626 43.7955C107.212 42.4067 107.886 39.6851 107.87 38.3766ZM53.0949 38.3766C53.7692 38.3846 54.3151 37.8387 54.4115 37.06C54.4837 36.4819 54.2027 36.0645 53.6408 35.9119C53.0467 35.7514 52.557 36.0404 52.2439 36.7469C52.1877 36.8753 52.1556 37.0118 52.1235 37.1563C51.9549 37.9109 52.3161 38.3605 53.0949 38.3766ZM43.7181 21.5417C43.7341 20.5784 43.4772 20.3375 42.8912 20.5784C41.8556 21.0038 41.4782 22.6094 42.1767 23.5006C42.3613 23.7334 42.6263 23.7815 42.8109 23.4925C43.2444 22.8262 43.694 22.1599 43.7181 21.5417ZM73.4861 88.5519C75.0998 87.4441 76.0792 86.007 76.0391 84.5379C75.0516 85.4451 74.2087 86.4085 73.4299 87.428C73.0446 87.9338 73.0446 87.9418 73.4861 88.5519ZM34.1486 163.951C33.2575 165.252 32.0694 166.215 30.8411 167.147C31.4673 167.058 32.0533 166.946 32.6634 166.978C32.9444 166.986 33.1451 166.922 33.2736 166.633C33.6348 165.766 33.956 164.891 34.1486 163.951ZM55.0778 45.3529C55.0778 44.9034 54.8209 44.6224 54.3713 44.5501C53.9298 44.4859 53.5926 44.6545 53.3517 45.0158C53.0788 45.4252 53.0868 45.8748 53.2715 46.3163C53.3277 46.4528 53.4401 46.525 53.6006 46.5491C54.283 46.6776 55.0778 46.0434 55.0778 45.3529ZM45.9579 124.261C46.4637 124.253 46.7928 123.9 46.7687 123.378C46.7447 122.88 46.0623 122.117 45.6528 122.133C45.2193 122.149 44.8661 122.623 44.8741 123.193C44.8821 123.811 45.3478 124.269 45.9579 124.261ZM44.8099 35.9441C44.8019 35.4543 44.3362 34.8522 43.8626 34.7399C43.3006 34.6034 42.835 35.061 42.9795 35.647C43.0999 36.1608 43.4531 36.498 43.9669 36.6184C44.561 36.771 44.8179 36.5462 44.8099 35.9441ZM53.2313 19.6551C53.2153 19.7515 53.2313 19.8478 53.1912 19.92C53.0226 20.2492 53.1671 20.4499 53.4481 20.6185C53.713 20.7791 53.986 20.8272 54.2509 20.6747C54.5399 20.5222 54.5881 20.2412 54.5479 19.9361C54.4998 19.5588 54.3713 19.2136 54.1465 18.9165C53.8816 18.5713 53.5765 18.7961 53.3036 18.9085C53.0547 19.0049 52.9423 19.1734 53.1591 19.4303C53.2153 19.4865 53.2153 19.5829 53.2313 19.6551ZM39.11 39.3319C37.9539 38.1919 35.0317 38.0073 33.7793 38.9626C35.5616 38.5853 37.3037 38.6656 39.11 39.3319ZM51.6498 105.371C51.6418 105.274 51.7301 104.993 51.4732 104.817C51.2163 104.632 50.6142 104.68 50.3493 104.913C50.0442 105.178 50.004 105.491 50.2208 105.828C50.3733 106.069 50.5259 106.318 50.7266 106.511C50.9915 106.776 51.2323 106.727 51.417 106.414C51.5775 106.141 51.6739 105.844 51.6498 105.371ZM57.6949 127.552C57.727 127.215 57.5023 126.942 57.1731 126.894C56.8199 126.846 56.4586 127.111 56.4426 127.44C56.4265 127.745 56.6834 128.01 57.0286 128.05C57.3818 128.082 57.6628 127.873 57.6949 127.552ZM33.0086 46.1638C32.7036 45.0238 32.3905 43.8838 32.0854 42.7438C32.0132 43.9159 32.3503 45.1603 33.0086 46.1638Z" fill="#4A719C"/>
<path d="M39.985 122.037C39.9609 122.342 39.8164 122.567 39.5354 122.719C38.7968 123.105 38.002 123.313 37.2153 123.554C36.9183 123.643 36.6373 123.538 36.5088 123.225C36.3804 122.904 36.5329 122.671 36.8219 122.527C37.0467 122.414 37.2956 122.334 37.5284 122.238C38.0502 122.037 38.6042 121.925 39.0778 121.563C39.4872 121.25 39.985 121.547 39.985 122.037Z" fill="#4A719C"/>
<path d="M78.2307 98.876C78.5519 98.9241 78.7766 99.1489 78.6883 99.454C78.5037 100.08 78.2628 100.69 77.9979 101.284C77.8855 101.541 77.6126 101.606 77.3316 101.509C77.0506 101.421 76.882 101.204 76.9462 100.923C77.1148 100.233 77.3878 99.5744 77.8213 98.9964C77.9176 98.884 78.0702 98.876 78.2307 98.876Z" fill="#4A719C"/>
<path d="M35.5536 96.3231C35.5616 96.8369 35.0799 97.1982 34.5982 97.0457C34.0363 96.8691 33.6349 96.4355 33.2014 96.0743C32.8883 95.8093 33.1131 95.3116 33.5305 95.2394C33.7714 95.1992 33.9881 95.2634 34.1808 95.3999C34.4859 95.6006 34.7749 95.8254 35.1763 95.8495C35.4171 95.8575 35.5456 96.1064 35.5536 96.3231Z" fill="#4A719C"/>
<path d="M63.8927 86.7537C63.8927 87.0427 63.9328 87.3317 63.8847 87.6127C63.8205 88.0382 63.5154 88.263 63.1782 88.1987C62.8009 88.1185 62.6403 87.8294 62.6885 87.5003C62.7527 87.0186 62.825 86.545 62.833 86.0552C62.833 85.71 63.0739 85.5254 63.395 85.5254C63.7161 85.5254 63.9248 85.7181 63.9248 86.0713C63.9248 86.3041 63.9248 86.5289 63.9248 86.7617C63.9088 86.7537 63.9007 86.7537 63.8927 86.7537Z" fill="#4A719C"/>
<path d="M42.8032 95.7128C42.8032 96.0018 42.6988 96.1704 42.5061 96.2587C42.2653 96.3711 41.9923 96.3872 41.7916 96.1704C41.4785 95.8332 41.2377 95.4399 41.0932 95.0064C41.0209 94.7816 41.0852 94.5488 41.31 94.4123C41.4866 94.2999 41.6953 94.2437 41.8719 94.3802C42.3375 94.7334 42.5623 95.2633 42.8032 95.7128Z" fill="#4A719C"/>
<path d="M64.4465 94.027C64.4385 94.1153 64.4385 94.1956 64.4305 94.2839C64.3743 94.7977 64.0692 95.0947 63.6839 95.0305C63.3066 94.9582 63.1139 94.597 63.2423 94.0832C63.2905 93.8825 63.3146 93.6898 63.3306 93.4971C63.3628 93.168 63.5554 92.9592 63.8846 92.9592C64.2218 92.9673 64.4064 93.168 64.4144 93.5132C64.4225 93.6817 64.4144 93.8584 64.4144 94.027C64.4305 94.027 64.4385 94.027 64.4465 94.027Z" fill="#4A719C"/>
<path d="M41.4058 127.376C40.9642 127.36 40.7314 126.878 41.0044 126.501C41.2211 126.196 41.5663 126.027 41.8874 125.85C42.0721 125.746 42.2808 125.818 42.4333 125.979C42.6019 126.155 42.6742 126.348 42.5618 126.597C42.4173 126.926 41.751 127.392 41.4058 127.376Z" fill="#4A719C"/>
<path d="M87.198 23.6533C86.7725 23.6774 86.5237 23.2519 86.7404 22.8585C86.9572 22.4571 87.2382 22.0878 87.5111 21.7185C89.775 18.6438 92.047 15.5851 94.2948 12.4943C94.7926 11.8119 95.4188 11.2018 95.6436 10.3267C95.7319 9.97349 96.2457 9.79687 96.5748 9.93335C96.9361 10.0859 97.0806 10.4632 96.8317 10.8566C96.3902 11.563 95.9245 12.2535 95.4348 12.9198C92.9461 16.2835 90.4414 19.6393 87.9366 23.003C87.7279 23.268 87.5593 23.5891 87.198 23.6533Z" fill="#4A719C"/>
<path d="M79.0893 32.7488C79.1857 32.4759 79.29 32.1226 79.4345 31.7774C79.8681 30.7177 80.3257 29.6741 80.7672 28.6144C80.8876 28.3173 81.0321 28.0444 81.2971 27.8437C81.5218 27.6751 81.7627 27.635 82.0035 27.8116C82.2524 27.9962 82.2845 28.2612 82.1561 28.502C81.3613 29.9952 80.7672 31.5687 80.141 33.1262C80.0126 33.4392 79.7958 33.5838 79.4667 33.4954C79.1295 33.4152 79.0412 33.1583 79.0893 32.7488Z" fill="#4A719C"/>
<path d="M93.3719 25.9572C93.38 26.2061 93.2676 26.4148 93.1231 26.5914C92.2079 27.7234 91.2927 28.8553 90.3534 29.9712C90.0644 30.3245 89.7192 30.3807 89.4542 30.18C89.1652 29.9632 89.1652 29.626 89.5024 29.2005C90.249 28.2612 91.0197 27.338 91.7663 26.4068C91.9831 26.1418 92.1677 25.8528 92.3845 25.5879C92.545 25.3872 92.7698 25.339 93.0027 25.4273C93.2435 25.5156 93.3479 25.7163 93.3719 25.9572Z" fill="#4A719C"/>
<path d="M100.364 19.053C100.34 19.2858 100.228 19.4785 100.075 19.6631C99.3125 20.5863 98.5498 21.5176 97.7872 22.4408C97.6989 22.5532 97.5945 22.6576 97.4741 22.7298C97.2573 22.8503 97.0325 22.8583 96.8399 22.6736C96.6472 22.489 96.6231 22.2722 96.7435 22.0475C96.8399 21.8708 96.9683 21.7183 97.0887 21.5577C97.5544 20.9797 98.028 20.4097 98.4936 19.8237C98.7586 19.4945 99.0476 19.1895 99.1279 18.7319C99.1841 18.4348 99.4891 18.2983 99.8102 18.3786C100.155 18.4669 100.356 18.6837 100.364 19.053Z" fill="#4A719C"/>
<path d="M16.5596 20.209C16.7362 20.209 16.8887 20.2732 17.0252 20.3856C20.5174 23.1874 24.0337 25.9651 26.8997 29.4413C28.3046 31.1512 29.5008 33.0057 30.6167 34.9164C30.7612 35.1653 30.8977 35.4141 31.0101 35.6791C31.1867 36.0965 31.0903 36.4096 30.7532 36.5541C30.3999 36.7067 30.143 36.5461 29.9664 36.241C29.9343 36.1929 29.9183 36.1367 29.8942 36.0885C27.7426 32.0022 24.8686 28.502 21.3844 25.4834C19.8912 24.1829 18.3498 22.9466 16.8245 21.6861C16.5836 21.4854 16.3267 21.2847 16.1501 21.0278C15.9093 20.6666 16.1501 20.225 16.5596 20.209Z" fill="#4A719C"/>
<path d="M12.8177 22.794C13.0425 22.786 13.3235 22.9385 13.6125 23.0509C16.4544 24.1507 18.919 25.8527 21.2311 27.7955C21.777 28.2531 22.3149 28.7348 22.8448 29.2165C22.9973 29.3529 23.1418 29.4894 23.2622 29.65C23.4549 29.9069 23.479 30.1878 23.2301 30.4207C22.9812 30.6535 22.7083 30.6214 22.4594 30.4046C21.9215 29.931 21.3997 29.4412 20.8538 28.9756C18.5658 27.0007 16.1333 25.2426 13.2914 24.1347C13.0264 24.0303 12.7615 23.934 12.4886 23.8457C12.1514 23.7333 12.039 23.5005 12.1112 23.1794C12.1915 22.8823 12.4324 22.794 12.8177 22.794Z" fill="#4A719C"/>
<path d="M30.199 39.6049C30.1267 39.934 29.918 40.1026 29.5808 40.0464C29.356 40.0143 29.1473 39.918 28.9386 39.8216C26.6747 38.8261 24.6355 37.4453 22.5482 36.1528C22.0344 35.8397 21.5367 35.5025 21.039 35.1734C20.8463 35.0449 20.6536 34.9245 20.5332 34.7158C20.3887 34.4589 20.4128 34.218 20.6135 34.0093C20.7981 33.8166 21.0309 33.7925 21.2397 33.913C21.5126 34.0655 21.7535 34.2742 22.0184 34.4428C24.4991 36.0324 26.9316 37.7022 29.621 38.9225C29.91 39.0509 30.199 39.2035 30.199 39.6049Z" fill="#4A719C"/>
<path d="M8.83594 14.6295C8.88411 14.6215 9.0527 14.7499 9.22932 14.8382C10.9072 15.7213 12.4727 16.773 13.8695 18.0575C13.9739 18.1538 14.0863 18.2502 14.1746 18.3545C14.3592 18.5873 14.3592 18.8362 14.1666 19.053C13.9739 19.2778 13.717 19.3179 13.4681 19.1734C13.2915 19.0771 13.139 18.9486 12.9864 18.8121C11.7822 17.6962 10.4335 16.781 8.9965 16.0023C8.74763 15.8658 8.49074 15.7374 8.29806 15.5126C8.16158 15.344 8.12144 15.1594 8.20172 14.9506C8.28201 14.758 8.45862 14.6696 8.83594 14.6295Z" fill="#4A719C"/>
<path d="M18.2855 32.2834C18.43 32.2834 18.5986 32.2915 18.6708 32.4199C18.9277 32.8936 19.4014 33.1264 19.8028 33.4395C20.0838 33.6643 20.3246 33.9372 20.0597 34.3145C19.7948 34.6758 19.4656 34.5795 19.1525 34.3707C18.7029 34.0737 18.2213 33.8088 17.8359 33.4154C17.6352 33.2147 17.579 32.9658 17.6914 32.7089C17.8038 32.4601 17.9884 32.2915 18.2855 32.2834Z" fill="#4A719C"/>
<path d="M26.3049 32.9896C26.2968 33.4633 25.7911 33.7443 25.4458 33.4552C24.9481 33.0378 24.5066 32.5481 24.065 32.0664C23.9125 31.8978 23.9205 31.6329 24.065 31.4241C24.2176 31.2074 24.4745 31.1351 24.6671 31.2636C25.2773 31.681 25.8392 32.1627 26.2567 32.7729C26.3049 32.8371 26.2968 32.9334 26.3049 32.9896Z" fill="#4A719C"/>
<path d="M63.5315 31.6412C63.7402 31.0792 63.9811 30.4049 64.254 29.7466C64.3503 29.5057 64.5832 29.3532 64.8401 29.2809C65.0568 29.2247 65.2415 29.297 65.3779 29.4495C65.5144 29.6021 65.6108 29.8108 65.4823 29.9954C65.0247 30.6377 64.9284 31.4244 64.5751 32.1068C64.4226 32.3958 64.1978 32.5484 63.8767 32.436C63.5636 32.3316 63.4833 32.0667 63.5315 31.6412Z" fill="#4A719C"/>
<path d="M55.5031 101.003C55.76 100.995 55.9447 101.14 56.0651 101.341C56.6913 102.4 57.3094 103.46 57.9276 104.528C58.1042 104.841 58.0962 105.154 57.759 105.347C57.4459 105.523 57.189 105.355 57.0365 105.09C56.3782 104.014 55.7199 102.946 55.1017 101.854C54.8769 101.469 55.1178 101.044 55.5031 101.003Z" fill="#4A719C"/>
<path d="M51.8503 92.9593C51.8583 93.3366 51.8102 93.5935 51.4971 93.6657C51.1519 93.746 50.9512 93.5533 50.8628 93.2483C50.5497 92.2127 50.2286 91.1851 49.7951 90.1896C49.6747 89.9166 49.7871 89.6999 50.036 89.5393C50.2768 89.3868 50.4775 89.4992 50.6621 89.6276C50.7264 89.6758 50.7906 89.748 50.8227 89.8283C51.2883 90.8639 51.6416 91.9397 51.8503 92.9593Z" fill="#4A719C"/>
<path d="M55.3668 97.8324C55.1741 97.8244 55.0055 97.712 54.8931 97.5354C54.5479 96.9734 54.2027 96.4115 53.8735 95.8415C53.705 95.5605 53.7451 95.2875 54.018 95.0868C54.3071 94.8701 54.588 94.9664 54.7727 95.2153C55.2062 95.8254 55.5835 96.4677 55.8484 97.1661C55.9769 97.4953 55.72 97.8244 55.3668 97.8324Z" fill="#4A719C"/>
<path d="M53.665 90.6473C53.6891 91.0005 53.6008 91.2334 53.3037 91.3217C52.9666 91.418 52.7658 91.2414 52.6454 90.9283C52.3966 90.2941 52.2681 89.6117 51.8426 89.0497C51.7222 88.8892 51.7784 88.6644 51.939 88.4958C52.0915 88.3352 52.2842 88.3111 52.4929 88.3513C52.7097 88.3914 52.8622 88.5359 52.9585 88.7045C53.3037 89.3307 53.5044 90.0131 53.665 90.6473Z" fill="#4A719C"/>
<path d="M53.0463 96.0502C53.2551 96.0743 53.4237 96.1706 53.52 96.3713C53.7608 96.861 54.0017 97.3427 54.2345 97.8324C54.379 98.1375 54.3148 98.4024 54.0177 98.571C53.7448 98.7235 53.512 98.587 53.3514 98.3703C52.9901 97.8886 52.7172 97.3427 52.5325 96.7727C52.4041 96.4034 52.6931 96.0422 53.0463 96.0502Z" fill="#4A719C"/>
<path d="M59.2687 107.265C59.2607 107.546 59.1162 107.731 58.8031 107.755C58.506 107.771 58.209 107.466 58.209 107.145C58.209 106.84 58.3695 106.671 58.6746 106.647C59.0038 106.623 59.2607 106.888 59.2687 107.265Z" fill="#4A719C"/>
<path d="M50.2448 177.888C50.2207 177.406 50.1806 176.917 50.1726 176.435C50.1645 175.993 50.4054 175.68 50.7265 175.712C51.0958 175.745 51.2724 176.001 51.3045 176.347C51.3527 176.973 51.3848 177.599 51.433 178.217C51.4571 178.554 51.4169 178.876 51.5775 179.213C51.7862 179.646 51.5293 179.975 51.0316 180.064C50.582 180.144 50.2368 179.903 50.2127 179.429C50.1806 178.916 50.2047 178.402 50.2047 177.888C50.2207 177.888 50.2288 177.888 50.2448 177.888Z" fill="#4A719C"/>
<path d="M19.1041 58.4226C19.3128 58.4387 19.4894 58.5189 19.6339 58.6715C20.798 59.8516 22.1467 60.8391 23.2626 62.0754C23.4392 62.2681 23.6239 62.4447 23.7042 62.7016C23.8005 62.9745 23.7443 63.2073 23.5115 63.3839C23.2546 63.5686 22.9977 63.5124 22.8211 63.2956C21.6891 61.8747 20.1477 60.8792 18.9194 59.5626C18.8231 59.4582 18.7107 59.3619 18.6465 59.2334C18.4538 58.8802 18.7107 58.4387 19.1041 58.4226Z" fill="#4A719C"/>
<path d="M40.467 155.265C40.3225 155.811 40.0977 156.397 39.6803 156.879C39.5197 157.071 39.2789 157.104 39.0541 156.959C38.8614 156.839 38.7811 156.638 38.8534 156.437C39.038 155.899 39.2227 155.353 39.5518 154.872C39.6883 154.671 39.9211 154.599 40.162 154.711C40.3546 154.808 40.475 154.96 40.467 155.265Z" fill="#4A719C"/>
<path d="M42.0562 152.608C41.719 152.56 41.5022 152.391 41.5424 152.102C41.6146 151.628 41.7511 151.155 42.0241 150.745C42.1364 150.577 42.3291 150.48 42.5459 150.545C42.7787 150.617 42.9794 150.778 42.9553 151.026C42.8991 151.572 42.7145 152.078 42.3131 152.471C42.2488 152.552 42.1284 152.576 42.0562 152.608Z" fill="#4A719C"/>
<path d="M75.2119 51.5024C75.5571 51.5024 75.7979 51.8798 75.6936 52.241C75.2761 53.6941 74.8667 55.1392 74.4492 56.5922C74.4091 56.7287 74.401 56.8732 74.3529 57.0097C74.2726 57.2184 74.104 57.3148 73.8792 57.2987C73.6384 57.2826 73.542 57.1141 73.4858 56.9053C73.4296 56.7046 73.4858 56.512 73.5179 56.3113C73.6303 55.5486 73.8632 54.81 74.0719 54.0714C74.2324 53.5255 74.3448 52.9635 74.4332 52.4016C74.5295 51.8476 74.8506 51.5024 75.2119 51.5024Z" fill="#4A719C"/>
<path d="M76.5933 49.1022C76.2642 49.0299 76.0956 48.8212 76.1518 48.484C76.2321 47.9943 76.4408 47.5527 76.8101 47.2075C77.0108 47.0229 77.2596 46.9506 77.5085 47.1513C77.7574 47.344 77.7734 47.6009 77.6209 47.8418C77.4122 48.1548 77.2677 48.492 77.0991 48.8292C77.0028 49.0219 76.8261 49.1102 76.5933 49.1022Z" fill="#4A719C"/>
<path d="M95.7798 70.7136C95.7638 70.8982 95.6594 71.0267 95.5149 71.1391C95.0814 71.4682 94.6559 71.8054 94.2144 72.1346C93.9655 72.3192 93.6925 72.4155 93.4517 72.1346C93.2269 71.8696 93.2831 71.6047 93.5079 71.3639C93.9494 70.9063 94.4391 70.5049 95.0091 70.2239C95.4025 70.0232 95.8119 70.3202 95.7798 70.7136Z" fill="#4A719C"/>
<path d="M99.5212 67.5345C99.4971 67.5907 99.473 67.7111 99.4008 67.7914C99.0395 68.1607 98.6782 68.5219 98.2929 68.8591C98.1163 69.0116 97.8754 69.0598 97.6667 68.8832C97.4258 68.6905 97.3937 68.4256 97.5543 68.1928C97.8674 67.7512 98.2367 67.3418 98.7103 67.0688C99.1037 66.844 99.5212 67.0688 99.5212 67.5345Z" fill="#4A719C"/>
</svg>
