<svg width="178" height="265" viewBox="0 0 178 265" fill="none" xmlns="http://www.w3.org/2000/svg">
<path d="M35.7755 99.6773C37.9941 98.9856 40.2667 98.8329 42.5661 98.9317C44.2818 99.0126 45.9705 99.309 47.6142 99.8569C48.7819 100.252 49.4736 101.312 48.4316 102.579C47.6681 103.504 46.6531 104.061 45.674 104.689C43.3835 106.154 40.9313 107.204 38.2456 107.672C36.018 108.067 33.7634 108.139 31.5088 108.067C31.2843 108.058 31.0687 108.067 30.7633 108.067C34.8144 114.121 39.1978 119.852 44.4434 125.079C44.183 124.118 43.9404 123.31 43.7428 122.483C43.3656 120.956 43.4464 119.412 43.6171 117.867C43.7338 116.825 43.8416 115.783 43.8955 114.741C43.9135 114.336 43.9943 113.941 44.0662 113.546C44.147 113.106 44.4794 112.783 44.9285 112.711C45.4046 112.639 45.7908 112.881 46.0603 113.259C47.4166 115.163 48.4316 117.238 49.0155 119.501C49.5275 121.477 49.743 123.507 49.6083 125.537C49.5275 126.795 49.4466 128.062 49.0963 129.283C49.0245 129.526 49.0963 129.598 49.24 129.723C52.1862 132.373 55.2762 134.834 58.3571 137.313C61.8603 140.134 65.4083 142.9 68.9833 145.613C72.3606 148.182 75.8368 150.616 79.295 153.077C81.8909 154.919 84.4778 156.769 87.0737 158.611C87.1366 158.655 87.1995 158.691 87.3702 158.808C87.0917 157.82 86.8402 156.949 86.5977 156.069C86.0767 154.182 85.5467 152.287 85.0527 150.392C84.8371 149.556 84.1994 149.044 83.7054 148.434C82.376 146.754 81.0017 145.119 79.6453 143.466C79.5465 143.35 79.5375 143.071 79.2681 143.296C78.4417 143.969 77.4267 143.96 76.4925 143.799C73.4206 143.26 70.6899 141.975 68.4803 139.721C67.3125 138.535 66.594 137.035 65.8933 135.544C64.8154 133.271 63.7555 130.999 62.7046 128.717C62.4441 128.16 62.2016 127.559 62.3273 126.921C62.5788 125.654 63.4142 125.124 64.6897 124.981C68.3814 124.558 71.5432 125.834 74.2739 128.268C76.1332 129.921 77.8129 131.735 79.0076 133.945C80.0675 135.885 80.6693 137.96 80.7771 140.17C80.7951 140.619 80.7412 141.068 80.6244 141.49C80.5346 141.778 80.5436 141.966 80.7232 142.191C81.8011 143.538 82.879 144.894 84.0647 146.206C83.903 145.496 83.7413 144.787 83.5706 144.077C82.4029 139.263 81.1993 134.448 80.0855 129.615C79.5375 127.244 79.1244 124.846 78.8279 122.421C78.6124 120.633 78.289 118.855 78.1273 117.058C77.9836 115.432 77.8399 113.807 77.7141 112.181C77.5165 109.495 77.3728 106.809 77.3908 104.124C77.3997 102.507 77.5255 100.881 77.4896 99.2641C77.4896 99.1743 77.4896 99.0844 77.4896 98.9048C75.9626 100.046 74.4894 101.123 73.0433 102.228C70.5642 104.124 68.0671 106.001 65.7586 108.094C62.992 110.6 60.5488 113.375 58.5188 116.51C57.7014 117.777 56.893 119.043 55.9499 120.22C55.878 120.31 55.8061 120.418 55.7343 120.507C54.1264 122.304 52.2042 121.98 51.0006 119.645C50.255 118.199 49.9496 116.609 49.743 114.992C49.5993 113.878 49.6353 112.774 49.6353 111.66C49.6263 108.193 50.4437 104.887 51.5844 101.644C52.9138 97.8539 54.6923 94.2878 57.1176 91.0722C57.7463 90.2368 58.447 89.4643 59.2105 88.5841C58.2943 88.62 57.4948 88.7637 56.7044 88.8535C56.1115 88.9254 55.5007 88.9793 54.9079 89.0242C52.3839 89.2308 49.8508 89.2667 47.3178 89.1499C45.0093 89.0422 42.6919 88.8445 40.4014 88.5481C38.4971 88.3056 36.5659 88.0631 34.7964 87.2277C33.3862 86.554 33.0179 85.3594 33.9071 84.0749C35.2904 82.0808 36.9342 80.3113 38.7486 78.6855C40.4373 77.1764 42.2518 75.874 44.2818 74.8949C46.4555 73.853 48.755 73.2152 51.1443 72.8559C53.2102 72.5416 55.2852 72.5326 57.3511 72.6493C59.1027 72.7481 60.8452 73.0535 62.5429 73.5476C62.6956 73.5925 62.8393 73.6015 63.0459 73.5925C61.1596 71.8769 59.3182 70.2151 57.6206 68.3917C56.2103 66.8827 54.8899 65.3018 53.6953 63.631C53.1653 62.8945 52.5545 62.616 51.7192 62.5262C46.5992 61.9334 42.4134 59.6608 39.054 55.7176C36.2695 52.439 34.5808 48.6305 33.2245 44.6423C31.7873 40.4386 30.4489 36.2079 29.0836 31.9862C28.4638 30.064 27.7093 28.1867 27.3141 26.2015C27.0177 24.7284 27.4488 23.1835 29.5776 23.3452C30.1884 23.3901 30.7633 23.5518 31.3112 23.7763C34.0329 24.8632 36.503 26.3992 38.7756 28.2495C42.4494 31.2496 45.5123 34.7707 47.9286 38.8577C50.4886 43.1872 52.3659 47.7862 53.3989 52.7085C53.9198 55.1966 54.2073 57.7386 54.0815 60.2627C54.0097 61.7358 54.854 62.5532 55.5546 63.5053C57.405 66.0204 59.5518 68.2749 61.8243 70.4127C62.7495 71.284 63.7106 72.1194 64.6628 72.9727C64.7166 72.9817 64.7975 73.0086 64.8065 72.9907C64.8514 72.9278 64.7885 72.8919 64.7346 72.8829C64.1058 71.5804 63.4052 70.3139 62.9741 68.9127C62.4441 67.1791 62.1657 65.4185 62.0309 63.6131C61.8243 60.6848 61.8513 57.7476 61.7614 54.8104C61.6896 52.2684 61.492 49.7264 61.2854 47.1933C61.1776 45.846 60.944 44.5076 60.953 43.1602C60.953 42.4237 61.0788 41.6782 61.5548 41.0763C62.2195 40.223 63.2346 40.0523 64.51 40.5104C66.073 41.0674 67.2946 42.1183 68.4443 43.2411C71.5522 46.2861 74.0134 49.8521 76.3578 53.49C76.9147 54.3613 77.3728 55.2864 77.8938 56.1847C77.9836 56.3374 78.0105 56.5709 78.298 56.6518C78.3519 55.5829 78.7201 54.5858 78.8189 53.5439C78.9806 53.3283 79.0255 52.9151 78.9267 52.8792C78.5495 52.7624 78.5046 52.3582 78.2261 52.1875C77.3818 49.9868 76.5464 47.7862 75.7021 45.5855C74.8038 43.2321 73.8427 40.9147 72.8008 38.6242C72.5852 38.1571 72.3876 37.8696 71.7947 37.7618C69.8725 37.4026 68.0222 36.7558 66.2257 36.0013C64.6089 35.3276 63.01 34.6001 61.5818 33.5581C59.3811 31.9503 57.9439 29.7765 57.0726 27.2435C56.1475 24.5488 55.357 21.7912 54.4318 19.0965C53.318 15.8629 51.791 12.7999 50.4257 9.674C49.5814 7.72483 48.6292 5.82955 48.0005 3.79056C47.8478 3.28754 47.7849 2.77555 47.7579 2.25457C47.713 1.13178 48.3059 0.440136 49.267 0C49.8778 0 50.4796 0 51.0904 0C53.0396 0.467083 54.8989 1.19465 56.6774 2.12882C59.3362 3.52109 61.7974 5.1918 64.052 7.17691C67.3395 10.0602 70.115 13.3388 72.1451 17.2282C73.5463 19.9139 74.4715 22.7433 74.9565 25.7434C75.3697 28.2765 75.6122 30.8095 75.5494 33.3785C75.5134 34.7438 75.2799 36.0911 75.0553 37.4385C75.0194 37.6271 74.9565 37.8696 74.8218 37.9774C74.3457 38.3457 74.4984 38.705 74.696 39.1541C75.7919 41.5973 76.8159 44.0854 77.6512 46.6274C78.1632 48.1904 78.8998 49.6635 79.313 51.2534C79.3399 51.3522 79.3579 51.451 79.5106 51.5049C80.1394 49.7982 80.7951 48.1005 81.6214 46.4747C81.9089 45.9178 82.2143 45.3879 82.5646 44.8669C83.7413 43.0794 85.6905 43.2321 86.948 44.4537C88.8433 46.2861 90.011 48.5676 90.8912 51.0108C91.5739 52.9061 92.059 54.8463 92.3644 56.8404C92.3733 56.9302 92.4542 57.0021 92.517 57.1099C93.0919 55.9242 93.6309 54.7565 94.2147 53.6067C94.3315 53.3822 94.3135 53.1935 94.1788 53.0588C93.3524 52.2504 93.1817 51.1366 92.7865 50.1306C91.7446 47.4718 90.7116 44.813 89.7146 42.1273C88.6097 39.1451 87.6306 36.1091 87.1636 32.9563C86.8222 30.5939 86.3282 28.2405 86.3911 25.8333C86.409 25.2135 86.5887 24.6656 87.1636 24.3871C87.8193 24.0727 88.3852 24.3512 88.8522 24.8093C90.6577 26.6058 92.1937 28.5998 93.3255 30.8903C94.6369 33.5581 95.6519 36.3337 96.2088 39.2529C96.6579 41.5883 96.9184 43.9507 96.6489 46.349C96.5411 47.3011 96.4873 48.2712 96.4334 49.2503C99.155 43.6183 102.568 38.3906 105.892 33.0731C104.634 32.5072 103.332 32.0311 102.29 31.1149C101.76 30.6478 101.221 30.1897 100.718 29.6867C98.9574 27.9262 97.1699 26.1836 95.4902 24.3512C94.4393 23.2014 93.6129 21.8721 93.3165 20.2732C92.9751 18.4049 93.4782 16.9138 95.0321 15.791C95.113 15.7371 95.1758 15.6563 95.2926 15.5395C93.4512 14.8838 92.9841 13.4466 93.1009 11.722C93.1548 10.9495 93.2806 10.168 93.5141 9.4225C94.7357 5.62296 97.4035 3.43126 101.23 2.5959C103.296 2.14678 105.407 2.2905 107.5 2.45218C109.718 2.62285 111.919 2.94621 114.084 3.44024C116.275 3.93427 117.641 5.56008 117.919 7.82364C117.973 8.29072 118.018 8.74882 118.036 9.26082C118.781 8.94643 119.527 8.67696 120.326 8.66798C122.428 8.63205 124.252 9.46741 126.012 10.5094C128.303 11.8747 129.821 13.9227 131.123 16.1683C132.578 18.6653 133.827 21.2523 134.375 24.1266C134.734 26.0129 134.635 27.8453 133.863 29.5969C133.575 30.2526 133.468 30.8814 133.486 31.564C133.566 34.9055 132.183 37.6451 129.938 40.0074C129.659 40.2949 129.327 40.5374 128.994 40.762C127.89 41.5075 126.731 41.5524 125.554 40.9326C125.258 40.7799 125.096 40.7799 124.88 41.0763C123.722 42.6932 122.06 43.0075 120.228 42.792C117.47 42.4776 115.314 40.9057 113.212 39.2889C111.254 37.7798 109.53 36.0013 107.814 34.2318C107.455 33.8635 107.293 33.8455 107.006 34.3216C105.47 36.8277 103.898 39.3158 102.344 41.8129C102.254 41.9656 102.164 42.1183 102.029 42.3698C102.577 42.2351 103.044 42.0824 103.511 42.0015C107.473 41.3009 111.245 42.0554 114.901 43.5555C118.323 44.9657 121.539 46.8251 124.88 48.397C126.461 49.1425 128.051 49.8701 129.623 50.6515C130.225 50.948 130.8 51.3971 130.791 52.1426C130.782 52.9061 130.207 53.3283 129.569 53.6516C128.411 54.2355 127.162 54.469 125.904 54.6487C124.872 54.7924 123.821 54.8463 122.77 54.8643C118.314 54.9721 114.12 53.975 110.203 51.8372C107.284 50.2383 104.437 48.5407 101.778 46.5376C101.293 46.1783 100.835 45.7921 100.305 45.3699C98.0592 49.5826 95.7956 53.7774 93.8824 58.1788C94.6998 57.4871 95.5172 56.7955 96.3256 56.1038C98.3197 54.3972 100.233 52.6007 102.353 51.0468C104.095 49.7713 105.775 50.2473 106.601 52.2504C107.104 53.463 107.293 54.7385 107.455 56.032C107.571 56.9392 107.571 57.8464 107.554 58.7536C107.446 63.146 106.341 67.2689 104.275 71.1403C103.476 72.6404 102.559 74.0596 101.481 75.4249C102.083 75.5506 102.631 75.3441 103.188 75.3351C106.664 75.2452 109.988 76.0357 113.257 77.0866C115.862 77.931 118.467 78.7663 121.117 79.4849C121.88 79.6915 122.572 80.1047 123.183 80.5718C123.605 80.9041 123.596 81.5329 123.434 82.0718C123.21 82.8353 122.725 83.4551 122.186 84.03C119.653 86.7157 116.545 88.5481 113.239 90.0661C111.102 91.0452 108.919 91.8896 106.601 92.3207C105.577 92.5093 104.544 92.6441 103.502 92.7339C102.847 92.7878 102.182 92.7429 101.481 92.9315C102.946 94.1801 104.302 95.5005 105.515 96.9556C106.709 98.3838 107.751 99.9198 108.578 101.573C110.85 99.9198 113.293 98.5185 115.665 96.9915C118.045 95.4556 120.56 94.189 123.183 93.1201C123.443 93.0124 123.569 92.8776 123.65 92.5722C124.53 89.4733 125.536 86.4193 127.387 83.7515C128.967 81.479 130.827 79.4041 132.399 77.1046C132.713 76.6465 133.171 76.395 133.71 76.5836C134.204 76.7633 134.384 77.2124 134.465 77.7334C134.824 80.2305 134.168 82.5299 133.207 84.7845C132.3 86.9223 131.168 88.9344 129.551 90.8656C133.872 89.617 138.103 88.9613 142.576 88.9703C140.986 88.0271 139.692 86.9403 138.48 85.7546C138.174 85.4582 137.932 85.1079 137.716 84.7486C137.483 84.3534 137.402 83.9581 137.707 83.5719C138.013 83.1857 138.444 83.0689 138.893 83.1587C139.971 83.3563 141.049 83.5539 142.118 83.8144C142.441 83.8953 142.495 83.8414 142.495 83.5449C142.549 79.6376 143.717 76.0087 145.244 72.4697C146.25 70.1343 147.498 67.9246 149.106 65.9395C149.42 65.5533 149.789 65.2479 150.211 65.0054C151.154 64.4664 152.232 64.7628 152.959 65.7239C153.651 66.6401 154.001 67.7001 154.262 68.7779C154.379 69.272 154.513 69.1911 154.828 69.0384C157.181 67.8797 159.481 66.6312 161.735 65.3018C162.076 65.1042 162.445 64.9335 162.795 64.7449C164.421 63.8826 165.499 64.7988 165.957 65.9754C166.514 67.4126 166.559 68.9396 166.406 70.4846C166.298 71.5894 166.092 72.6583 165.804 73.7542C166.397 73.844 166.963 73.6823 167.529 73.6284C169.137 73.4847 170.744 73.2871 172.361 73.2781C172.685 73.2781 173.017 73.2601 173.331 73.341C174.185 73.5655 174.589 74.3829 174.328 75.2902C173.807 77.0776 172.613 78.3981 171.265 79.6017C170.987 79.8532 170.664 80.0598 170.286 80.3472C171.391 80.7424 172.424 81.0119 173.493 81.2095C174.104 81.3263 174.706 81.4341 175.307 81.5778C176.403 81.8473 176.808 82.7455 176.278 83.7515C175.739 84.7755 174.948 85.6199 174.176 86.4642C173.547 87.1469 172.873 87.7936 172.191 88.4942C173.089 89.0062 174.077 89.2937 175.011 89.7248C175.739 90.0572 176.493 90.3266 177.14 90.8117C177.957 91.4225 178.029 92.2758 177.355 93.0303C176.808 93.6411 176.116 94.0363 175.397 94.3956C173.834 95.1861 172.218 95.8418 170.493 96.3718C171.149 97.27 171.831 98.1503 172.397 99.1114C173.008 100.144 173.538 101.213 173.682 102.435C173.87 104.07 172.981 104.465 171.813 104.555C169.406 104.743 166.99 104.761 164.583 104.662C162.517 104.573 160.433 104.501 158.349 104.07C158.87 105.588 159.364 107.07 159.723 108.588C159.741 108.669 159.795 108.74 159.795 108.812C159.795 109.405 160.011 110.061 159.4 110.483C158.807 110.896 158.205 110.672 157.639 110.384C155.043 109.055 152.636 107.447 150.444 105.516C148.136 103.486 146.294 101.096 144.902 98.3658C144.714 97.9976 144.57 97.6023 144.399 97.1981C143.914 97.5754 143.501 98.0874 142.818 98.276C142.091 98.4736 141.255 97.9257 141.175 97.1532C141.058 95.9765 141.264 94.8448 141.525 93.713C141.785 92.5902 142.163 91.5392 143.007 90.6051C135.3 90.5332 128.168 92.5722 121.198 95.7879C123.003 95.9676 124.701 96.1023 126.192 97.0454C127.333 97.773 128.33 98.6982 129.372 99.5515C131.518 101.303 133.782 102.893 136.064 104.474C136.737 104.941 137.411 105.417 138.076 105.893C138.686 106.333 138.902 106.818 138.713 107.312C138.552 107.734 137.887 108.058 137.267 107.977C132.56 107.357 128.024 106.18 123.857 103.836C121.359 102.426 119.231 100.549 117.587 98.1862C117.398 97.9167 117.308 97.8898 117.048 98.0604C114.739 99.5335 112.422 100.998 110.122 102.48C109.844 102.659 109.368 102.695 109.323 103.019C109.287 103.306 109.548 103.638 109.664 103.953C110.446 106.037 111.093 108.166 111.344 110.384C111.614 112.747 111.712 115.118 110.643 117.355C110.437 117.795 110.194 118.208 109.871 118.567C108.775 119.798 107.176 119.798 105.775 118.531C104.544 117.417 103.493 116.124 102.407 114.875C101.652 114.004 100.844 113.178 100.089 112.306C99.8826 112.064 99.8017 112.244 99.658 112.333C98.2568 113.259 96.9903 114.354 95.8675 115.603C92.041 119.843 88.6906 124.442 85.7354 129.328C84.9988 130.541 84.3341 131.789 83.6335 133.02C83.5527 133.155 83.4988 133.379 83.382 133.415C82.6634 133.658 82.9149 134.17 83.0227 134.628C84.4419 140.538 85.8701 146.439 87.2983 152.35C87.3252 152.449 87.3791 152.529 87.451 152.673C88.3762 149.745 89.3732 146.889 90.5769 144.122C90.9811 143.197 91.1068 142.46 90.5769 141.472C89.8044 140.026 89.6247 138.373 89.4451 136.73C89.1756 134.25 89.6337 131.906 90.5769 129.642C91.2595 128.017 92.3284 126.633 93.568 125.376C95.5172 123.409 97.6729 121.702 99.9814 120.175C102.371 118.594 103.485 120.058 103.934 121.918C104.356 123.66 104.302 125.439 104.077 127.199C103.592 130.954 102.164 134.367 100.026 137.466C98.4274 139.766 96.4513 141.724 94.08 143.242C93.7027 143.484 93.2985 143.736 92.8045 143.394C92.5081 143.188 92.5081 143.556 92.4542 143.682C91.4661 146.026 90.532 148.389 89.7146 150.787C89.2654 152.107 88.7894 153.41 88.6007 154.802C88.6007 154.82 88.6007 154.847 88.5828 154.856C87.8462 155.512 88.3941 156.185 88.5738 156.832C89.7146 160.82 91.1517 164.719 92.4003 168.68C93.5321 172.282 94.4213 175.947 95.1938 179.638C95.3734 180.501 95.6249 181.354 95.8585 182.288C96.1369 181.614 96.1549 180.959 96.2537 180.339C96.7477 177.348 97.4304 174.411 98.3466 171.527C98.5801 170.8 98.2927 170.135 98.1849 169.461C97.8166 167.117 97.6909 164.763 97.7178 162.401C97.8166 153.652 100.592 145.811 105.649 138.724C107.904 135.562 110.482 132.669 113.096 129.813C115.251 127.46 117.272 124.999 119.258 122.51C119.859 121.747 120.488 121.01 121.216 120.364C122.114 119.564 123.192 119.807 123.641 120.93C123.91 121.612 124.036 122.349 124.135 123.076C124.315 124.388 124.288 125.699 124.252 127.011C124.18 129.678 123.749 132.31 123.156 134.915C122.213 139.047 120.937 143.062 119.132 146.907C117.452 150.473 115.314 153.742 112.808 156.787C109.763 160.497 106.521 164.018 103.134 167.422C102.748 167.808 102.407 168.24 102.029 168.635C101.724 168.958 101.419 169.3 100.898 169.192C100.718 169.156 100.7 169.3 100.655 169.443C99.5862 172.875 98.5622 176.324 97.9783 179.881C97.6639 181.776 97.3226 183.662 97.2328 185.603C97.134 187.615 97.7628 189.465 98.2388 191.36C98.8586 193.857 99.4874 196.363 100.125 198.941C100.583 197.118 100.943 195.339 101.517 193.615C103.278 188.306 105.658 183.312 108.91 178.749C110.491 176.53 112.44 174.653 114.524 172.892C117.245 170.593 120.237 168.653 123.03 166.434C124.925 164.934 126.623 163.236 128.195 161.413C128.985 160.497 129.758 159.563 130.548 158.637C130.602 158.575 130.701 158.521 130.701 158.458C130.746 157.416 131.617 157.47 132.273 157.308C132.902 157.146 133.486 157.667 133.531 158.35C133.656 160.12 133.234 161.808 132.749 163.479C131.303 168.383 128.842 172.776 126.039 177.015C124.036 180.042 121.916 182.989 119.635 185.818C116.922 189.186 114.048 192.42 110.877 195.375C108.533 197.567 106.107 199.651 103.35 201.304C102.685 201.699 102.056 202.166 101.284 202.373C100.826 202.498 101.023 202.894 101.059 203.136C101.185 203.98 101.383 204.816 101.553 205.66C101.966 207.69 102.299 209.738 102.64 211.786C102.766 212.55 102.757 213.349 103.116 214.139C104.023 213.026 104.904 211.975 105.766 210.906C107.536 208.723 109.413 206.621 111.344 204.591C114.973 200.774 118.853 197.217 122.563 193.48C125.617 190.399 128.617 187.282 131.653 184.192C132.165 183.671 132.713 183.195 133.252 182.701C133.45 182.513 133.513 182.369 133.441 182.037C132.686 178.354 133.486 175.111 136.288 172.497C137.366 171.491 139.01 171.231 140.133 171.797C141.345 172.407 141.785 173.908 141.624 175.021C141.48 175.982 141.13 176.872 140.815 177.806C142.423 176.503 144.04 175.21 145.63 173.89C145.971 173.602 145.756 173.144 145.791 172.776C146.07 169.955 147.076 167.467 149.079 165.428C149.717 164.781 150.525 164.359 151.307 163.919C153.13 162.895 154.9 161.79 156.786 160.892C157.639 160.488 158.519 160.102 159.49 160.254C160.675 160.443 161.439 161.287 161.591 162.841C161.807 164.916 161.564 166.937 160.181 168.653C158.412 170.853 156.202 172.479 153.633 173.629C152.025 174.348 150.319 174.716 148.612 175.066C148.262 175.138 147.893 175.075 147.696 174.734C147.516 174.428 147.372 174.482 147.148 174.662C145.441 176.045 143.725 177.42 142.019 178.803C141.794 178.992 141.498 179.099 141.309 179.441C142.091 179.441 142.827 179.521 143.537 179.8C144.857 180.312 145.531 181.291 145.567 182.683C145.603 184.094 145.27 185.342 144.22 186.33C143.393 187.103 142.396 187.336 141.291 187.273C139.63 187.174 138.156 186.564 136.8 185.629C135.992 185.073 135.408 184.291 134.806 183.456C134.312 183.905 133.809 184.327 133.351 184.785C128.33 189.797 123.443 194.944 118.341 199.876C115.907 202.229 113.464 204.573 111.182 207.07C109.098 209.352 107.068 211.678 105.173 214.122C104.742 214.678 104.347 215.307 103.808 215.738C103.197 216.232 103.278 216.807 103.359 217.4C103.538 218.783 103.637 220.167 103.7 221.55C103.79 223.275 103.88 224.999 103.97 226.868C104.688 225.376 105.335 223.993 106.143 222.709C107.949 219.852 110.266 217.445 112.745 215.181C116.886 211.391 121.701 208.517 126.309 205.373C129.354 203.289 132.255 200.989 135.246 198.834C135.884 198.366 136.513 197.863 137.33 197.684C138.129 197.513 138.794 198.016 138.857 198.825C138.929 199.795 138.668 200.684 138.318 201.564C137.088 204.636 135.39 207.43 133.387 210.044C130.791 213.439 127.8 216.484 124.782 219.511C120.174 224.128 114.65 227.254 108.622 229.58C107.482 230.02 106.35 230.523 105.128 230.73C104.994 230.757 104.823 230.829 104.715 230.784C104.095 230.478 104.032 230.981 103.952 231.332C103.844 231.799 103.817 232.293 103.808 232.769C103.772 234.934 103.61 237.089 103.413 239.236C103.152 242.093 102.856 244.94 102.362 247.769C101.832 250.788 101.338 253.806 100.898 256.842C100.664 258.432 100.457 260.03 100.377 261.638C100.332 262.438 100.233 263.246 100.134 264.045C100.08 264.495 99.8197 264.809 99.3347 264.8C98.8137 264.791 98.5801 264.414 98.5712 263.956C98.5712 263.372 98.634 262.788 98.6969 262.204C98.8855 260.408 99.0562 258.602 99.2987 256.815C99.5143 255.189 99.8197 253.581 100.08 251.964C100.35 250.285 100.61 248.614 100.862 246.934C101.068 245.524 101.275 244.114 101.455 242.703C101.571 241.787 101.634 240.862 101.715 239.937C101.796 239.092 101.787 238.239 101.958 237.413C102.155 236.479 101.463 236.146 100.96 235.742C95.3195 231.314 89.4002 227.263 83.4 223.346C83.2473 223.248 83.0946 223.158 82.9508 223.041C82.6454 222.79 82.4478 222.673 81.9897 222.969C81.4508 223.31 80.7052 223.355 80.0495 223.499C78.4956 223.84 76.9686 224.325 75.3877 224.541C74.6332 224.649 73.8787 224.766 73.1151 224.837C70.7977 225.062 68.4803 224.99 66.1808 224.604C65.2197 224.442 64.5729 224.02 64.4921 223.409C64.3933 222.7 64.8065 222.26 65.3454 221.945C66.594 221.227 67.9683 220.822 69.3515 220.463C72.5223 219.646 75.6931 219.942 78.8369 220.634C79.0345 220.679 79.2232 220.706 79.5735 220.733C78.5405 220.014 77.6063 219.385 76.6901 218.738C72.6481 215.882 68.624 212.999 64.5729 210.151C63.2435 209.226 61.8513 208.4 60.4949 207.511C60.2614 207.358 60.0997 207.349 59.8572 207.484C57.7284 208.669 55.4468 209.352 53.0036 209.523C50.6682 209.693 48.3418 209.792 46.0513 209.145C45.7998 209.073 45.5483 209.002 45.3147 208.894C44.5602 208.552 43.9225 208.058 43.9225 207.169C43.9225 206.298 44.4973 205.732 45.2339 205.382C46.3657 204.852 47.5873 204.663 48.8179 204.519C49.4107 204.448 50.0035 204.376 50.6053 204.196C49.5185 203.765 48.4406 203.325 47.3537 202.912C44.7039 201.888 42.1619 200.63 39.6469 199.301C39.3954 199.166 39.1888 199.049 38.9822 199.373C38.9193 199.471 38.7396 199.561 38.6139 199.552C37.2845 199.489 35.9821 200.046 34.6167 199.552C32.2723 198.708 30.3052 196.292 30.395 194.091C30.4759 192.223 31.8412 190.597 33.9161 190.399C36.0449 190.193 37.7516 190.893 38.9013 192.69C39.6828 193.902 39.9163 195.295 39.6738 196.732C39.593 197.226 39.6469 197.495 40.1499 197.756C42.7907 199.112 45.4135 200.486 48.2071 201.51C48.3418 201.555 48.4586 201.6 48.6741 201.645C48.2071 201.034 47.6412 200.657 47.1741 200.172C46.4645 199.426 45.7818 198.672 45.3058 197.747C45.0632 197.271 44.9195 196.777 44.9375 196.256C44.9644 195.169 45.7549 194.477 46.9136 194.423C48.1891 194.369 49.3568 194.738 50.4886 195.25C52.7342 196.283 54.6923 197.729 56.4798 199.417C58.1595 200.998 59.7225 202.696 61.1237 204.537C61.465 204.986 61.8153 205.445 61.5818 206.064C61.483 206.334 61.7345 206.379 61.8513 206.46C65.0939 208.418 68.1479 210.654 71.2109 212.873C77.5884 217.49 84.1185 221.864 90.6577 226.239C93.9452 228.439 97.143 230.766 100.287 233.155C100.844 233.577 101.383 234.035 102.002 234.538C102.056 233.874 102.155 233.263 102.155 232.652C102.173 229.796 102.236 226.939 102.137 224.083C102.065 222.053 102.002 220.014 101.679 217.993C101.625 217.643 101.841 217.14 101.499 216.978C101.248 216.852 100.826 217.131 100.484 217.14C99.3706 217.176 98.2478 217.238 97.143 217.149C95.7238 217.032 94.2956 216.96 92.8763 216.708C89.2475 216.062 85.8072 214.912 82.5466 213.196C79.295 211.481 76.3039 209.388 73.4116 207.133C69.5312 204.106 65.8843 200.819 62.498 197.253C60.0638 194.684 57.7014 192.052 55.4019 189.357C52.5545 186.016 49.7969 182.593 47.1202 179.117C46.6082 178.453 46.2489 177.707 45.683 177.069C45.171 176.494 46.1052 175.111 46.9765 175.066C48.1083 174.994 49.1502 175.372 50.1832 175.713C58.9051 178.605 67.079 182.647 74.8128 187.579C77.5973 189.348 80.2112 191.342 82.7532 193.435C86.1665 196.238 89.4181 199.211 92.535 202.328C95.3016 205.094 97.8975 208.005 100.466 210.951C100.511 211.005 100.565 211.059 100.7 211.211C100.691 210.169 100.448 209.28 100.296 208.4C99.658 204.816 98.8945 201.259 98.0143 197.72C97.7628 196.705 97.5202 195.681 97.2687 194.657C97.2418 194.54 97.1969 194.405 97.107 194.333C95.6788 193.273 94.8884 191.666 93.6848 190.408C92.023 188.666 90.496 186.806 88.9061 185.001C88.2504 184.255 87.5588 183.546 86.957 182.755C86.5438 182.216 86.1575 181.92 85.43 182.099C84.0108 182.459 82.5556 182.216 81.1723 181.938C76.4925 181.022 72.172 179.144 68.2287 176.485C64.0969 173.701 60.8632 170.072 58.4829 165.707C55.2492 159.742 52.0695 153.751 48.8897 147.76C48.1083 146.287 47.3717 144.796 46.9585 143.17C46.8058 142.577 46.6531 141.966 46.8507 141.337C47.1292 140.448 47.6861 140.044 48.6023 139.999C50.3718 139.918 51.9707 140.565 53.5695 141.176C58.9051 143.224 63.8723 145.918 68.3725 149.475C70.8696 151.443 73.2858 153.509 75.4326 155.844C79.4118 160.191 82.9868 164.817 85.1425 170.395C86.2384 173.243 87.0378 176.171 87.4959 179.189C87.5049 179.225 87.5318 179.279 87.5229 179.306C86.8492 180.869 88.1426 181.623 88.9151 182.531C91.2775 185.324 93.7117 188.055 96.11 190.812C96.1639 190.857 96.2178 190.902 96.2717 190.956C96.3256 190.857 96.3256 190.776 96.2178 190.714C95.8046 189.097 95.4094 187.48 94.9603 185.872C94.0441 182.584 93.3255 179.252 92.553 175.938C91.7446 172.452 90.7206 169.039 89.5708 165.662C89.1397 164.386 88.6726 163.111 88.2953 161.817C88.1247 161.242 87.8462 160.883 87.3342 160.569C85.9959 159.742 84.7114 158.844 83.4269 157.937C79.6094 155.251 75.8099 152.547 72.0013 149.853C68.4623 147.356 65.049 144.706 61.6447 142.02C58.7074 139.703 55.7612 137.376 52.842 135.023C51.4946 133.936 50.1922 132.777 48.8897 131.628C48.5843 131.358 48.4406 131.385 48.225 131.726C47.4525 132.903 46.6711 134.08 45.6022 135.032C44.174 136.307 42.4763 136.972 40.581 137.215C38.3085 137.502 36.0899 137.098 33.8712 136.712C33.1796 136.586 32.443 136.361 32.3173 135.535C32.1825 134.726 32.7754 134.286 33.4041 133.981C35.6407 132.894 37.8863 131.816 40.1499 130.774C41.3535 130.226 42.5572 129.624 43.8776 129.373C44.5872 129.238 45.2968 129.094 46.0243 129.247C46.0962 129.005 45.8986 128.951 45.7908 128.852C41.3356 124.496 37.1318 119.924 33.467 114.866C33.1796 114.471 32.937 114.013 32.5328 113.708C32.5149 113.636 32.4969 113.573 32.47 113.501C32.3352 113.582 32.4161 113.681 32.461 113.771C33.476 116.429 34.2215 119.169 34.6706 121.971C35.0928 124.612 35.1826 127.253 34.2305 129.831C34.1137 130.154 33.952 130.451 33.7185 130.711C32.8203 131.717 31.7514 131.61 31.0597 130.442C30.2872 129.148 29.928 127.693 29.4968 126.274C28.859 124.181 28.4189 122.034 28.0506 119.879C27.862 118.747 27.6913 117.606 27.7542 116.447C27.35 117.399 27.1165 118.397 26.9278 119.403C26.3889 122.286 26.5326 125.187 26.6404 128.097C26.7123 130.038 26.874 131.978 26.8021 133.927C26.7841 134.511 26.6853 135.095 26.0835 135.337C25.4727 135.589 25.0146 135.256 24.5924 134.825C23.6762 133.882 23.1553 132.714 22.6163 131.547C21.1612 128.385 19.7779 125.196 18.9515 121.801C18.6012 120.373 18.3677 118.926 18.4036 117.355C17.8557 117.831 17.5143 118.379 17.164 118.917C15.3945 121.63 13.095 123.876 10.7955 126.121C9.57392 127.325 8.23555 128.394 6.72651 129.211C6.3762 129.4 6.00792 129.562 5.59474 129.535C4.95699 129.499 4.56176 129.103 4.52584 128.466C4.46296 127.379 4.87615 126.382 5.14562 125.367C5.81031 122.888 6.46603 120.4 7.64271 118.109C9.49308 114.498 12.1608 111.606 15.7089 109.306C14.9094 109.315 14.2447 109.288 13.5801 109.226C11.4063 109.01 9.52003 108.211 7.93913 106.71C5.58575 104.474 3.51083 101.986 1.37303 99.5515C1.12152 99.2641 0.852049 98.9856 0.609525 98.6892C-0.486323 97.3868 -0.100081 96.0484 1.73232 95.716C4.02282 95.3029 6.34925 95.4106 8.67569 95.5454C10.7237 95.6622 12.7267 96.0035 14.7029 96.5155C17.0203 97.1173 19.23 97.9706 21.4486 98.9856C21.4037 98.6353 21.1702 98.4108 21.0264 98.1592C19.3288 95.1681 18.0802 92.0153 17.5503 88.593C17.3167 87.066 17.182 85.5211 17.0562 83.9851C16.8676 81.6317 16.679 79.2783 16.5802 76.9249C16.5622 76.4938 16.652 76.0806 16.7329 75.6674C16.8945 74.85 17.7479 74.4548 18.5653 74.7422C19.2928 74.9937 19.8587 75.4878 20.3977 75.9908C23.9188 79.2963 26.838 83.0509 28.8411 87.4702C29.7932 89.5811 30.413 91.7997 30.7094 94.0992C30.8262 95.0334 30.9519 95.9676 31.0777 96.9826C32.6855 94.0004 35.4791 92.9764 38.4163 92.177C39.0091 92.0153 39.6109 91.8446 40.2397 91.9255C40.9673 92.0243 41.4613 92.6441 41.3266 93.3716C41.0751 94.728 40.3205 95.7789 39.3325 96.6951C38.2995 97.6562 37.1318 98.4467 36 99.282C35.8563 99.3898 35.7306 99.5246 35.5958 99.6413C35.5599 99.6952 35.515 99.7491 35.4791 99.803C35.6407 99.794 35.7306 99.794 35.7755 99.6773ZM100.502 26.8842C100.466 26.8393 100.431 26.7944 100.395 26.7495C100.152 26.1387 99.5952 25.6985 99.4784 25.0159C99.3975 24.5578 99.5682 24.2614 99.9634 24.0997C100.359 23.938 100.7 24.0997 100.889 24.459C101.643 25.8512 102.685 27.0549 103.502 28.4022C103.691 28.7076 103.898 28.9232 104.266 28.9502C104.275 28.9052 104.284 28.8693 104.275 28.8334C104.257 28.7525 104.239 28.6807 104.212 28.5998C103.377 26.1027 102.919 23.5338 102.919 20.893C102.919 19.357 102.829 17.821 103.035 16.294C103.062 16.0874 103.116 15.8629 102.721 15.8898C101.598 15.9796 100.457 15.9796 99.3347 16.0784C98.2029 16.1772 97.0801 16.4018 96.11 17.0485C95.3375 17.5605 94.8704 18.2522 94.8794 19.2492C94.8884 20.7403 95.6788 21.8631 96.5142 22.9679C97.619 24.423 99.0832 25.5369 100.314 26.8752C100.332 26.9112 100.35 26.9291 100.386 26.9471C100.457 27.0189 100.484 27.1896 100.619 27.0818C100.682 27.0369 100.601 26.9112 100.502 26.8842ZM127.503 164.512C127.396 164.539 127.333 164.602 127.333 164.71C127.333 164.728 127.36 164.754 127.369 164.754C127.503 164.772 127.512 164.647 127.566 164.575C127.575 164.521 127.611 164.44 127.602 164.431C127.53 164.395 127.512 164.458 127.503 164.512ZM127.423 90.7219C127.467 90.65 127.521 90.5781 127.566 90.5153C130.611 87.3355 132.417 83.5629 132.938 79.1795C130.8 82.2066 127.943 84.7486 126.785 88.4134C127.234 87.8744 127.647 87.3175 128.078 86.7786C128.375 86.4013 128.761 86.3385 129.147 86.6349C129.524 86.9313 129.461 87.2996 129.228 87.6589C129.147 87.7756 129.066 87.8924 128.994 88.0092C128.5 88.8086 127.881 89.5272 127.494 90.3985C127.396 90.4973 127.216 90.5781 127.431 90.7308C127.405 90.7039 127.369 90.668 127.342 90.641C127.324 90.668 127.306 90.6949 127.288 90.7129C127.324 90.7129 127.378 90.7219 127.423 90.7219ZM121.674 100.135C121.629 100.019 121.557 99.9916 121.449 100.055C121.494 100.108 121.539 100.162 121.584 100.216C121.692 100.297 121.8 100.378 121.907 100.459C122.806 101.321 123.857 101.977 124.943 102.57C127.557 103.998 130.369 104.932 133.261 105.597C133.944 105.758 134.644 105.965 135.534 105.974C132.084 103.674 128.941 101.267 125.913 98.7162C124.449 97.4856 121.746 97.1442 120.111 97.4227C121.198 98.0245 122.276 98.5994 123.318 99.2192C123.865 99.5425 124.476 99.7761 124.961 100.207C125.348 100.54 125.509 100.962 125.186 101.375C124.863 101.797 124.431 101.725 124 101.429C123.398 100.998 122.743 100.647 122.06 100.351C121.961 100.234 121.827 100.171 121.674 100.135ZM117.973 16.5186C118.009 16.4826 118.135 16.5186 118.054 16.4018C118.036 16.4467 118.009 16.4826 117.973 16.5186C118.18 15.7281 117.722 14.8748 116.554 15.1443C117.03 15.6293 117.623 15.9527 117.973 16.5186ZM103.44 45.4867C103.341 45.343 103.161 45.343 103.098 45.4328C103.035 45.5226 103.224 45.5226 103.296 45.5855C103.422 45.6843 103.538 45.7921 103.673 45.8819C105.622 47.2472 107.625 48.5227 109.709 49.6725C112.826 51.4061 116.042 52.8253 119.689 53.0678C122.087 53.2295 124.476 53.2654 126.848 52.7983C127.548 52.6636 128.258 52.5289 128.941 52.0708C128.563 51.8821 128.276 51.7294 127.97 51.5857C125.563 50.436 123.138 49.3132 120.749 48.1365C118.368 46.9598 116.051 45.6484 113.554 44.7052C110.239 43.4567 106.853 42.9087 103.251 43.5914C103.404 43.6812 103.476 43.7531 103.565 43.78C105.452 44.2381 107.248 44.9747 109.116 45.5046C110.904 46.0077 112.638 46.7622 114.533 46.87C115.036 46.8969 115.26 47.2742 115.224 47.7682C115.18 48.3251 114.506 48.6754 113.805 48.5227C111.847 48.0916 109.943 47.4897 108.03 46.8969C106.494 46.4208 105.012 45.819 103.44 45.4867ZM111.721 35.4983C111.667 35.3905 111.587 35.3995 111.488 35.4354C111.524 35.4893 111.56 35.5432 111.596 35.5971C112.512 36.5402 113.491 37.4205 114.551 38.193C116.248 39.4415 117.946 40.726 120.111 41.0584C121.395 41.256 122.644 41.238 123.551 40.0524C123.91 39.5853 124.081 39.0194 124.234 38.4804C124.961 36.0462 125.159 33.5581 124.71 31.043C124.485 29.7855 124.324 29.6598 123.084 29.8125C121.314 30.028 119.635 30.6029 118.027 31.3215C116.419 32.0401 114.775 32.588 113.069 32.9653C112.215 33.1539 111.335 33.1988 110.392 33.5222C112.17 33.8904 113.787 34.4384 115.53 34.2497C116.096 34.1869 116.455 34.8605 116.177 35.3815C115.889 35.9115 115.377 36.0103 114.829 35.9384C113.778 35.8127 112.754 35.651 111.721 35.4983ZM64.546 128.52C64.5011 128.475 64.4472 128.358 64.3843 128.421C64.3124 128.493 64.3484 128.591 64.4382 128.663C64.4921 128.816 64.537 128.969 64.5999 129.112C65.5789 131.187 66.5311 133.271 67.5371 135.328C68.2018 136.694 68.8934 138.068 70.0522 139.101C71.3097 140.215 72.7379 141.068 74.3188 141.634C75.5584 142.074 76.8069 142.559 78.1722 142.254C78.5225 142.182 78.6752 142.101 78.3878 141.733C77.4536 140.547 76.5554 139.343 75.6392 138.14C75.226 137.592 75.217 137.116 75.6122 136.792C76.0434 136.451 76.4925 136.577 76.9327 137.152C77.6243 138.059 78.3159 138.957 79.0884 139.963C79.0525 138.212 78.5764 136.703 77.8578 135.274C76.4296 132.418 74.3188 130.118 71.7229 128.313C69.6659 126.885 67.3125 126.256 64.6897 126.579C66.1179 127.621 67.4113 128.699 68.615 129.894C68.6958 129.975 68.7677 130.074 68.9114 130.074C69.3785 130.074 69.63 130.361 69.6839 130.774C69.7378 131.16 69.5492 131.484 69.2168 131.69C68.8575 131.924 68.4982 131.861 68.1479 131.628C67.7706 131.376 67.4652 131.053 67.1509 130.738C66.3424 129.948 65.5071 129.157 64.546 128.52ZM20.8558 78.6406C20.8019 78.6046 20.748 78.5687 20.6941 78.5238C20.6492 78.6226 20.6582 78.7035 20.7749 78.7484C20.9546 79.2963 21.1432 79.8352 21.3139 80.3832C21.736 81.6946 22.1672 82.997 22.5714 84.3174C22.7421 84.8833 22.5175 85.3504 22.0684 85.4492C21.5205 85.557 21.2779 85.2696 21.1252 84.7665C20.757 83.5449 20.3438 82.3413 19.9306 81.1377C19.5174 79.9071 19.0683 78.6855 18.3587 77.4369C18.3587 78.0118 18.3317 78.4609 18.3677 78.8921C18.5563 81.2814 18.7719 83.6707 18.9605 86.06C19.0593 87.2996 19.23 88.5212 19.5174 89.7338C20.4336 93.5603 22.0325 97.0544 24.5206 100.126C25.4278 101.249 26.3979 102.309 27.6015 103.198C27.6015 103.082 27.6195 103.01 27.6015 102.956C26.5236 99.4527 25.4458 95.9496 24.3679 92.4375C24.0355 91.3416 23.7032 90.2368 23.4247 89.123C23.29 88.5751 23.7391 88.0092 24.2331 87.9822C24.7451 87.9553 25.0595 88.3056 25.0505 88.9344C25.0505 89.123 25.0954 89.2847 25.1493 89.4553C26.2452 93.0213 27.3321 96.5873 28.4099 100.162C28.7064 101.15 28.9579 102.165 29.407 103.109C29.3441 102.228 29.5597 101.366 29.5597 100.495C29.5507 98.9138 29.4788 97.3508 29.3261 95.7789C29.1465 93.9286 28.8231 92.1141 28.2483 90.3446C26.7751 85.8265 24.0804 82.0629 20.8558 78.6406ZM127.566 14.1921C127.611 14.2101 127.683 14.264 127.701 14.255C127.773 14.2011 127.746 14.1203 127.701 14.0574C126.219 12.3148 124.333 11.1651 122.177 10.4914C121.189 10.186 120.138 10.0064 119.132 10.4914C117.874 11.0932 117.353 12.234 116.94 13.4735C118.467 13.5903 119.293 14.1831 119.572 15.4766C119.662 15.8898 119.814 15.9617 120.165 15.9437C122.096 15.8449 123.336 17.291 123.264 19.0336C123.219 20.1115 123.3 20.1564 124.207 20.866C125.033 21.5128 125.401 22.42 125.186 23.426C124.997 24.3332 124.297 24.8272 123.38 24.9261C123.147 24.953 123.138 25.0698 123.111 25.2315C122.913 26.3004 122.509 27.2794 121.826 28.2405C122.428 28.1777 122.913 28.1238 123.407 28.0699C124.827 27.8992 125.581 28.3663 126.066 29.7316C126.425 30.7466 126.623 31.7976 126.551 32.8934C127.288 32.615 127.997 32.3994 128.653 32.094C132.273 30.4322 133.108 28.528 132.848 25.0338C132.713 23.2104 132.021 21.4858 131.231 19.8241C130.728 18.7731 130.216 17.7222 129.542 16.7341C129.219 17.2551 128.932 17.7312 128.635 18.1983C128.384 18.5845 127.881 18.7192 127.521 18.4857C127.09 18.2072 127.009 17.7941 127.261 17.3809C127.557 16.8868 127.845 16.312 128.285 15.9886C128.923 15.5215 128.698 15.2071 128.303 14.8119C128.195 14.7041 128.195 14.4975 127.988 14.4706C127.961 14.749 128.096 15.0365 127.908 15.297C127.503 15.8449 127.099 16.4018 126.677 16.9407C126.399 17.291 126.03 17.3719 125.662 17.1024C125.258 16.815 125.258 16.4108 125.509 16.0335C125.824 15.5664 126.192 15.1353 126.506 14.6592C126.758 14.273 127.09 14.0933 127.566 14.1921ZM105.667 227.245C106.44 226.598 107.212 225.951 107.985 225.314C109.817 223.805 111.658 222.304 113.455 220.733C115.018 219.367 116.626 218.047 118.198 216.69C118.934 216.062 119.725 215.487 120.308 214.696C120.704 214.157 121.135 213.996 121.566 214.283C121.988 214.562 122.042 215.083 121.701 215.622C121.386 216.125 120.955 216.52 120.506 216.897C118.943 218.235 117.38 219.583 115.808 220.912C114.299 222.188 112.79 223.463 111.272 224.739C109.997 225.817 108.712 226.885 107.437 227.963C107.383 228.008 107.266 228.062 107.329 228.125C107.392 228.197 107.509 228.17 107.58 228.071C108.533 227.784 109.413 227.326 110.329 226.957C115.584 224.846 120.147 221.703 124.135 217.705C126.327 215.514 128.455 213.268 130.468 210.906C132.884 208.067 134.932 204.995 136.459 201.591C136.764 200.917 137.079 200.235 137.123 199.39C136.665 199.705 136.261 199.956 135.875 200.244C131.411 203.594 126.902 206.9 122.204 209.936C117.578 212.918 113.239 216.268 109.646 220.499C107.94 222.511 106.548 224.703 105.559 227.146C105.461 227.182 105.443 227.272 105.497 227.326C105.595 227.406 105.622 227.29 105.667 227.245ZM108.928 32.0401C109.107 32.0042 109.278 31.9772 109.458 31.9413C111.676 31.4832 113.769 30.6029 115.97 30.0999C117.668 29.7137 119.024 28.8513 120.156 27.5938C121.449 26.1656 121.835 24.5308 121.198 22.6715C120.677 21.1535 119.563 20.1115 118.449 19.0696C116.455 17.2012 114.425 15.3778 112.395 13.5544C111.146 12.4406 109.736 11.5693 108.164 10.9854C106.853 10.5004 106.027 10.8956 105.479 12.1801C105.434 12.2879 105.398 12.4046 105.353 12.5124C104.76 14.2101 104.607 15.9886 104.526 17.7581C104.41 20.4528 104.482 23.1565 105.11 25.8063C105.452 27.2704 105.883 28.7076 106.637 30.0819C106.952 28.8783 107.23 27.7196 107.428 26.5519C107.518 26.0219 107.94 25.6896 108.389 25.7704C108.892 25.8512 109.098 26.1926 109.009 26.8034C108.865 27.8453 108.551 28.8513 108.326 29.8753C108.317 29.9292 108.29 30.0101 108.308 30.0191C108.38 30.055 108.389 29.9921 108.398 29.9382C109 29.3454 109.619 28.7705 110.212 28.1687C110.446 27.9351 110.706 27.7465 111.012 27.6567C111.38 27.5489 111.739 27.6118 111.955 27.998C112.161 28.3932 112.099 28.7525 111.757 29.022C110.67 29.8933 109.781 30.9712 108.784 31.9323C108.73 31.9772 108.613 32.0221 108.676 32.094C108.739 32.1569 108.856 32.1389 108.928 32.0401ZM102.263 197.055C104.14 194.36 106.206 191.818 108.263 189.276C109.898 187.255 111.488 185.207 113.069 183.15C114.021 181.911 114.964 180.662 115.754 179.315C115.997 178.902 116.356 178.65 116.868 178.893C117.281 179.09 117.443 179.584 117.228 180.087C117.138 180.303 117.003 180.51 116.868 180.707C114.937 183.635 112.727 186.339 110.554 189.088C108.254 191.989 105.856 194.8 103.763 197.854C103.377 198.411 102.928 198.941 102.613 199.705C105.029 198.25 107.086 196.57 109.018 194.738C112.188 191.737 115.189 188.567 117.928 185.144C120.677 181.713 123.273 178.165 125.635 174.455C127.854 170.97 129.758 167.323 130.997 163.362C131.159 162.841 131.285 162.311 131.42 161.781C130.459 163.12 129.614 164.512 128.662 165.814C125.904 169.605 122.788 173.117 120.147 177.006C119.931 177.321 119.617 177.447 119.24 177.24C118.889 177.042 118.701 176.782 118.844 176.342C118.952 175.982 119.159 175.686 119.365 175.399C121.503 172.372 123.857 169.506 126.111 166.56C126.533 166.012 127 165.482 127.342 164.79C126.991 164.844 126.884 165.06 126.731 165.213C125.779 166.147 124.755 167.009 123.704 167.835C120.847 170.081 117.784 172.057 115.027 174.437C113.293 175.929 111.676 177.536 110.311 179.378C107.32 183.42 105.2 187.92 103.422 192.591C102.883 194.019 102.425 195.474 102.173 196.992C102.065 197.028 102.011 197.136 102.092 197.19C102.227 197.271 102.2 197.1 102.263 197.055ZM101.715 166.344C101.778 166.299 101.85 166.264 101.904 166.21C105.541 162.446 109.152 158.664 112.386 154.533C114.533 151.784 116.347 148.847 117.793 145.676C119.491 141.939 120.713 138.059 121.593 134.053C122.006 132.175 122.347 130.289 122.5 128.385C122.626 126.777 122.698 125.151 122.509 123.543C122.437 122.933 122.419 122.286 122.105 121.684C121.503 122.214 121.018 122.789 120.569 123.373C118.225 126.382 115.727 129.265 113.15 132.077C111.272 134.134 109.449 136.244 107.76 138.463C105.308 141.688 103.287 145.155 101.841 148.946C100.107 153.455 99.2179 158.134 99.2359 162.967C99.2448 164.44 99.2448 165.922 99.4514 167.422C99.7119 167.261 99.685 166.991 99.7568 166.776C101.598 161.485 103.583 156.239 106.125 151.236C107.643 148.254 109.233 145.308 110.796 142.352C111.425 141.149 112.036 139.936 112.691 138.751C112.961 138.257 113.509 138.131 113.877 138.418C114.245 138.715 114.326 139.092 114.084 139.55C112.656 142.263 111.299 145.011 109.808 147.697C106.503 153.643 103.88 159.886 101.634 166.29C101.625 166.344 101.598 166.425 101.616 166.434C101.697 166.461 101.706 166.398 101.715 166.344ZM54.3151 119.591C55.1414 118.711 55.7972 117.696 56.4349 116.672C59.2823 112.118 62.8932 108.255 67.0161 104.833C70.6001 101.851 74.5523 99.3539 78.0285 96.228C79.1333 95.24 79.9777 94.1711 80.6603 92.9225C81.0376 92.2399 81.4418 91.5572 81.2711 90.668C81.1544 90.7219 81.1095 90.8386 81.0376 90.9374C80.2112 92.0692 79.1782 93.0213 78.1183 93.9196C75.9087 95.7969 73.5104 97.4137 71.2019 99.1653C70.8875 99.3988 70.5552 99.4258 70.2408 99.2102C69.8905 98.9766 69.8456 98.6084 69.9713 98.2311C70.0611 97.9616 70.2677 97.764 70.5103 97.5934C72.9624 95.9137 75.3697 94.1711 77.6153 92.2219C78.9267 91.0811 80.1573 89.8506 80.8939 88.2337C80.9747 88.0451 81.2891 87.8475 81.0915 87.6678C80.8939 87.4792 80.6514 87.7667 80.4627 87.8655C78.0914 89.141 75.729 90.4344 73.3667 91.7099C72.7828 92.0243 72.3157 91.9435 72.0912 91.5303C71.8576 91.1081 72.0552 90.632 72.5942 90.3356C74.5254 89.2667 76.4656 88.1978 78.4058 87.1289C79.0255 86.7876 79.6453 86.4642 80.328 86.1049C79.5465 85.7636 78.8549 85.4672 78.1632 85.1618C76.78 84.551 75.3697 83.9761 73.8517 83.8503C71.642 83.6617 69.5132 84.0659 67.4652 84.9013C63.5669 86.4822 60.5848 89.1679 58.1236 92.5004C56.0576 95.2939 54.5396 98.3748 53.336 101.617C52.0246 105.139 51.1982 108.758 51.2161 112.54C51.2251 113.51 51.3239 114.48 51.4587 115.432C51.6383 116.708 51.9347 117.956 52.6174 119.133C52.806 118.307 52.9677 117.543 53.1563 116.771C53.345 115.98 53.5426 115.19 53.7671 114.399C56.0127 106.396 60.0368 99.5066 66.5041 94.1621C66.8994 93.8298 67.2856 93.4525 67.7796 93.2639C68.3006 93.0573 68.8126 93.2639 68.9922 93.722C69.1809 94.189 68.9922 94.5483 68.4174 94.7729C68.3186 94.8088 68.2377 94.8537 68.1659 94.9166C67.2946 95.6711 66.3874 96.3807 65.552 97.1802C63.3154 99.318 61.4022 101.725 59.7853 104.375C56.9379 109.046 55.2492 114.13 54.1983 119.447C54.1175 119.519 54.0905 119.6 54.1354 119.699C54.2073 119.672 54.2612 119.627 54.3151 119.591ZM100.224 213.34C100.26 213.412 100.314 213.457 100.386 213.394C100.404 213.385 100.359 213.304 100.341 213.259C98.2029 210.699 95.9932 208.193 93.7027 205.777C90.4331 202.346 87.0109 199.076 83.391 196.004C79.9956 193.112 76.4746 190.39 72.657 188.064C66.3514 184.21 59.8213 180.833 52.8599 178.318C52.2132 178.084 51.5844 177.761 50.758 177.644C52.7252 179.189 54.6205 180.608 56.5876 181.92C59.8392 184.076 63.1357 186.168 66.3245 188.423C67.5551 189.294 68.6958 190.282 69.8186 191.297C70.124 191.576 70.4115 191.917 70.0342 192.339C69.6839 192.735 69.3426 192.501 69.0192 192.258C68.4982 191.872 67.9772 191.495 67.4652 191.1C64.7166 188.953 61.7165 187.156 58.8062 185.243C56.1385 183.483 53.4348 181.785 50.9377 179.791C50.2101 179.216 49.4466 178.695 48.6921 178.156C48.9256 178.659 49.2221 179.081 49.5454 179.486C51.9347 182.477 54.3151 185.477 56.8122 188.378C59.1745 191.127 61.5818 193.821 64.0879 196.444C67.9593 200.495 72.172 204.178 76.6991 207.484C80.3819 210.169 84.2443 212.532 88.6277 213.915C90.8284 214.607 93.074 215.128 95.3914 215.316C96.3615 215.397 97.3226 215.352 98.2927 215.496C98.9215 215.586 99.5862 215.631 100.269 215.361C100.152 215.289 100.08 215.253 100.017 215.217C97.8526 213.987 95.8854 212.433 93.7476 211.175C89.6247 208.759 85.7893 205.948 82.0436 203.001C81.325 202.435 80.6783 201.699 79.6723 201.564C79.1962 201.501 78.9447 201.133 79.0345 200.639C79.1333 200.136 79.6004 199.884 80.1573 199.965C80.8759 200.073 81.4508 200.432 82.0167 200.864C84.4868 202.759 86.8941 204.744 89.472 206.487C91.6907 207.987 93.9902 209.361 96.2447 210.807C97.5741 211.624 98.8137 212.612 100.224 213.34ZM85.7623 178.821C85.6635 178.147 85.6276 177.563 85.4928 177.006C84.8371 174.213 83.9658 171.5 82.7712 168.886C81.1095 165.257 78.7291 162.105 76.2141 159.06C73.3667 155.619 70.0522 152.664 66.4862 149.978C62.2195 146.772 57.5397 144.32 52.5545 142.451C51.809 142.173 51.0545 141.903 50.2461 141.805C50.291 141.921 50.3628 141.975 50.4347 142.047C52.6803 144.365 55.3211 146.188 57.899 148.092C59.4709 149.251 61.0069 150.464 62.4351 151.802C62.7765 152.125 62.8932 152.476 62.6238 152.871C62.3273 153.293 61.9052 153.302 61.501 153.05C61.2315 152.88 60.98 152.664 60.7554 152.44C59.4799 151.227 58.0517 150.203 56.6415 149.161C54.1983 147.356 51.6832 145.631 49.5364 143.457C49.2849 143.197 49.0245 142.927 48.6292 142.721C48.7999 143.457 49.0604 144.086 49.3299 144.697C50.5515 147.463 52.0964 150.068 53.5246 152.727C55.7612 156.904 57.9619 161.099 60.2344 165.257C62.1746 168.806 64.8334 171.752 68.0222 174.231C70.2947 176 72.8277 177.276 75.4506 178.399C78.1453 179.557 80.9118 180.366 83.8491 180.572C84.2353 180.599 84.6575 180.68 85.0437 180.438C83.7503 178.965 82.4658 177.518 81.1993 176.054C79.4028 173.979 77.5524 171.94 75.8278 169.803C73.5912 167.027 71.3097 164.296 68.6868 161.88C67.6359 160.91 66.7377 159.76 65.4442 159.069C64.9861 158.826 64.9771 158.251 65.3364 157.874C65.7586 157.434 66.3335 157.488 66.9353 158.036C67.7617 158.781 68.5701 159.545 69.3875 160.299C71.2648 162.06 73.0702 163.892 74.696 165.886C75.8817 167.341 77.0674 168.797 78.28 170.225C79.9507 172.192 81.6484 174.15 83.3461 176.099C84.1185 176.988 84.918 177.869 85.7623 178.821ZM63.8364 42.0554C65.2376 44.4807 66.2706 46.9418 67.4742 49.3132C67.8784 50.1036 68.2916 50.903 68.6868 51.6935C68.8934 52.1067 68.8395 52.4929 68.4533 52.7714C68.0581 53.0498 67.6808 52.9241 67.3754 52.5917C67.2317 52.439 67.1239 52.2324 67.0251 52.0348C66.1628 50.2563 65.3185 48.4778 64.4562 46.7083C63.8992 45.5765 63.3962 44.4088 62.6507 43.2411C62.6507 43.6633 62.6238 43.9687 62.6507 44.2561C62.8393 46.1963 63.1088 48.1365 63.2256 50.0856C63.3783 52.6905 63.4771 55.3044 63.495 57.9183C63.513 60.5411 63.5849 63.164 63.9621 65.7689C64.4921 69.3977 66.1448 72.4787 68.5341 75.1734C71.9385 79.0089 76.1692 81.7664 80.7322 84.0659C80.7591 83.7964 81.0735 83.5809 80.8759 83.2126C79.7262 81.0029 78.792 78.7035 77.8848 76.386C77.7141 75.9459 77.4896 75.7123 77.0045 75.6584C76.6542 75.6225 76.3308 75.4249 76.0524 75.1734C75.0104 74.2482 74.6332 73.0356 74.705 71.7152C74.7499 70.763 75.1901 69.9457 76.1422 69.5325C77.0045 69.1552 77.795 69.3798 78.5225 69.8648C79.9507 70.8169 80.337 73.4308 79.286 74.7692C79.1603 74.9309 79.0615 75.0476 79.1603 75.2902C80.0316 77.4639 80.8759 79.6466 81.9089 81.7395C81.9628 81.8563 81.9628 82.1886 82.2412 82.009C82.4748 81.8563 82.9329 82 82.9419 81.5688C82.9508 80.8592 83.0676 80.1496 83.0407 79.458C83.0047 78.4609 82.7981 77.4639 82.7173 76.4579C82.5826 74.7333 82.3311 73.0266 81.9538 71.3559C80.8759 66.5862 79.1333 62.0591 76.8338 57.7566C74.1302 52.7085 70.9324 48.0107 66.7916 44.0046C65.9742 43.2231 65.067 42.4956 63.8364 42.0554ZM50.5515 1.63479C49.4736 1.49107 49.2041 1.75156 49.3927 2.78453C49.4376 3.01807 49.5275 3.24263 49.5993 3.46719C50.2191 5.46128 51.1533 7.32063 51.9886 9.22489C53.4258 12.4945 54.9708 15.7281 56.1564 19.1055C57.1176 21.8541 57.7643 24.7105 58.8691 27.4052C59.6865 29.3993 60.8632 31.0969 62.6597 32.3275C64.6987 33.7288 66.9712 34.627 69.2976 35.4085C70.0252 35.651 70.7438 35.9294 71.5702 36.0283C71.5253 35.8935 71.4983 35.8217 71.4714 35.7498C70.4743 33.7018 69.4773 31.6538 68.4713 29.6148C67.9952 28.6448 67.4652 27.7016 66.9892 26.7405C66.7377 26.2285 66.8994 25.7434 67.3305 25.5638C67.7617 25.3842 68.1749 25.5728 68.4084 26.0488C70.0522 29.3633 71.7678 32.6329 73.2948 36.0013C73.3487 36.1181 73.3397 36.3516 73.5733 36.3067C73.7798 35.148 73.9325 33.9893 73.9595 32.8215C74.0044 31.1688 73.8248 29.525 73.6182 27.8813C73.4205 26.3363 73.178 24.8093 72.7828 23.3002C71.6151 18.863 69.3336 15.0275 66.3065 11.6411C63.0908 8.03921 59.3003 5.14689 54.9259 3.06299C53.6773 2.47015 52.3928 1.94019 50.9916 1.7336C52.1323 2.42524 53.1384 3.29653 54.1085 4.19476C56.6864 6.59305 59.0039 9.2159 60.8991 12.198C61.2495 12.755 61.6896 13.258 61.8603 13.9137C61.977 14.3808 61.7794 14.7131 61.3662 14.8928C60.9261 15.0814 60.5848 14.9107 60.3602 14.4885C60.2344 14.237 60.1356 13.9766 59.9829 13.743C58.9051 12.0184 57.7373 10.3567 56.399 8.82966C54.6115 6.79067 52.7252 4.84149 50.4796 3.28754C49.6263 2.70369 49.6532 2.14678 50.5515 1.63479ZM51.6743 60.9633C51.3239 60.4513 51.0365 60.0471 50.758 59.6339C47.6771 55.0259 44.7399 50.3282 41.8925 45.5765C41.4703 44.8759 41.0661 44.1483 40.5541 43.5195C40.3026 43.2141 39.9882 43.0075 40.114 42.5674C40.2128 42.2261 40.4373 42.0285 40.7966 41.9656C41.2457 41.8937 41.5871 42.0824 41.8386 42.4327C42.0092 42.6752 42.1619 42.9357 42.3146 43.1962C45.3596 48.2083 48.3777 53.2295 51.6473 58.0979C51.8449 58.3943 52.0605 58.6099 52.4288 58.7267C52.4557 57.7656 52.294 56.8314 52.2042 55.8972C51.9886 53.6067 51.4946 51.3611 50.794 49.1874C48.8628 43.1962 45.9435 37.7618 41.605 33.127C38.9373 30.2706 35.9551 27.8274 32.452 26.0758C32.2993 26.0039 32.1646 25.8333 31.94 25.968C31.9849 26.0399 32.0119 26.1117 32.0658 26.1746C34.5718 29.1298 36.6288 32.3455 37.9492 36.0103C38.057 36.3157 38.1558 36.6121 38.075 36.9445C37.9582 37.4115 37.5989 37.5732 37.1947 37.3037C36.9881 37.169 36.8623 36.9714 36.7635 36.7379C36.4581 36.0462 36.1527 35.3546 35.8383 34.6629C34.6167 32.0042 32.9281 29.6508 31.0867 27.4142C30.4579 26.6507 29.7214 25.995 28.7602 25.3842C28.9129 26.0039 28.9938 26.498 29.1465 26.974C30.5567 31.3484 31.9759 35.7229 33.3862 40.1062C34.464 43.4477 35.5329 46.7981 37.1138 49.9419C38.9193 53.5169 41.4074 56.526 44.8387 58.6907C46.8956 59.9842 49.2041 60.5232 51.6743 60.9633ZM85.43 87.569C85.5467 87.6409 85.6815 87.7038 85.7893 87.7936C86.8761 88.6649 87.963 89.5272 89.0319 90.4165C90.7655 91.8626 92.5709 93.2279 94.2327 94.7639C94.7267 95.222 95.1668 95.7969 95.9124 96.0035C96.4244 96.1472 96.4603 96.8658 96.0561 97.27C95.6339 97.6922 95.1309 97.6922 94.601 97.2341C93.7836 96.5155 92.9931 95.752 92.1578 95.0513C90.002 93.2639 87.8193 91.5213 85.6725 89.7158C85.2593 89.3745 84.7204 89.1679 84.4599 88.6469C84.388 88.5032 84.4329 88.2158 84.1365 88.3954C83.894 88.5391 83.4628 88.3595 83.4359 88.8805C83.4089 89.3745 83.2922 89.8685 83.2113 90.3626C83.1395 90.7937 82.9329 91.2338 82.9868 91.647C83.2113 93.3178 83.8042 94.8717 84.6755 96.3268C86.1665 98.8239 88.3313 100.656 90.6487 102.327C93.2356 104.204 95.8405 106.064 98.2388 108.184C100.862 110.519 103.134 113.187 105.452 115.81C105.946 116.366 106.422 116.95 107.176 117.426C106.961 116.627 106.853 115.953 106.583 115.307C105.847 113.546 105.326 111.714 104.419 110.016C102.712 106.809 100.799 103.737 98.3825 101.007C97.9693 100.549 97.9514 100.028 98.3017 99.7132C98.643 99.3988 99.146 99.5066 99.5592 99.9737C100.628 101.186 101.634 102.435 102.559 103.755C105.371 107.77 107.329 112.19 108.892 116.905C109.449 115.98 109.691 115.073 109.718 114.139C109.772 112.666 109.763 111.202 109.512 109.729C109.054 107.07 108.254 104.519 106.997 102.138C104.562 97.5305 100.889 94.1262 96.4423 91.4764C93.4153 89.6709 90.1727 88.3505 86.8851 87.1109C85.9689 86.7786 85.9689 86.7786 85.43 87.569ZM86.3192 83.536C88.2325 82.503 90.1547 81.4431 92.0949 80.4191C93.9812 79.4131 95.8585 78.3981 97.5202 77.0238C99.8287 75.1285 101.526 72.7481 102.892 70.1253C104.473 67.0982 105.443 63.8736 105.748 60.4513C105.937 58.3225 105.901 56.2206 105.443 54.1277C105.317 54.1277 105.272 54.1726 105.245 54.2624C104.23 56.8494 102.847 59.2297 101.347 61.5561C100.925 62.2118 100.457 62.8406 99.9994 63.4694C99.7748 63.7748 99.4604 63.8826 99.0921 63.7568C98.7688 63.649 98.6071 63.4065 98.5622 63.0831C98.5083 62.7238 98.7418 62.4813 98.9215 62.2208C100.951 59.3105 102.811 56.2925 104.023 52.9331C104.131 52.6366 104.509 52.1965 104.275 52.0528C103.952 51.8462 103.547 52.2145 103.233 52.448C101.706 53.5798 100.305 54.8463 98.8586 56.0769C96.8466 57.7925 94.8435 59.5261 92.8584 61.2777C91.2775 62.6699 89.8223 64.1969 88.5289 65.8587C86.5438 68.4186 85.7623 71.4547 85.2773 74.5895C85.0886 75.8201 84.918 77.0507 84.8102 78.2813C84.7383 79.1705 84.7922 80.0688 84.7922 81.0658C86.1575 78.8112 87.451 76.6555 88.7534 74.5087C88.969 74.1494 89.1127 73.7901 89.0319 73.3769C88.7984 72.0835 89.2565 70.9607 90.002 69.9636C90.9541 68.6971 92.7147 68.2749 93.8105 69.4606C94.8974 70.6463 94.8255 72.4877 93.7566 73.6733C93.0021 74.5177 91.9781 74.6883 90.9002 74.7063C90.7206 74.7063 90.523 74.5806 90.3433 74.886C88.987 77.1944 87.6217 79.4939 86.1935 81.7575C85.7803 82.476 85.6096 83.015 86.3192 83.536ZM35.8024 84.2546C37.0061 83.9132 38.0929 83.6078 39.1798 83.3024C42.2338 82.4311 45.3237 81.7485 48.4855 81.4251C50.0484 81.2634 51.6293 81.2544 53.2013 81.1556C54.1893 81.0928 55.1774 81.0029 56.1564 80.9401C57.0457 80.8862 57.935 80.8233 58.8152 80.7963C59.3003 80.7874 59.6416 81.0748 59.6775 81.5509C59.7135 82.0359 59.426 82.2964 58.923 82.3952C58.3931 82.503 57.8721 82.4581 57.3511 82.494C54.7283 82.6557 52.1054 82.8174 49.4826 82.9701C48.2789 83.0419 47.0753 83.1677 45.8896 83.3743C43.4554 83.7965 41.0571 84.3983 38.6768 85.045C37.7875 85.2875 36.8803 85.5031 35.9731 85.9612C38.2277 86.59 40.4373 86.9133 42.6649 87.1109C43.8506 87.2187 45.0363 87.2906 46.2309 87.3804C48.6652 87.5601 51.0904 87.5241 53.5246 87.4343C55.6085 87.3535 57.6745 87.093 59.7404 86.7606C60.7824 86.59 61.7435 86.4193 62.5968 85.6827C63.4411 84.9552 64.4472 84.4342 65.4622 83.9402C68.1299 82.6467 70.9324 81.9551 74.0493 82.1437C71.687 80.4999 69.6569 78.6585 67.2676 77.2573C63.8903 75.2902 60.2524 74.4458 56.4349 74.2213C54.5217 74.1135 52.6084 74.2123 50.7131 74.5626C48.4406 74.9848 46.2669 75.6494 44.2369 76.7543C40.8774 78.5867 38.2366 81.2095 35.8024 84.2546ZM88.9241 86.06C88.987 86.1229 88.996 86.1409 89.0139 86.1498C92.4632 87.4972 95.8585 88.9793 98.9305 91.0901C99.0203 91.153 99.155 91.2159 99.2628 91.1979C100.673 91.0183 102.083 91.1979 103.493 91.0542C105.083 90.8925 106.655 90.668 108.191 90.2099C111.676 89.1589 114.919 87.596 117.919 85.539C119.114 84.7216 120.21 83.7785 121.198 82.6198C121.027 82.6377 120.919 82.6287 120.829 82.6557C118.225 83.4012 115.53 83.7246 112.907 84.3713C112.467 84.4791 112.144 84.2995 112 83.8773C111.856 83.4461 112.063 83.1318 112.449 82.9341C112.62 82.8443 112.826 82.8084 113.015 82.7545C114.703 82.2784 116.437 82.0269 118.144 81.6497C118.952 81.479 119.77 81.3263 120.686 80.994C118.036 80.3382 115.584 79.5208 113.141 78.7124C109.368 77.4639 105.55 76.5297 101.526 77.0327C100.547 77.1585 99.5862 77.2303 98.8586 78.0747C98.4724 78.5238 97.9334 78.8472 97.4484 79.2065C95.2567 80.8143 92.7506 81.9012 90.3972 83.2395C89.7056 83.6348 89.0049 84.012 88.3133 84.3983C89.4181 84.3623 90.4691 84.1737 91.529 84.1108C94.583 83.9581 97.628 83.8503 100.682 83.7336C102.056 83.6797 103.44 83.7066 104.805 83.5899C106.107 83.4821 107.428 83.4551 108.73 83.2755C109.359 83.1856 110.006 83.0509 110.661 83.1228C111.155 83.1767 111.515 83.4102 111.542 83.9402C111.569 84.4611 111.209 84.7306 110.751 84.7665C109.009 84.9282 107.266 85.0809 105.524 85.1708C103.197 85.2875 100.871 85.3414 98.5442 85.4312C96.2627 85.5121 93.9722 85.548 91.6907 85.7007C90.7924 85.7456 89.8493 85.7366 88.9241 86.06ZM87.0917 101.707C87.4869 103.504 87.6576 105.318 87.8193 107.133C87.9989 109.145 88.0618 111.166 88.1516 113.187C88.2235 114.714 87.2264 115.378 85.8611 114.723C85.3581 114.48 84.9 114.157 84.4778 113.771C83.0946 112.477 82.1155 110.896 81.2622 109.234C80.1933 107.16 79.5286 104.941 79.0974 102.65C79.0435 112.477 80.0495 122.187 82.358 131.753C84.2263 128.403 86.2204 125.178 88.475 122.124C90.487 119.394 92.4991 116.681 94.8525 114.238C96.0292 113.016 97.2957 111.902 98.6969 110.941C95.2477 107.312 90.9631 104.797 87.0917 101.707ZM149.717 89.5901C150.265 90.0572 150.822 90.3626 151.378 90.65C152.941 91.4494 154.621 91.7997 156.355 92.0153C158.07 92.2309 159.768 92.2758 161.457 91.9524C164.214 91.4315 166.675 90.1919 169.038 88.7278C169.244 88.593 169.397 88.4673 169.451 88.1888C169.514 87.8295 169.774 87.6409 170.152 87.6409C170.313 87.6409 170.466 87.6589 170.61 87.5331C172.056 86.2935 173.394 84.9552 174.517 83.4012C174.742 83.0958 174.679 83.033 174.319 82.9701C172.855 82.7096 171.4 82.3952 169.972 81.9371C167.798 81.2365 165.589 80.6975 163.307 80.5808C161.169 80.464 159.058 80.7694 157.028 81.4251C154.684 82.1796 152.429 83.1587 150.678 84.9821C149.771 85.9343 149.007 86.9942 148.693 88.3146C150.642 87.6319 152.6 87.1289 154.576 86.6439C154.971 86.5451 155.349 86.4912 155.762 86.6349C156.22 86.7966 156.516 87.066 156.427 87.5601C156.337 88.0451 155.95 88.2697 155.483 88.2068C155.214 88.1709 154.953 88.1798 154.72 88.2427C153.058 88.6649 151.423 89.123 149.717 89.5901ZM84.4689 45.1543C84.882 45.4058 85.1246 45.6484 85.1605 46.0077C85.2773 47.1305 85.412 48.2532 85.412 49.376C85.412 50.0228 85.412 50.6695 85.4569 51.3162C85.6186 53.7055 85.4928 56.0948 85.5288 58.4842C85.5378 58.8524 85.3312 59.1039 84.9898 59.2117C84.6216 59.3285 84.3162 59.1938 84.0736 58.9063C83.9299 58.7357 83.9389 58.5291 83.9389 58.3315C84.0287 55.3763 83.8491 52.4211 83.8042 49.4659C83.7862 48.4509 83.7592 47.4089 83.5167 46.2771C83.2023 46.9149 82.9239 47.4448 82.6814 47.9838C81.3969 50.8132 80.2651 53.6876 79.9238 56.8134C79.7621 58.2506 79.4297 59.7058 80.301 61.0621C80.4627 61.3136 80.5615 61.601 80.6693 61.8705C81.1184 63.0113 81.5945 64.143 81.9987 65.3018C82.3939 66.4425 82.7532 67.6013 83.0676 68.769C83.391 69.9367 83.6874 71.1134 83.9658 72.3439C84.8102 67.1881 87.9001 63.4694 91.6817 60.1369C91.1787 59.9393 90.9092 59.598 90.9182 59.1129C90.9541 57.2715 90.487 55.511 90.0379 53.7505C89.3463 51.0378 88.2953 48.4688 86.4809 46.2861C85.9869 45.7292 85.5018 45.0825 84.4689 45.1543ZM1.80418 97.2969C2.05569 97.8449 2.45091 98.1503 2.76529 98.5096C4.83124 100.836 6.8343 103.234 9.07989 105.399C9.86136 106.154 10.7686 106.719 11.8015 107.097C14.119 107.923 16.4364 107.546 18.7449 107.151C20.3168 106.881 21.8798 106.531 23.4696 106.369C24.8709 106.234 26.2811 106.18 27.7273 106.082C27.6554 106.037 27.6195 106.01 27.5656 105.992C25.7871 105.489 24.0176 104.95 22.1582 104.842C21.7181 104.815 21.3229 104.68 21.3229 104.159C21.3229 103.665 21.6283 103.468 22.1133 103.45C23.308 103.405 24.4577 103.719 25.7961 103.962C22.4546 100.746 18.4575 99.1653 14.2537 98.0335C10.1668 96.9287 6.02589 96.7939 1.80418 97.2969ZM103.467 3.89835C102.748 3.98817 102.146 4.06003 101.553 4.14087C101.257 4.18578 101.113 4.26662 101.347 4.59897C101.67 5.06605 101.984 5.52415 102.344 5.95531C102.721 6.41341 102.64 7.01522 102.227 7.29368C101.823 7.56315 101.472 7.40147 101.077 6.90744C100.583 6.29664 100.125 5.66787 99.7479 4.97623C99.6221 4.74269 99.4963 4.79658 99.3526 4.86844C98.1939 5.44331 97.1879 6.20681 96.3795 7.27571C97.2508 7.75178 97.9424 8.48833 98.9484 8.71289C99.1999 8.76678 99.3616 9.02727 99.3796 9.31471C99.3975 9.65604 99.2538 9.90754 98.9664 10.0692C98.5083 10.3297 98.0681 10.2309 97.655 9.96144C96.9454 9.49436 96.2537 9.01829 95.5441 8.53324C94.9692 9.64706 94.7626 10.8237 94.6728 12.0184C94.6189 12.6382 94.6549 13.3747 95.2387 13.7161C96.1639 14.255 97.0801 15.0814 98.3107 14.4796C98.3646 14.4526 98.4274 14.4796 98.4903 14.4706C99.9544 14.3089 101.428 14.2011 102.901 14.2191C103.152 14.2191 103.26 14.1921 103.314 13.8867C103.502 12.8538 103.763 11.8298 104.275 10.8956C104.967 9.62909 106.278 9.01829 107.688 9.20692C108.721 9.35064 109.628 9.79077 110.527 10.2668C110.751 10.3836 110.877 10.4375 111.137 10.2399C112.323 9.34166 114.245 9.46741 115.036 11.1561C115.206 11.5244 115.117 11.9376 115.35 12.2879C115.934 11.6771 116.168 10.9315 116.257 10.1591C116.383 9.05422 116.437 7.94041 116.006 6.88947C115.368 5.31756 113.949 4.95826 112.476 4.7337C110.913 4.49118 109.359 4.22171 107.787 4.04206C106.718 3.91631 105.64 3.92529 104.491 3.8714C104.94 4.46423 105.119 5.08402 105.371 5.66787C105.622 6.25172 105.532 6.67389 105.119 6.87151C104.697 7.06912 104.185 6.86252 103.925 6.33257C103.727 5.94632 103.61 5.51517 103.413 5.12893C103.206 4.7337 103.125 4.34746 103.467 3.89835ZM91.9242 140.79C93.2087 138.05 94.4842 135.364 95.7417 132.661C95.9393 132.238 96.1908 131.996 96.6669 132.05C97.0711 132.095 97.2418 132.409 97.3136 132.759C97.3765 133.092 97.1969 133.379 97.0621 133.667C96.5681 134.726 96.0561 135.786 95.5531 136.846C94.7986 138.418 94.053 139.99 93.2446 141.688C95.113 140.529 96.5771 139.128 97.8256 137.52C100.934 133.505 102.748 129.014 102.568 123.849C102.541 123.112 102.434 122.376 102.164 121.684C101.895 120.983 101.697 120.921 101.05 121.325C98.4993 122.933 96.1729 124.81 94.1159 127.02C91.9242 129.382 90.9541 132.229 90.9092 135.373C90.8823 137.197 91.2326 139.011 91.9242 140.79ZM23.5235 108.058C22.9576 108.058 22.4636 107.995 22.2121 108.435C21.9875 108.821 21.7001 108.911 21.3139 108.902C20.6043 108.884 19.9126 109.055 19.2569 109.297C15.9424 110.492 13.4274 112.72 11.2357 115.405C8.35232 118.944 7.40917 123.256 6.25943 127.612C7.61577 126.795 8.73856 125.879 9.78052 124.864C11.8105 122.888 13.8495 120.93 15.4484 118.576C16.3107 117.31 17.2179 116.079 18.4485 115.136C18.7898 114.875 18.9605 114.534 19.0862 114.139C19.8587 111.642 21.3049 109.639 23.5235 108.058ZM28.1674 108.148C26.9368 108.246 25.8769 108.543 24.9158 109.127C20.9276 111.525 19.5443 116.007 20.3617 120.22C20.9097 123.076 21.9426 125.78 23.1103 128.421C23.7661 129.903 24.3679 131.421 25.1583 132.705C25.1583 131.511 25.1942 130.226 25.1493 128.942C25.0505 126.301 24.8888 123.669 25.1583 121.019C25.4008 118.702 25.9757 116.474 26.7931 114.301C27.2332 113.133 27.6464 111.965 27.9967 110.708C27.6105 110.941 27.4488 111.282 27.2153 111.552C25.9667 112.953 25.1493 114.615 24.4487 116.331C24.1882 116.959 23.8918 117.229 23.3618 117.058C22.9037 116.905 22.6343 116.349 22.8678 115.828C23.5235 114.336 24.1972 112.845 25.1763 111.525C26.0476 110.348 27.0716 109.288 28.1674 108.148ZM145.504 85.7546C145.657 84.9282 145.836 84.021 146.232 83.1587C147.723 79.8891 150.175 77.428 152.87 75.1554C152.986 75.0566 153.184 75.0386 153.148 74.8141C152.959 73.6284 153.184 72.4248 153.058 71.2481C152.905 69.784 152.618 68.3378 151.899 67.0174C151.423 66.1461 151.136 66.1102 150.462 66.7928C150.31 66.9455 150.157 67.1072 150.022 67.2869C148.217 69.6941 146.842 72.3439 145.827 75.1644C144.803 78.0388 143.959 80.958 144.049 84.0569C144.058 84.3893 144.139 84.5869 144.426 84.7845C144.812 85.063 145.145 85.4312 145.504 85.7546ZM148.989 173.162C149.133 173.153 149.277 173.162 149.411 173.135C152.259 172.56 154.81 171.374 157.01 169.461C158.484 168.177 159.804 166.784 159.975 164.692C160.037 163.928 160.046 163.156 159.831 162.41C159.66 161.835 159.283 161.665 158.69 161.79C158.16 161.907 157.657 162.096 157.181 162.347C155.43 163.299 153.705 164.314 151.935 165.24C150.229 166.138 149.016 167.449 148.28 169.219C147.875 170.198 147.507 171.186 147.336 172.327C147.687 172.039 147.947 171.824 148.217 171.608C149.205 170.782 150.193 169.955 151.19 169.129C151.711 168.698 152.124 168.671 152.483 169.03C152.879 169.434 152.744 170.108 152.187 170.476C151.019 171.249 150.058 172.246 148.989 173.162ZM155.43 98.5365C156.22 99.803 156.983 100.926 157.495 102.183C157.594 102.435 157.81 102.399 157.998 102.435C160.064 102.83 162.157 102.974 164.241 103.046C166.684 103.126 169.146 103.118 171.589 102.956C172.029 102.929 172.128 102.713 172.029 102.372C171.885 101.878 171.706 101.384 171.499 100.917C170.843 99.4168 169.711 98.2221 168.822 96.8748C168.705 96.6861 168.553 96.758 168.4 96.74C167.556 96.6682 166.729 96.9197 165.849 96.8748C165.885 96.9646 165.903 97.0185 165.93 97.0724C166.469 98.0784 166.101 98.6982 164.969 98.8329C164.403 98.8958 163.837 98.9048 163.28 98.9677C161.421 99.1653 159.57 99.0934 157.729 98.8419C157.001 98.7341 156.265 98.6443 155.43 98.5365ZM158.07 108.758C157.989 108.543 157.954 108.462 157.927 108.363C157.118 105.219 155.95 102.237 154.118 99.5335C153.804 99.0665 153.301 98.7251 153.139 98.1952C153.049 97.9167 152.914 97.8179 152.69 97.7371C150.884 97.0544 149.465 95.9047 148.441 94.2609C148.01 93.5693 147.543 92.9046 147.067 92.168C146.717 93.0842 146.294 93.8747 145.908 94.6741C145.693 95.1232 145.235 95.5723 145.818 96.0753C145.854 96.1113 145.863 96.1831 145.872 96.246C145.899 96.9915 146.267 97.6203 146.618 98.2401C148.289 101.186 150.489 103.674 153.211 105.677C154.72 106.818 156.292 107.851 158.07 108.758ZM92.9302 45.9268C92.9931 45.2801 92.8584 44.7501 92.7506 44.2291C92.6159 43.6094 92.4182 43.0075 92.2566 42.3878C92.0859 41.759 92.4093 41.1123 92.9213 41.0224C93.4243 40.9416 93.7925 41.3278 93.9183 42.0105C94.0081 42.4956 94.1698 42.9626 94.2866 43.4477C94.5471 44.5615 94.6638 45.7023 94.8884 46.8251C95.2746 43.0614 94.7896 39.4056 93.577 35.8127C92.3733 32.2557 90.7206 28.9681 87.9899 26.2465C87.7744 30.2795 90.1727 39.8008 92.9302 45.9268ZM32.7394 106.351C34.6527 106.405 36.521 106.288 38.3714 105.938C40.9313 105.453 43.1949 104.303 45.3686 102.92C45.8986 102.588 46.4106 102.237 46.8597 101.806C47.0394 101.635 47.2459 101.492 46.7699 101.339C45.5842 100.962 44.3626 100.719 43.132 100.656C41.6859 100.584 40.2307 100.549 38.7756 100.737C36.3593 101.052 34.2125 101.959 32.3622 103.531C31.7604 104.043 31.3112 104.725 30.9969 105.588C32.4789 104.671 33.997 104.106 35.488 103.513C36.1527 103.252 36.6917 103.432 36.8534 103.935C37.024 104.465 36.7545 104.743 36.018 105.013C34.9132 105.426 33.8353 105.902 32.7394 106.351ZM151.244 82.2964C151.441 82.2156 151.495 82.2066 151.54 82.1796C153.498 80.949 155.591 80.0418 157.846 79.5388C158.286 79.44 158.528 79.1705 158.735 78.8202C159.579 77.428 159.876 75.8381 160.379 74.329C160.514 73.9338 160.612 73.4667 160.307 73.1883C160.011 72.9278 159.588 73.1883 159.247 73.332C154.513 75.2812 150.84 78.4789 148.172 82.8264C147.274 84.2905 146.923 85.9073 147.139 87.8026C147.615 86.1858 148.459 84.9911 149.465 83.8953C149.726 83.6168 149.771 83.4731 149.492 83.1946C149.33 83.024 149.286 82.7365 149.384 82.503C149.896 81.3173 150.606 80.2574 151.405 79.2514C151.666 78.928 152.097 78.8741 152.438 79.1795C152.798 79.5029 152.762 79.8801 152.51 80.2664C152.124 80.9041 151.729 81.5329 151.244 82.2964ZM86.4629 113.133C86.5977 112.432 86.409 111.777 86.3911 111.121C86.3192 108.381 86.1486 105.651 85.6545 102.956C85.2234 100.593 84.1455 98.5185 82.852 96.3897C82.87 96.767 82.87 97.0005 82.9149 97.243C83.2473 98.8239 83.5616 100.414 83.8581 101.995C83.9658 102.561 83.7323 102.92 83.2473 102.992C82.7083 103.073 82.4748 102.722 82.376 102.282C82.1604 101.348 81.9538 100.414 81.7652 99.4797C81.5047 98.1772 81.2622 96.8658 81.0106 95.5454C80.2561 96.1741 80.0765 96.5424 80.1932 97.4586C80.3998 98.9677 80.5256 100.486 80.7681 101.995C81.2262 104.905 82.1604 107.627 83.7233 110.124C84.4329 111.282 85.2324 112.387 86.4629 113.133ZM148.028 90.659C148.657 91.6201 149.214 92.4465 149.735 93.2908C150.705 94.8627 152.088 95.8598 153.849 96.3987C156.427 97.1892 159.067 97.4227 161.744 97.4047C162.445 97.4047 163.181 97.4227 163.936 97.27C163.145 96.237 162.13 95.5184 161.43 94.5394C160.99 93.9286 160.576 93.713 159.804 93.7848C158.421 93.9016 157.028 93.7759 155.645 93.5962C153.319 93.2908 151.163 92.5992 149.214 91.2788C148.89 91.0632 148.603 90.7668 148.028 90.659ZM162.085 74.4099C162.454 74.347 162.804 74.2841 163.163 74.2302C163.666 74.1494 163.99 74.0057 164.16 73.4039C164.771 71.311 164.996 69.2091 164.618 67.0533C164.448 66.0653 163.981 65.8138 163.118 66.2898C160.397 67.7719 157.738 69.3798 154.864 70.5744C154.603 70.6822 154.63 70.8798 154.648 71.0774C154.72 71.8409 154.792 72.6044 154.756 73.3769C154.747 73.5027 154.675 73.6643 154.882 73.7632C155.618 73.2691 156.436 72.8829 157.244 72.4877C158.061 72.0834 158.888 71.6972 159.795 71.4996C160.729 71.293 161.627 71.796 161.942 72.7032C162.13 73.2332 162.032 73.7991 162.085 74.4099ZM162.49 93.4345C163.136 94.0363 163.702 94.5843 164.277 95.1052C164.439 95.2579 164.663 95.2759 164.897 95.2849C165.508 95.2939 166.11 95.1681 166.711 95.1771C168.463 95.1951 170.116 94.8088 171.732 94.189C173.035 93.686 174.31 93.1381 175.514 92.4285C176.116 92.0692 176.107 91.9165 175.496 91.638C174.005 90.9644 172.496 90.3266 171.014 89.6529C170.771 89.5452 170.646 89.608 170.475 89.7248C168.068 91.3686 165.481 92.6351 162.49 93.4345ZM32.4879 129.651C32.7664 129.337 32.8742 129.05 32.955 128.762C33.5029 126.957 33.485 125.079 33.2784 123.256C32.937 120.31 32.1825 117.435 31.1316 114.651C30.7274 113.591 30.3591 112.522 29.8291 111.435C29.1645 114.606 29.2992 117.669 29.901 120.741C30.5028 123.768 31.2304 126.75 32.4879 129.651ZM59.1117 204.627C59.1296 204.51 59.0308 204.421 58.9589 204.331C57.7823 202.938 56.5696 201.582 55.2223 200.361C53.5785 198.869 51.809 197.531 49.77 196.597C48.9975 196.247 48.1981 196.022 47.3627 195.914C46.6441 195.815 46.4286 196.121 46.716 196.768C46.8328 197.019 46.9765 197.262 47.1382 197.486C48.0184 198.762 49.1772 199.768 50.3808 200.72C52.9497 202.768 55.6894 204.457 59.1117 204.627ZM163.208 78.8921C164.825 79.0717 166.433 79.2604 167.987 79.7095C168.481 79.8532 168.849 79.9161 168.993 79.2783C169.02 79.1346 169.226 79.0089 169.379 78.919C170.179 78.425 170.843 77.7783 171.445 77.0687C171.993 76.413 172.55 75.7393 172.739 74.8141C171.804 74.8321 170.915 74.868 170.026 74.9309C167.834 75.0836 165.651 75.2902 163.496 75.6944C162.499 75.883 161.268 75.8381 161.196 77.3471C161.196 77.3651 161.178 77.383 161.169 77.401C161.017 77.7154 161.079 77.7962 161.43 77.7064C162.202 77.5178 162.993 77.3561 163.774 77.1944C164.259 77.0956 164.618 77.2573 164.771 77.7423C164.897 78.1465 164.609 78.5687 164.133 78.6945C163.828 78.7843 163.514 78.8292 163.208 78.8921ZM38.066 195.51C38.0839 193.318 36.512 191.809 34.3652 191.89C32.7125 191.953 31.6885 193.39 32.2185 194.962C32.7304 196.48 33.8532 197.396 35.2814 197.926C35.8563 198.142 36.6108 198.375 37.0689 197.774C37.5719 197.127 38.1468 196.462 38.066 195.51ZM46.5723 130.864C45.2878 130.568 44.138 130.783 43.0242 131.232C40.9942 132.05 39.0181 132.984 37.051 133.945C36.2336 134.34 35.4072 134.717 34.4371 135.167C35.4162 135.274 36.2156 135.328 37.0061 135.445C38.569 135.67 40.1409 135.732 41.6679 135.292C44.0123 134.637 45.6651 133.172 46.5723 130.864ZM139.989 173.952C140.061 173.387 139.234 172.857 138.39 173.063C137.968 173.171 137.591 173.387 137.249 173.674C136.369 174.428 135.785 175.363 135.354 176.423C134.689 178.048 134.617 179.719 134.914 181.426C134.977 181.776 135.04 181.785 135.345 181.578C136.62 180.725 137.626 179.62 138.426 178.336C139.162 177.159 139.836 175.938 139.989 173.952ZM136.513 182.89C137.438 184.399 138.929 184.974 140.483 185.423C141.13 185.612 141.812 185.683 142.486 185.387C143.393 184.992 144.067 183.644 143.887 182.575C143.752 181.803 143.375 181.327 142.567 181.174C141.112 180.887 139.764 181.165 138.426 181.74C137.734 182.028 137.24 182.611 136.513 182.89ZM131.779 32.1928C131.554 32.3455 131.429 32.4353 131.303 32.5251C129.92 33.4862 128.348 34.0611 126.758 34.5551C126.47 34.645 126.533 34.7887 126.533 34.9414C126.533 36.136 126.228 37.2768 126.039 38.4355C125.994 38.7319 125.608 39.0284 126.021 39.3248C126.3 39.5224 126.614 39.6302 126.955 39.6661C127.449 39.729 127.854 39.5404 128.231 39.2529C128.896 38.7679 129.39 38.1391 129.866 37.4834C130.989 35.9474 131.716 34.2587 131.779 32.1928ZM45.5483 115.504C44.5333 119.959 45.2249 124.118 47.6412 127.99C48.3508 124.082 48.0184 119.465 45.5483 115.504ZM31.7604 100.863C31.9939 100.656 32.1466 100.504 32.3173 100.369C33.3143 99.5156 34.2125 98.5455 35.2814 97.782C36.2605 97.0814 37.2486 96.3897 38.1468 95.5903C38.8115 95.0064 39.3504 94.3507 39.6738 93.4705C38.4253 93.722 37.2935 94.1172 36.1617 94.5394C33.2694 95.6172 31.9759 97.791 31.7604 100.863ZM57.4769 206.684C56.8122 206.424 56.2553 205.903 55.5456 205.903C52.9497 205.885 50.3449 205.732 47.7759 206.262C47.0304 206.415 46.2579 206.54 45.4674 207.133C49.6263 208.445 53.5605 208.031 57.4769 206.684ZM78.4597 222.143C74.0942 221.164 68.0581 221.64 66.8814 223.014C70.7708 223.58 74.6152 223.176 78.4597 222.143ZM142.675 96.4077C143.519 95.6891 145.531 92.1141 145.639 91.2608C145.684 90.8835 145.405 90.9823 145.261 91.0362C144.678 91.2608 144.157 91.5662 143.815 92.1321C143.052 93.4255 142.908 94.8717 142.675 96.4077ZM144.902 88.2337C144.588 86.4552 142.378 84.9911 140.16 85.0719C141.561 86.4103 143.079 87.4972 144.902 88.2337ZM78.2261 72.8919C78.2261 72.2182 78.1183 71.6703 77.6333 71.2571C77.3638 71.0325 77.0404 70.9786 76.735 71.0954C76.4476 71.2032 76.4027 71.5086 76.3937 71.796C76.3757 72.2541 76.3757 72.7122 76.5823 73.1344C76.8069 73.6015 77.0404 74.2213 77.6423 74.0686C78.1453 73.9428 78.262 73.341 78.2261 72.8919ZM92.1667 70.4576C92.023 70.4307 91.9062 70.5295 91.7805 70.5924C91.2056 70.8618 90.9811 71.4098 90.7745 71.9487C90.4601 72.7661 90.7475 73.1434 91.5919 73.0176C92.6069 72.8649 92.9392 72.308 92.9392 71.4367C92.9392 70.8259 92.5889 70.4397 92.1667 70.4576ZM121.485 19.4738C121.602 19.0606 121.701 18.4947 121.314 17.9737C120.937 17.4707 120.362 17.6414 119.859 17.6414C119.599 17.6414 119.527 17.7851 119.743 17.9737C120.317 18.4857 120.901 18.9797 121.485 19.4738ZM113.617 12.4226C113.599 11.5513 113.123 11.183 112.404 11.4615C112.808 11.7669 113.185 12.0723 113.617 12.4226ZM104.697 29.7945C104.257 30.5939 104.266 30.6209 105.101 30.7646C105.092 30.7017 105.101 30.6478 105.074 30.6029C104.958 30.3334 104.832 30.0729 104.697 29.7945ZM122.788 21.9978C122.931 22.6356 122.931 22.6356 123.533 22.5278C123.309 22.2852 123.165 21.9978 122.788 21.9978ZM107.14 117.319C107.455 117.57 107.733 117.992 108.362 117.561C107.841 117.606 107.509 117.417 107.14 117.319ZM148.118 90.5602C148.082 90.5153 148.046 90.4614 148.001 90.4254C147.992 90.4164 147.947 90.4614 147.911 90.4793C147.956 90.5332 148.001 90.5781 148.046 90.632C148.073 90.6141 148.091 90.5871 148.118 90.5602Z" fill="#4A719C"/>
<path d="M63.082 92.0872C63.576 92.0872 63.8455 92.2129 63.9622 92.5363C64.079 92.8597 64.0521 93.1741 63.7736 93.4256C61.9502 95.0873 60.3154 96.9197 58.7794 98.8419C58.4381 99.2641 58.1866 99.7402 57.9081 100.207C57.5848 100.737 57.1716 100.944 56.7853 100.701C56.2823 100.396 56.3542 99.9557 56.5608 99.4887C56.965 98.5814 57.5578 97.8 58.1866 97.0455C59.48 95.4915 60.8813 94.0454 62.2646 92.5722C62.5251 92.2848 62.8305 92.0782 63.082 92.0872Z" fill="#4A719C"/>
<path d="M68.7768 100.746C68.7408 100.98 68.633 101.15 68.4893 101.303C68.1211 101.698 67.7618 102.112 67.3845 102.507C67.0162 102.893 66.4952 102.938 66.1449 102.615C65.7946 102.291 65.8126 101.788 66.1988 101.393C66.5941 100.989 66.9893 100.576 67.4115 100.198C67.6719 99.9647 67.9863 99.83 68.3546 100.028C68.669 100.189 68.7768 100.45 68.7768 100.746Z" fill="#4A719C"/>
<path d="M68.489 89.2666C68.489 89.5271 68.4082 89.7965 68.1746 89.8774C67.6537 90.066 67.2854 90.4702 66.8363 90.7577C66.486 90.9822 66.1267 90.9373 65.8482 90.6319C65.5787 90.3445 65.5698 89.9762 65.7943 89.6888C66.1985 89.1588 66.6836 88.6917 67.3393 88.5031C67.977 88.3145 68.507 88.6827 68.489 89.2666Z" fill="#4A719C"/>
<path d="M70.3484 69.0025C70.7705 68.9935 70.9951 69.227 71.1927 69.4875C72.073 70.5834 72.8275 71.769 73.573 72.9547C73.9054 73.4847 73.8694 73.9248 73.4473 74.1673C72.9532 74.4548 72.576 74.2122 72.3155 73.808C71.534 72.5775 70.6178 71.4367 69.7825 70.242C69.6028 69.9816 69.513 69.7031 69.6927 69.3977C69.8633 69.1192 70.0879 68.9755 70.3484 69.0025Z" fill="#4A719C"/>
<path d="M66.7648 62.9393C66.7379 62.3195 66.9175 61.9243 67.4475 61.8435C67.9595 61.7626 68.2918 62.086 68.3367 62.5441C68.4265 63.4783 68.8307 64.2956 69.1811 65.14C69.226 65.2478 69.2888 65.3556 69.3068 65.4723C69.4056 65.8855 69.4236 66.2808 68.9385 66.4963C68.4715 66.7119 68.1391 66.4873 67.9235 66.1101C67.5463 65.4544 67.2588 64.7538 67.0343 64.0352C66.9175 63.6489 66.7468 63.2537 66.7648 62.9393Z" fill="#4A719C"/>
<path d="M69.1269 54.4153C69.3873 54.4332 69.6388 54.5949 69.8005 54.8644C70.2856 55.6728 70.5371 56.571 70.7347 57.4783C70.8245 57.8915 70.573 58.2777 70.1149 58.3855C69.6209 58.5023 69.2436 58.2328 69.1269 57.7926C68.9203 57.0291 68.6777 56.2836 68.3813 55.5471C68.1568 54.9722 68.5161 54.4243 69.1269 54.4153Z" fill="#4A719C"/>
<path d="M71.7319 60.3884C72.163 60.3794 72.3427 60.6758 72.5133 61.0171C72.7828 61.5561 72.9265 62.1579 73.4026 62.607C73.717 62.9034 73.5732 63.4424 73.196 63.7119C72.7828 64.0083 72.154 63.9634 71.9025 63.5502C71.4624 62.8406 71.2019 62.0411 70.9863 61.2327C70.8696 60.8105 71.2827 60.4063 71.7319 60.3884Z" fill="#4A719C"/>
<path d="M120.802 130.038C120.758 130.136 120.722 130.271 120.641 130.388C119.536 131.996 118.566 133.684 117.739 135.454C117.542 135.876 117.227 136.146 116.724 135.993C116.311 135.867 116.141 135.409 116.311 134.897C116.751 133.568 117.56 132.418 118.215 131.196C118.458 130.738 118.719 130.289 118.997 129.849C119.257 129.436 119.581 129.112 120.129 129.211C120.56 129.274 120.793 129.544 120.802 130.038Z" fill="#4A719C"/>
<path d="M91.7268 97.1081C91.7358 97.4854 91.5651 97.7099 91.2777 97.8716C90.9363 98.0603 90.5591 98.0243 90.3166 97.7908C89.3465 96.8746 88.2686 96.0662 87.4332 95.0152C87.02 94.4943 87.056 94.0541 87.4422 93.7308C87.8195 93.4254 88.2237 93.5332 88.6908 94.0362C89.4902 94.9164 90.3435 95.7428 91.3136 96.4434C91.5561 96.6051 91.7358 96.8117 91.7268 97.1081Z" fill="#4A719C"/>
<path d="M95.49 101.95C94.9241 101.95 93.9989 101.159 93.927 100.638C93.8731 100.261 93.9989 99.9737 94.3492 99.7851C94.6905 99.6054 94.9959 99.6952 95.2384 99.9288C95.472 100.153 95.7055 100.36 95.966 100.558C96.2535 100.773 96.3163 101.096 96.1996 101.438C96.0738 101.77 95.7864 101.914 95.49 101.95Z" fill="#4A719C"/>
<path d="M98.1131 64.6101C98.4364 64.6191 98.6879 64.7179 98.8316 64.9963C98.9843 65.2928 98.9754 65.6071 98.7508 65.8497C98.4095 66.2179 98.158 66.6401 97.9154 67.0713C97.7268 67.4036 97.4214 67.5294 97.0352 67.4126C96.6759 67.3048 96.5142 67.0443 96.4962 66.694C96.4693 66.1461 97.3316 64.8436 97.8346 64.664C97.9244 64.6281 98.0322 64.6281 98.1131 64.6101Z" fill="#4A719C"/>
<path d="M61.5997 82.3504C61.3752 82.2875 61.0338 82.3145 60.7823 82.0719C60.3332 81.6408 60.4859 80.9851 61.0967 80.7875C61.7255 80.5899 62.4081 80.6887 63.0369 80.4461C63.1806 80.3922 63.3423 80.3563 63.486 80.2934C64.034 80.0599 64.4741 80.1767 64.6807 80.6078C64.9052 81.0659 64.7256 81.5061 64.1687 81.7845C63.6477 82.054 63.0728 82.1348 62.5159 82.2516C62.2465 82.3055 61.959 82.3145 61.5997 82.3504Z" fill="#4A719C"/>
<path d="M48.5844 78.7573C48.1442 78.7483 47.8568 78.5687 47.7849 78.1824C47.7041 77.7513 47.8927 77.4369 48.3059 77.2752C48.9886 77.0057 49.7251 77.0327 50.4258 76.9069C50.6234 76.871 50.83 76.853 51.0186 76.853C51.4138 76.853 51.7821 77.0147 51.854 77.4818C51.9168 77.904 51.7462 78.2004 51.324 78.38C50.8928 78.5597 50.4437 78.4519 50.0126 78.5507C49.5275 78.6585 49.0155 78.6315 48.5844 78.7573Z" fill="#4A719C"/>
<path d="M98.3916 83.2665C97.9066 83.3025 97.5204 83.1857 97.4305 82.6467C97.3497 82.1348 97.6371 81.8653 98.1222 81.7665C99.1372 81.5689 100.152 81.3533 101.176 81.1736C101.383 81.1377 101.544 81.0389 101.733 80.967C102.128 80.8054 102.506 80.8593 102.748 81.2365C102.982 81.6048 102.892 81.9551 102.595 82.2785C102.38 82.512 102.092 82.6378 101.814 82.6917C100.682 82.9072 99.5414 83.0779 98.3916 83.2665Z" fill="#4A719C"/>
<path d="M108.596 79.9431C108.892 79.97 109.216 79.8892 109.512 80.0957C109.799 80.2934 109.898 80.5718 109.826 80.8862C109.755 81.2096 109.539 81.4162 109.198 81.4431C108.497 81.506 107.805 81.5689 107.105 81.6228C106.647 81.6587 106.296 81.506 106.215 81.012C106.144 80.6077 106.368 80.3383 106.736 80.2395C107.338 80.0688 107.949 79.9341 108.596 79.9431Z" fill="#4A719C"/>
<path d="M108.048 23.1746C108.308 22.2674 108.587 21.2254 109.108 20.2913C109.404 19.7703 110.024 19.7344 110.455 20.1026C110.904 20.4889 110.877 20.8931 110.428 21.3961C110.024 21.8542 109.988 22.483 109.736 23.0129C109.637 23.2285 109.575 23.4621 109.476 23.6776C109.305 24.0639 108.982 24.2256 108.587 24.1267C108.209 24.0279 108.03 23.7136 108.048 23.1746Z" fill="#4A719C"/>
<path d="M112.755 27.1179C111.946 27.1089 111.569 26.4352 111.982 25.9053C112.566 25.1597 113.213 24.4591 113.904 23.8124C114.255 23.489 114.74 23.498 115.081 23.9202C115.404 24.3244 115.279 24.7016 114.937 25.0429C114.416 25.5819 113.904 26.1208 113.392 26.6688C113.168 26.9023 112.925 27.0999 112.755 27.1179Z" fill="#4A719C"/>
<path d="M130.072 208.535C130.036 208.876 129.92 209.145 129.695 209.37C128.348 210.699 126.821 211.822 125.249 212.873C124.863 213.134 124.476 213.134 124.171 212.747C123.839 212.325 124.009 211.93 124.378 211.633C125.132 211.032 125.914 210.484 126.668 209.882C127.162 209.496 127.62 209.065 128.087 208.651C128.222 208.535 128.339 208.427 128.384 208.22C128.474 207.717 128.815 207.493 129.309 207.591C129.83 207.69 130.001 208.094 130.072 208.535Z" fill="#4A719C"/>
<path d="M165.49 84.5778C166.155 84.5419 166.496 84.7126 166.577 85.2335C166.649 85.6827 166.334 86.042 165.813 86.1498C163.469 86.6258 161.125 87.1109 158.789 87.5869C158.628 87.6229 158.466 87.6139 158.304 87.6229C157.9 87.6498 157.639 87.4702 157.541 87.0839C157.433 86.6887 157.63 86.4372 157.981 86.2755C158.735 85.9252 159.562 85.8533 160.361 85.6916C161.978 85.3683 163.586 84.982 165.194 84.6138C165.346 84.5868 165.508 84.5778 165.49 84.5778Z" fill="#4A719C"/>
<path d="M167.96 85.9075C167.511 85.8806 167.277 85.6829 167.187 85.3326C167.098 84.9823 167.232 84.6679 167.547 84.5152C167.843 84.3715 168.059 84.2188 168.14 83.8685C168.229 83.5002 168.553 83.3835 168.894 83.4014C169.343 83.4284 169.918 83.9853 169.981 84.4074C170.053 84.8476 169.891 85.1979 169.523 85.4404C169.02 85.7638 168.445 85.8087 167.96 85.9075Z" fill="#4A719C"/>
<path d="M85.2863 62.5622C85.2684 62.9485 85.1786 63.3167 84.9899 63.6491C84.7744 64.0353 84.433 64.206 83.9749 64.0353C83.4719 63.8467 83.3911 63.4515 83.4899 63.0023C83.5528 62.7149 83.6965 62.4454 83.8312 62.176C84.0109 61.8077 84.3163 61.628 84.7294 61.7358C85.1336 61.8436 85.3133 62.14 85.2863 62.5622Z" fill="#4A719C"/>
<path d="M18.3044 105.031C17.7296 104.959 17.2086 104.698 16.6876 104.456C15.8163 104.052 14.972 103.602 14.1097 103.171C13.948 103.09 13.7953 102.983 13.6695 102.857C13.3821 102.569 13.3013 102.228 13.5528 101.869C13.7953 101.519 14.1456 101.447 14.5139 101.635C15.8792 102.336 17.2265 103.09 18.6727 103.638C19.0859 103.791 19.2027 104.15 19.1128 104.528C19.014 104.896 18.7086 105.058 18.3044 105.031Z" fill="#4A719C"/>
<path d="M101.293 124.81C101.14 125.969 100.736 127.056 100.179 128.08C100.026 128.358 99.8736 128.645 99.703 128.924C99.3527 129.49 98.9754 129.66 98.5802 129.409C98.0772 129.104 98.176 128.681 98.3916 128.25C98.661 127.693 98.9125 127.136 99.164 126.571C99.4335 125.969 99.6311 125.34 99.685 124.675C99.7299 124.172 99.9725 123.822 100.52 123.822C100.961 123.813 101.293 124.262 101.293 124.81Z" fill="#4A719C"/>
<path d="M117.282 36.9982C116.761 37.0072 116.446 36.7287 116.446 36.2617C116.437 35.8036 117.138 35.2017 117.713 35.1748C118.189 35.1568 118.548 35.4802 118.548 35.9203C118.53 36.4413 117.893 36.9892 117.282 36.9982Z" fill="#4A719C"/>
<path d="M118.638 48.5497C119.338 48.6036 120.012 48.7743 120.677 48.9809C121.144 49.1246 121.386 49.6276 121.252 50.0318C121.108 50.4719 120.74 50.5887 120.165 50.427C119.59 50.2653 119.006 50.1396 118.422 50.0049C117.964 49.8971 117.614 49.6545 117.668 49.1425C117.748 48.6126 118.171 48.5048 118.638 48.5497Z" fill="#4A719C"/>
<path d="M11.6669 120.076C11.3794 120.094 11.1639 119.933 11.0381 119.699C10.8944 119.429 10.9303 119.142 11.1279 118.909C11.4423 118.54 11.7477 118.163 12.089 117.831C12.9424 116.995 13.7238 116.097 14.5053 115.199C14.8376 114.822 15.2059 114.633 15.664 114.947C16.0682 115.226 16.1042 115.684 15.7089 116.16C14.6131 117.48 13.3915 118.693 12.1519 119.879C12.0351 119.995 11.8824 120.103 11.6669 120.076Z" fill="#4A719C"/>
<path d="M19.3558 111.866C19.3468 112.504 18.4575 113.447 17.9815 113.501C17.685 113.528 17.4695 113.393 17.3168 113.169C17.1461 112.917 17.1371 112.603 17.3257 112.378C17.6042 112.037 17.9186 111.723 18.2509 111.435C18.4575 111.256 18.727 111.256 18.9875 111.399C19.23 111.534 19.3468 111.759 19.3558 111.866Z" fill="#4A719C"/>
<path d="M24.4487 122.69C24.4487 123.175 24.4577 123.66 24.4487 124.145C24.4398 124.576 24.1703 124.837 23.7661 124.846C23.3349 124.855 23.0205 124.612 23.0026 124.163C22.9667 123.274 22.814 122.403 22.8768 121.513C22.9038 121.1 22.9936 120.705 23.4517 120.543C23.9367 120.373 24.4038 120.723 24.4308 121.298C24.4577 121.765 24.4398 122.223 24.4398 122.69H24.4487Z" fill="#4A719C"/>
<path d="M148.262 74.0597C148.325 73.2782 148.549 72.5057 148.828 71.7692C148.953 71.4368 149.277 71.2392 149.672 71.338C150.076 71.4368 150.301 71.7332 150.238 72.1464C150.121 72.9548 149.879 73.7363 149.816 74.5627C149.789 74.9579 149.42 75.1645 148.998 75.1016C148.432 75.0118 148.307 74.5717 148.262 74.0597Z" fill="#4A719C"/>
<path d="M147.345 77.967C146.977 77.9849 146.77 77.8412 146.761 77.446C146.752 76.8981 147.193 76.3681 147.669 76.3322C148.181 76.2873 148.234 76.6735 148.261 76.9969C148.306 77.4191 147.758 77.958 147.345 77.967Z" fill="#4A719C"/>
<path d="M165.696 98.9316C166.595 99.2281 167.628 99.4436 168.427 100.162C168.715 100.423 168.733 100.791 168.517 101.105C168.292 101.42 167.942 101.635 167.565 101.411C166.855 100.989 166.092 100.737 165.337 100.432C164.951 100.27 164.771 99.9556 164.861 99.5514C164.942 99.1831 165.202 98.9586 165.696 98.9316Z" fill="#4A719C"/>
<path d="M149.968 99.9019C149.69 99.8839 149.384 99.7492 149.205 99.4707C148.459 98.321 147.714 97.1622 147.175 95.8867C146.932 95.3029 147.022 94.8897 147.435 94.6921C147.857 94.4855 148.253 94.6562 148.558 95.2131C149.214 96.4167 149.798 97.6653 150.696 98.7162C150.893 98.9407 150.884 99.2372 150.732 99.5156C150.579 99.7941 150.336 99.9019 149.968 99.9019Z" fill="#4A719C"/>
<path d="M153.22 104.079C152.681 104.079 151.567 102.857 151.621 102.318C151.675 101.779 152.232 101.456 152.69 101.743C153.166 102.04 153.588 102.444 153.849 102.947C154.127 103.468 153.768 104.07 153.22 104.079Z" fill="#4A719C"/>
<path d="M92.3192 38.2918C92.3103 38.723 92.1216 39.0014 91.7534 39.1002C91.3761 39.199 91.0617 39.0464 90.909 38.6871C90.6216 38.0134 90.3341 37.3307 90.0916 36.6301C89.9389 36.172 90.0198 35.7319 90.5497 35.5522C91.0438 35.3815 91.3132 35.6331 91.5198 36.0912C91.8432 36.8187 92.1935 37.5373 92.3192 38.2918Z" fill="#4A719C"/>
<path d="M38.6497 104.6C38.2096 104.609 37.8503 104.249 37.8413 103.791C37.8413 103.306 38.3982 102.821 38.9551 102.821C39.503 102.821 39.9881 103.234 39.9881 103.701C39.9971 104.258 39.4941 104.591 38.6497 104.6Z" fill="#4A719C"/>
<path d="M83.2202 107.151C83.2472 106.674 83.4088 106.432 83.7592 106.315C84.1544 106.18 84.4688 106.351 84.6394 106.656C84.9897 107.258 85.2143 107.923 85.358 108.597C85.4299 108.938 85.1963 109.207 84.882 109.36C84.5676 109.513 84.2622 109.432 84.0735 109.163C83.6154 108.534 83.4987 107.752 83.2202 107.151Z" fill="#4A719C"/>
<path d="M162.768 70.8081C162.211 70.826 161.78 70.3859 161.843 69.8919C161.897 69.4787 162.005 69.0655 162.13 68.6703C162.256 68.284 162.535 68.0774 162.966 68.1403C163.406 68.2032 163.613 68.5086 163.604 68.8948C163.604 69.4158 163.478 69.9188 163.298 70.4128C163.208 70.6913 162.939 70.7632 162.768 70.8081Z" fill="#4A719C"/>
</svg>
