<svg width="117" height="219" viewBox="0 0 117 219" fill="none" xmlns="http://www.w3.org/2000/svg">
<path d="M90.2104 168.86C90.8285 169.085 91.4467 169.309 92.0649 169.534C95.8702 170.947 99.7156 170.795 103.577 169.823C104.773 169.526 105.961 169.189 107.069 168.627C107.663 168.322 108.209 167.953 108.595 167.399C108.731 167.198 108.908 167.086 109.108 166.965C109.494 166.724 109.542 166.411 109.205 166.138C108.908 165.905 108.771 165.632 108.675 165.295C108.563 164.902 108.306 164.581 108.057 164.26C105.496 161 102.766 157.885 99.6755 155.132C98.102 153.735 96.3518 152.587 94.2726 152.033C91.3825 151.262 88.5726 151.559 85.8592 152.723C84.0609 153.494 82.8888 154.923 82.102 156.697C81.8451 157.267 81.5642 157.821 81.2189 158.536C77.5983 149.303 71.5532 142.199 63.509 136.475C64.3279 136.45 64.9701 136.418 65.6044 136.41C68.8557 136.362 72.091 136.459 75.2621 137.285C77.3013 137.815 79.1959 138.698 81.0985 139.565C82.8808 140.376 84.7031 141.035 86.6058 141.492C89.0222 142.07 91.4387 142.126 93.8391 141.428C97.2751 140.424 100.719 139.429 104.003 137.96C104.733 137.631 105.464 137.293 106.098 136.78C107.142 135.929 107.286 135.15 106.612 133.994C105.897 132.782 105.118 131.61 104.284 130.47C102.389 127.893 101.088 125.043 100.237 121.968C100.005 121.141 99.6755 120.338 99.4266 119.511C98.6639 116.95 96.8897 115.674 94.2967 115.361C92.1612 115.104 90.0338 114.791 87.9063 114.502C87.802 114.486 87.6655 114.534 87.6013 114.317C87.7136 114.1 87.9946 114.076 88.2114 113.988C90.1702 113.177 92.1451 112.398 94.096 111.563C96.7934 110.407 99.2098 108.842 101.161 106.61C101.899 105.759 102.421 104.78 102.839 103.728C103.376 102.371 103.866 100.991 104.573 99.698C105.279 98.3975 105.359 97.0006 105.191 95.5957C104.428 89.0689 101.209 83.8346 96.4803 79.4352C95.9103 78.9053 95.2681 78.4718 94.6017 78.0704C94.393 77.95 94.1923 77.8135 94.0398 77.5486C94.3368 77.5486 94.6419 77.5406 94.9389 77.5486C99.4266 77.6931 103.673 76.8582 107.511 74.3936C110 72.796 112.504 71.2225 115.081 69.7855C115.724 69.4403 116.205 68.8783 116.799 68.4528C116.799 68.1076 116.799 67.7624 116.799 67.4172C116.269 67.1924 115.796 66.9034 115.37 66.502C113.323 64.5753 110.875 63.5798 108.073 63.4513C105.664 63.3389 103.425 63.9972 101.241 64.9285C99.8922 65.4985 98.6238 66.221 97.3714 66.9756C97.267 67.08 97.1466 67.2887 97.0262 67.1844C96.8737 67.0559 97.0583 66.9114 97.1707 66.8071C98.5515 64.5913 100.053 62.4558 101.57 60.3364C102.389 59.1884 103.216 58.0565 104.027 56.9085C104.259 56.5793 104.452 56.2261 104.677 55.8889C105.319 54.9095 105.022 53.9862 104.492 53.0871C104.364 52.8703 104.139 52.782 103.898 52.8222C102.453 53.0791 100.984 52.9747 99.5229 53.0791C97.3152 53.2477 95.252 53.906 93.3574 55.0459C90.7161 56.6435 88.3398 58.5783 86.108 60.6897C85.811 60.9707 85.5461 61.2998 85.1848 61.6932C85.1688 60.1839 85.3052 58.8272 85.4176 57.4704C85.4578 56.9807 85.4658 56.491 85.3695 56.0093C85.1688 54.9576 84.382 54.4679 83.3384 54.7248C82.0699 55.0299 81.1788 55.8648 80.3519 56.8041C78.955 58.4017 78.3288 60.3043 78.1281 62.3756C77.815 65.643 78.5456 68.6856 80.1271 71.5516C80.3037 71.8728 80.4563 72.218 80.6168 72.5471C80.6971 72.6675 80.962 72.7157 80.8336 72.9084C80.7854 72.9887 80.5687 72.9485 80.4884 72.788C80.103 72.5873 79.806 72.2661 79.4929 71.9771C77.526 70.1387 75.2461 69.071 72.5085 69.095C70.9029 69.1111 69.2973 68.8542 67.6917 69.0629C66.4393 69.2235 65.1949 69.4081 63.9747 69.7533C63.8141 69.8015 63.6616 69.9059 63.4448 69.7614C63.7579 68.5491 64.2316 67.4011 64.8417 66.3013C66.3831 63.5075 68.1252 60.8342 69.9797 58.2491C72.7253 54.4198 75.5271 50.6385 78.6821 47.1303C79.7819 45.91 81.0423 44.8583 82.2786 43.7906C82.7041 43.4213 83.1457 43.06 83.6514 42.6346C83.7638 43.0279 83.6354 43.3009 83.5712 43.5819C83.2581 44.8342 82.7924 46.0385 82.5837 47.3149C82.4553 48.0856 82.5917 48.5753 83.0172 48.7519C83.4026 48.9125 83.8923 48.7038 84.3097 48.1017C85.4658 46.4238 86.3087 44.6175 86.3168 42.5222C86.3168 42.4178 86.2766 42.2974 86.381 42.2091C86.6218 42.1047 86.7503 42.3134 86.9108 42.4017C87.9465 43.0199 89.0945 43.341 90.2746 43.3651C95.4607 43.4855 99.8762 41.7113 103.384 37.8257C103.93 37.2236 104.3 36.5091 104.548 35.7385C104.629 35.4896 104.685 35.2728 104.942 35.1123C106.604 34.1088 107.824 32.6637 108.884 31.0742C111.533 27.0922 113.612 22.8133 115.298 18.3416C115.491 17.8278 115.659 17.3141 115.667 16.7521C115.691 15.6683 115.113 15.018 114.03 14.9779C113.604 14.9618 113.171 14.9297 112.745 15.0341C112.328 15.1304 111.91 15.1946 111.421 15.291C111.541 14.8735 111.661 14.5123 111.742 14.143C111.958 13.1635 111.517 12.3768 110.57 12.0396C109.678 11.7185 108.755 11.7747 107.84 11.8389C105.118 12.0316 102.541 12.8424 100.069 13.9423C93.815 16.72 88.966 21.1113 85.4658 26.9798C83.9726 29.4846 83.2822 32.1981 83.531 35.1363C83.5872 35.7545 83.6113 36.3807 83.6755 37.0711C82.9129 36.9667 82.2225 36.8463 81.524 36.7901C80.4563 36.7099 79.4046 36.7982 78.4011 37.2236C77.5341 37.5849 76.9239 38.195 76.6028 39.0862C76.4503 39.5116 76.37 39.9291 76.7232 40.2904C77.1006 40.6837 77.518 40.5151 77.9114 40.3144C79.244 39.6321 80.649 39.3671 82.2144 39.5438C82.0779 39.913 81.797 40.1137 81.5481 40.3225C78.9309 42.5302 76.4663 44.8985 74.0499 47.3229C71.3364 50.0445 69.0243 53.063 66.9772 56.3063C66.3429 57.3179 65.6606 58.3053 64.9862 59.3249C64.8016 59.0519 64.9059 58.8272 64.9541 58.6184C65.5562 56.0816 66.1583 53.5447 66.7845 51.0159C67.515 48.1017 68.1573 45.1634 68.6791 42.201C68.7755 41.6471 69.0002 41.1895 69.3776 40.764C70.2366 39.8007 71.0554 38.7971 71.8823 37.8097C72.1312 37.5046 72.372 37.3521 72.8296 37.4003C73.9857 37.5207 75.1337 36.6456 75.3986 35.5297C75.5832 34.7671 75.3665 34.0927 74.7644 33.5869C74.1944 33.1133 73.5441 32.9929 72.8296 33.2899C71.7137 33.7635 71.0875 34.751 71.2882 35.9793C71.3846 36.5332 71.2401 36.8784 70.8788 37.2558C70.4051 37.7535 69.9877 38.3074 69.5542 38.8453C69.4498 38.9738 69.3535 39.1183 69.1126 39.1905C69.225 37.898 69.3053 36.6537 69.4418 35.4173C69.6987 33.1534 69.6264 30.8895 69.2892 28.6416C69.1046 27.3652 68.8638 26.0968 68.6229 24.8363C68.5667 24.5554 68.5988 24.4189 68.8798 24.3226C69.9957 23.9452 71.1036 23.5599 72.2034 23.1505C72.5085 23.0381 72.6289 23.1023 72.7895 23.3752C73.2471 24.1459 73.8974 24.6196 74.8447 24.459C75.4468 24.3547 75.9285 24.0496 76.1934 23.4957C76.8517 22.1309 76.5627 20.4611 75.4227 19.4977C75.1497 19.2729 74.8527 19.1123 74.5235 19.008C73.4478 18.6708 72.5567 19.2006 72.3479 20.3165C72.2917 20.5975 72.3078 20.8865 72.3239 21.1756C72.3399 21.4565 72.4041 21.7295 72.4603 22.0827C71.3926 21.9944 70.5657 22.7009 69.5301 22.8534C69.6104 22.1469 69.6666 21.4646 69.787 20.7982C69.8512 20.4209 69.8994 20.0516 69.8592 19.6823C69.7388 18.5905 70.2044 17.7556 70.8467 16.9287C71.5371 16.0296 71.4488 14.9699 71.0795 13.9664C70.7263 13.003 69.9636 12.425 68.9521 12.2885C68.2938 12.2002 67.7157 12.5133 67.3143 13.0592C66.5035 14.159 66.2948 16.1901 68.1814 17.1856C68.6309 17.4264 68.7193 17.6673 68.7112 18.1088C68.6952 19.5459 68.7112 20.9829 68.35 22.3878C68.2938 22.6206 68.2938 23.014 67.9887 22.9498C67.6355 22.8695 67.226 23.2548 66.9049 22.7651C66.5436 22.2192 66.0941 21.7215 65.6686 21.2237C65.3555 20.8625 65.2752 20.4851 65.4518 20.0356C66.0459 18.5343 64.6731 17.3381 63.501 17.2177C63.1478 17.1776 62.8186 17.2498 62.5216 17.4586C61.8151 17.9483 61.2933 19.313 61.502 20.148C61.7589 21.1996 62.7464 21.8098 63.8141 21.4806C64.2396 21.3522 64.4323 21.4485 64.649 21.7777C65.1147 22.4681 65.6365 23.1183 66.2145 23.7204C66.2948 23.8007 66.351 23.9292 66.4473 23.9693C67.4508 24.4028 67.4749 25.3421 67.6756 26.2332C68.3339 29.2036 68.5025 32.1981 68.2857 35.2166C68.1733 36.8142 67.9726 38.4038 67.8121 39.9692C67.5231 40.1137 67.4669 39.889 67.3786 39.7685C67.1297 39.4153 66.921 39.038 66.6641 38.6928C66.3429 38.2593 66.1984 37.8177 66.2707 37.2558C66.3831 36.3727 66.0058 35.6261 65.4117 34.9999C64.6892 34.2372 63.5733 34.1168 62.642 34.6627C61.7348 35.2006 61.3816 36.1238 61.6867 37.1835C61.8312 37.6893 62.0479 38.1549 62.4172 38.5322C63.1157 39.2628 63.9907 39.3511 64.8818 39.054C65.3394 38.9015 65.5401 39.038 65.7649 39.3993C66.2145 40.1057 66.6962 40.7801 67.1859 41.4544C67.3946 41.7434 67.515 42.0244 67.4428 42.4098C67.0896 44.3526 66.7203 46.2954 66.2225 48.2783C65.6927 47.8207 65.4037 47.2346 65.0263 46.7289C64.8738 46.5201 65.0825 46.2954 65.1468 46.0866C65.3796 45.2517 65.2351 44.489 64.6892 43.8147C63.7338 42.6346 62.1282 42.6827 61.2291 43.903C61.1488 44.0154 61.0765 44.1438 60.9882 44.3044C60.8116 44.1358 60.7875 43.9271 60.7313 43.7183C60.065 41.3099 59.198 38.9738 58.3309 36.6376C58.058 35.899 58.2025 35.2809 58.6039 34.7189C59.9928 32.76 60.8437 30.5684 61.205 28.2242C61.8071 24.3627 61.5101 20.5574 60.1935 16.8565C59.6636 15.3632 58.9571 13.9503 58.066 12.6417C55.8262 9.35022 53.2171 6.37983 50.1744 3.7948C49.6285 3.32917 49.0425 2.90368 48.4243 2.54242C47.2763 1.86806 46.5779 2.20524 46.3691 3.51382C46.3531 3.61818 46.4173 3.74663 46.1925 3.83494C45.751 3.48973 45.4298 2.98396 45.0445 2.53439C44.7234 2.1651 44.4585 1.75567 44.1132 1.40244C43.3827 0.655826 42.6923 0.744134 42.1383 1.61919C41.6807 2.34172 41.5041 3.16058 41.4319 3.98747C41.2392 6.29152 41.3034 8.57952 42.0741 10.7953C42.3069 11.4536 42.331 12.1038 42.3069 12.8023C42.2266 15.5399 42.5719 18.2293 43.4309 20.8464C44.6913 24.7079 46.4012 28.3687 48.4484 31.8689C50.1423 34.7671 52.5588 36.8544 55.6335 38.179C55.9225 38.3074 56.1714 38.4359 56.2597 38.8132C56.7735 41.0209 57.6325 43.1323 58.058 45.3561C58.4995 47.636 58.7966 49.9401 59.1659 52.2281C59.6154 55.0379 59.7037 57.8798 59.8964 60.7057C60.0249 62.5361 60.1774 64.3665 60.3299 66.1969C60.4504 67.6339 60.2978 69.071 60.1453 70.4919C59.9847 71.9771 59.8804 73.4623 59.7359 74.9395C59.6636 75.6299 59.4147 76.2641 59.3425 76.9385C58.9812 76.9224 59.0374 76.6655 58.9892 76.4889C58.0419 73.1653 56.8136 69.9621 54.919 67.0399C54.1323 65.8276 53.2652 64.6957 52.1253 63.7885C51.6516 63.4112 51.1378 63.082 50.5758 62.8653C49.6285 62.496 48.9301 62.7127 48.328 63.5316C48.047 63.917 47.758 64.3023 47.469 64.6876C47.4208 64.7519 47.3325 64.784 47.196 64.8803C47.0435 64.3424 47.0114 63.8206 46.9471 63.2988C46.5136 59.63 45.9998 55.9692 44.8438 52.4368C43.8563 49.4343 42.6923 46.5121 41.3195 43.6622C40.894 42.7871 40.5247 41.8799 40.1153 40.9968C39.9627 40.6757 39.9387 40.4509 40.2678 40.186C42.8448 38.1067 43.7921 35.2809 43.9848 32.0857C44.1534 29.316 43.7359 26.5945 43.4389 23.8569C43.4148 23.6321 43.3426 23.4074 43.2623 23.1906C43.1659 22.9337 42.9733 22.7571 42.6923 22.733C42.3631 22.7089 42.1303 22.8775 42.0099 23.1665C41.8895 23.4555 41.8012 23.7606 41.745 24.0657C41.4479 25.6472 41.3195 27.2448 41.2071 28.8424C41.191 29.0109 41.2392 29.1876 41.0947 29.3321C41.0786 29.4926 41.1107 29.6612 40.9823 29.8057C40.8779 29.6532 40.9261 29.4926 40.9261 29.3321C40.5327 27.4214 40.0992 25.5268 39.4489 23.6883C38.4294 20.8223 36.9843 18.1891 35.0897 15.8128C32.015 11.9513 28.4826 8.55544 24.5087 5.61717C23.2162 4.66183 21.8273 3.84297 20.3983 3.11241C18.8971 2.34172 17.3557 1.62722 15.8946 0.776247C15.7742 0.703994 15.6377 0.63977 15.5093 0.583573C14.57 0.158086 14.1204 0.3909 13.9358 1.40244C13.8876 1.65933 13.8394 1.9082 13.7832 2.20524C13.4862 2.15707 13.3176 1.91623 13.1089 1.75567C12.4666 1.26596 11.8726 0.728078 11.1821 0.310619C10.1224 -0.331626 9.30357 0.0376649 9.19118 1.27399C9.10287 2.24538 9.11892 3.22481 9.22329 4.1962C9.2554 4.50929 9.27948 4.82239 9.31962 5.13548C9.35173 5.37633 9.34371 5.56097 9.10287 5.72956C8.71752 6.00251 8.65329 6.43603 8.65329 6.87757C8.65329 8.67586 9.0547 10.4019 9.57652 12.1038C10.8128 16.1821 12.8279 19.875 15.1721 23.3993C17.6929 27.1886 20.4305 30.7932 23.7059 33.9723C25.0466 35.2728 26.4595 36.4931 27.9206 37.6572C28.0571 37.7615 28.1695 37.89 28.298 38.0104C28.3461 38.0345 28.4023 38.0505 28.4425 38.0826C28.4987 38.1308 28.5549 38.187 28.603 38.2432C28.5308 38.3074 28.4505 38.2914 28.3702 38.2593C28.298 38.2191 28.2418 38.1629 28.1695 38.1148C27.6878 37.9301 27.2061 37.7615 26.7325 37.5608C26.4916 37.4565 26.2428 37.3842 25.9859 37.3762C25.2152 37.336 24.7496 37.8819 24.9262 38.6446C25.1269 39.5036 25.5443 40.2502 26.1304 40.9005C28.2819 43.3169 30.9071 44.0395 33.9979 43.0922C34.4394 42.9557 34.8729 42.8112 35.2984 42.6586C35.4028 42.6185 35.4991 42.5543 35.6356 42.474C35.9326 42.6908 36.029 43.06 36.1895 43.3812C38.2046 47.4273 39.6818 51.6661 40.8699 56.0173C41.7289 59.1724 42.5959 62.3194 43.2141 65.5306C43.3907 66.4538 43.479 67.4011 43.6155 68.3324C43.6958 68.8943 43.5673 69.36 43.2542 69.8577C41.6807 72.3464 40.4846 75.0198 39.9788 77.942C39.6175 80.0052 39.4811 82.0925 39.8263 84.1878C39.8423 84.3002 39.8423 84.4126 39.8503 84.525C39.5613 84.5651 39.4329 84.3403 39.2643 84.2039C37.6988 82.9756 36.037 81.9159 34.1584 81.2094C33.7972 81.0729 33.5804 80.8562 33.4038 80.4788C32.5047 78.536 31.2202 76.8341 29.8393 75.2205C26.58 71.4232 23.152 67.7865 19.154 64.7438C18.9453 64.5913 18.7446 64.4227 18.5519 64.2622C18.3833 64.1257 18.3271 64.0053 18.4475 63.7564C19.6116 61.4604 19.5715 59.0038 19.3948 56.5231C19.2584 54.6365 18.8329 52.7901 18.6322 50.9115C18.592 50.5663 18.3271 50.3736 18.2227 50.0766C17.1068 46.7369 15.2042 43.8468 13.0768 41.0771C11.7842 39.3912 10.5078 37.6893 9.35174 35.907C9.15104 35.5939 8.95033 35.3049 8.9423 34.8955C8.93427 34.478 8.74161 34.1409 8.21175 34.1168C7.89063 34.1007 7.64175 33.7154 7.24837 33.8679C6.81487 34.0365 6.57402 34.3978 6.39741 34.7911C5.91572 35.8348 5.54643 36.9266 5.34573 38.0586C4.85602 40.8363 4.72757 43.63 4.96841 46.4479C5.20123 49.2657 5.63474 52.0194 6.62219 54.6686C6.94331 55.5276 7.32867 56.3625 7.6819 57.2055C7.77021 57.2858 7.83443 57.3741 7.73809 57.4785C7.714 57.5025 7.60162 57.4383 7.52937 57.4142C6.50177 56.8442 5.47418 56.2662 4.45461 55.6962C2.05422 54.3475 -0.522774 53.5046 -3.25232 53.1593C-6.10228 52.7981 -8.88802 52.1478 -11.6416 51.345C-12.3802 51.1282 -13.1188 50.8713 -13.9136 50.8954C-14.6201 50.9115 -14.9572 51.2326 -14.9974 51.9391C-15.0215 52.3244 -14.885 52.6777 -14.7485 53.0229C-14.2588 54.2672 -13.4881 55.343 -12.6452 56.3545C-10.9432 58.3936 -9.01648 60.1839 -6.91312 61.8056C-4.22372 63.8848 -1.14095 65.073 2.11042 65.9079C4.3342 66.4779 6.566 66.9516 8.90217 67.1041C8.76569 67.4252 8.49274 67.4654 8.284 67.5858C6.7667 68.4368 5.36981 69.4322 4.278 70.797C3.24238 72.0895 2.73662 73.5908 2.56803 75.2285C2.31113 77.6931 2.95337 80.0052 3.69997 82.2932C4.40645 84.4608 5.49826 86.4437 6.62219 88.4186C7.37682 89.7432 8.38837 89.3739 8.97442 88.5069C10.8369 85.7693 12.4827 82.9354 13.3336 79.6841C13.9036 77.5165 14.2729 75.3168 14.6743 73.1251C14.9473 71.6319 15.2202 70.1387 15.718 68.7017C15.7822 68.517 15.8143 68.3163 15.9669 68.1798C17.9177 69.3118 26.9573 77.3559 28.025 78.9375C27.6236 78.8572 27.2945 78.801 26.9733 78.7287C26.4515 78.6163 25.9457 78.6404 25.448 78.8251C24.6211 79.1221 24.0993 79.7965 24.3803 80.6233C24.9262 82.229 24.5489 83.8185 24.4445 85.4C24.292 87.6319 24.5087 89.8074 24.9422 91.975C25.4801 94.6965 26.5639 97.2254 27.7039 99.7382C28.3301 101.119 28.9964 102.484 29.2372 104.009C29.3818 104.924 29.4219 105.864 29.2854 106.755C28.7234 110.375 29.4219 113.755 30.9633 117.031C32.0631 119.359 33.3717 121.534 35.1298 123.421C35.6998 124.031 36.334 124.569 37.0245 125.163C36.6391 125.484 36.2779 125.789 35.9086 126.078C34.3351 127.307 33.452 128.936 33.171 130.895C32.8258 133.328 32.8338 135.752 33.2834 138.168C33.5563 139.63 34.1504 140.954 34.9613 142.191C35.7319 143.371 36.5187 144.535 36.8398 145.94C36.9522 146.437 37.3295 146.686 37.8032 146.847C37.1369 148.043 36.3019 149.071 35.5714 150.162C33.0185 153.984 30.4575 157.789 28.5629 162.004C27.3988 164.597 26.5639 167.31 25.729 170.016C25.2393 171.597 24.7415 173.179 24.2518 174.768C24.011 174.632 24.0511 174.415 24.0431 174.223C23.5453 163.449 20.4545 153.43 15.2202 144.037C13.1811 140.376 10.9172 136.844 8.78977 133.239C7.14402 130.445 5.62672 127.579 4.04519 124.746C3.70801 124.143 3.37083 123.541 2.85704 123.068C2.67239 122.899 2.56802 122.747 2.68042 122.474C2.78478 122.225 2.62421 122.032 2.42352 121.896C2.19873 121.743 1.98198 121.823 1.78931 121.968C1.21931 122.401 0.761703 122.867 0.954376 123.702C1.03466 124.047 0.930298 124.432 0.922272 124.802C0.850021 128.952 1.45213 133.039 2.36732 137.061C4.848 147.955 9.12695 158.11 15.0436 167.583C16.8259 170.433 18.584 173.291 20.6231 175.973C21.0727 176.567 21.5704 177.129 22.0602 177.691C22.1886 177.835 22.3652 178.044 22.5258 178.052C23.1761 178.084 23.1359 178.501 23.1038 178.943C22.9192 181.616 22.9432 184.29 23.0315 186.955C23.0637 188.047 23.0958 189.179 23.5775 190.222C23.6818 190.439 23.6256 190.728 23.6337 190.985C23.7059 193.715 23.5614 196.444 23.449 199.166C23.3045 202.666 22.8308 206.126 21.9879 209.522C21.9638 209.602 21.9397 209.682 21.9156 209.771C21.8434 210.357 21.7471 210.935 21.5303 211.569C21.3296 211.248 21.161 210.991 20.9764 210.702C21.3617 210.485 21.6427 210.212 21.6588 209.771C21.4019 208.237 21.4661 206.696 21.5062 205.147C21.5464 203.694 21.3457 202.224 21.2092 200.771C21.0888 199.431 20.872 198.098 20.7676 196.757C20.3823 191.82 19.0577 187.124 17.2674 182.54C15.9107 179.063 14.3131 175.692 12.5469 172.408C9.72102 167.142 7.33669 161.675 5.01658 156.183C4.71954 155.469 4.40645 154.762 4.06927 154.064C3.78026 153.47 3.4752 152.868 2.86506 152.531C2.68042 152.434 2.66435 152.282 2.60816 152.121C2.46365 151.728 2.13451 151.648 1.76522 151.736C1.40396 151.816 1.18719 152.089 1.26747 152.426C1.37987 152.9 1.14706 153.245 0.970436 153.631C0.609177 154.417 0.376358 155.252 0.288048 156.103C0.151573 157.356 0.0391846 158.608 0.103409 159.876C0.207771 161.915 0.392426 163.931 0.785797 165.93C1.67691 170.473 3.08183 174.865 4.88814 179.12C7.47318 185.189 10.3392 191.13 13.1651 197.094C14.1605 199.198 15.3808 201.181 16.5288 203.196C16.6814 203.469 16.874 203.726 16.9383 204.039C17.2514 204.432 17.4601 204.882 17.6206 205.42C17.3156 205.05 17.0426 204.753 16.866 204.384C13.8715 200.538 10.8771 196.685 7.89062 192.84C6.11642 190.552 4.4787 188.159 2.77676 185.815C2.35929 185.237 1.92578 184.659 1.39593 184.169C0.263969 183.118 -1.03658 183.278 -1.8715 184.587C-2.61811 185.759 -2.85895 187.091 -2.89106 188.44C-2.94725 190.857 -2.32107 193.145 -1.42995 195.368C-0.514755 197.648 0.793823 199.696 2.25494 201.654C5.85954 206.463 10.0903 210.654 14.9072 214.234C17.2353 215.96 19.6999 217.478 22.5178 218.321C22.6301 218.353 22.8228 218.353 22.7747 218.578C23.2323 218.578 23.6979 218.578 24.1555 218.578C24.1475 218.553 24.1234 218.505 24.1314 218.497C25.0225 217.478 25.1429 216.209 25.3517 214.949C26.0902 210.405 26.8288 205.853 27.6316 201.317C28.0651 198.885 28.8439 196.549 29.8715 194.293C30.1926 193.586 30.6502 193.193 31.2764 192.824C32.9542 191.812 34.4073 190.495 35.9326 189.275C40.5327 185.558 44.2096 181.062 47.3566 176.117C48.8097 173.837 49.9095 171.365 50.9853 168.892C51.1458 168.531 51.3465 168.298 51.7158 168.113C55.5051 166.251 58.0981 163.304 59.503 159.33C60.1051 157.629 60.6591 155.902 61.2532 154.201C61.6786 152.98 62.1924 151.8 62.8026 150.652C62.939 150.395 63.0675 150.146 63.1719 149.873C63.4288 149.191 63.0675 148.685 62.3289 148.677C61.791 148.669 61.3174 148.894 60.8517 149.103C57.5121 150.58 54.2848 152.266 51.3385 154.433C51.0575 154.634 50.8568 154.835 50.4554 154.53C50.1423 154.289 49.7008 154.506 49.6446 154.987C49.5322 155.967 48.8177 156.44 48.2156 157.034C45.5101 159.716 43.7439 162.919 43.0535 166.668C42.8849 167.607 42.5638 168.362 42.0179 169.125C40.5648 171.14 39.8182 173.46 39.3285 175.86C39.0797 177.064 38.7906 178.269 38.7746 179.505C38.7746 179.834 38.5578 180.027 38.3812 180.244C36.8478 182.218 35.186 184.089 33.4199 185.863C31.9186 187.364 30.3371 188.793 28.7877 190.255C28.5709 190.463 28.314 190.632 28.0651 190.825C28.0009 190.696 27.9608 190.648 27.9608 190.6C28.0651 187.894 27.8966 185.197 27.9126 182.499C27.9287 179.794 28.2097 177.129 28.7796 174.487C29.446 171.429 30.2006 168.402 31.2603 165.456C32.5849 161.755 34.4715 158.351 36.7997 155.188C38.4535 152.948 40.1072 150.7 41.4238 148.236C41.7129 147.69 42.1705 147.32 42.5799 146.895C42.7404 146.734 42.893 146.823 43.0535 146.855C44.2899 147.088 45.5342 147.304 46.7705 147.545C48.1433 147.81 49.5001 147.818 50.8568 147.465C52.4785 147.04 54.0279 146.453 55.4408 145.554C56.1794 145.089 56.8618 144.567 57.1428 143.684C57.1829 143.555 57.2873 143.435 57.3756 143.323C58.3069 142.134 58.4514 140.826 57.9697 139.429C57.769 138.867 57.5602 138.305 57.3355 137.671C57.8493 137.695 58.2426 137.912 58.636 138.104C60.4825 139.003 62.1122 140.24 63.6535 141.572C68.0288 145.37 71.6736 149.777 74.5637 154.803C74.7162 155.076 74.8687 155.357 75.0373 155.67C74.1462 155.999 73.2631 156.24 72.4523 156.657C67.0012 159.459 63.3886 163.778 61.7589 169.703C61.2853 171.413 60.8839 173.139 60.6511 174.905C60.4182 176.703 60.635 178.445 61.0203 180.187C61.3575 181.697 61.5743 183.23 62.2245 184.659C63.0595 186.481 64.2396 187.991 65.9737 189.042C66.7203 189.492 67.515 189.805 68.3981 189.853C69.7147 189.933 70.4694 189.355 70.7343 188.079C70.8868 187.348 70.8949 186.602 70.9189 185.855C70.9511 184.563 70.9751 183.27 71.0474 181.978C71.232 178.967 72.1392 176.189 73.7689 173.653C74.7323 172.159 75.7438 170.69 76.7152 169.197C77.7107 167.672 78.4734 166.042 78.6981 164.204C78.7062 164.155 78.7543 164.115 78.8025 164.059C79.0353 164.075 79.0032 164.292 79.0514 164.42C79.6374 165.946 80.1994 167.479 80.8095 168.996C80.9219 169.277 80.8978 169.47 80.7613 169.711C79.4769 171.991 79.3083 174.439 79.6454 176.968C80.3359 182.202 82.2465 186.939 85.5862 191.049C87.8903 193.891 90.7964 195.858 94.4171 196.669C95.1797 196.838 95.9424 196.926 96.7211 196.902C98.0618 196.862 98.8566 196.067 98.8646 194.734C98.8727 193.498 98.5836 192.286 98.4391 191.065C98.2304 189.275 98.0698 187.477 97.9494 185.679C97.5801 180.228 95.8702 175.298 92.2094 171.156C91.527 170.385 90.7723 169.671 90.0498 168.932C90.0016 168.908 89.9454 168.884 89.9053 168.852C89.8491 168.796 89.7447 168.691 89.7528 168.675C89.825 168.579 89.9214 168.667 90.0016 168.683C90.09 168.731 90.1462 168.812 90.2104 168.86ZM57.6325 112.302C57.6245 112.198 57.6486 112.109 57.7529 112.053C57.9697 111.331 58.3711 110.696 58.7484 110.062C60.1533 107.702 61.9596 105.655 63.79 103.632C65.7087 101.512 67.3143 99.2003 68.5828 96.6233C70.8226 92.0633 71.208 87.4231 69.5702 82.6063C68.2697 78.7769 66.5437 75.1723 64.2235 71.8567C63.8061 71.2626 63.9426 70.8773 64.649 70.6846C65.6204 70.4277 66.6159 70.2912 67.6114 70.1788C69.1367 70.0103 70.654 70.1869 72.1793 70.1788C74.5797 70.1628 76.6831 70.9415 78.4493 72.5792C78.8908 72.9806 79.3725 73.2777 79.3805 74.0644C79.3885 74.6424 79.517 75.2285 79.3966 75.8226C78.939 78.0785 78.1281 80.23 77.3815 82.3975C76.643 84.541 75.7438 86.6203 74.7242 88.6514C74.5637 88.9725 74.4433 89.3177 74.8447 89.5586C75.1256 89.7272 75.3986 89.5827 75.6555 89.1491C75.7599 88.9806 75.8321 88.7879 75.9285 88.6113C76.6028 87.3107 77.221 85.9861 77.7267 84.6133C78.955 81.3218 80.2716 78.0624 80.8015 74.5301C81.2832 74.811 81.7488 75.076 82.2144 75.3569C82.7362 75.6781 83.4106 75.7583 83.7719 76.3524C83.8762 76.521 84.1492 76.5451 84.3338 76.4728C84.7192 76.3203 85.0644 76.4809 85.4256 76.5531C86.1 76.6816 86.7744 76.8341 87.4568 76.8983C90.0418 77.1633 92.4582 77.9018 94.5857 79.4432C94.7543 79.5636 95.0272 79.6198 95.0272 79.941C91.9364 80.7679 89.0383 82.0363 86.3248 83.7222C82.672 85.9941 79.5732 88.8682 76.9239 92.24C76.6028 92.6494 76.5948 92.8902 76.8677 93.1391C77.1487 93.396 77.51 93.3478 77.8472 92.9866C78.0238 92.8019 78.1763 92.5852 78.3369 92.3845C80.8898 89.1813 83.9164 86.532 87.4246 84.4126C90.0257 82.8471 92.7874 81.6831 95.7257 80.9525C95.9986 80.8802 96.2555 80.7598 96.5204 81.0247C97.4918 81.9961 98.407 83.0157 99.258 84.1718C99.0332 84.2841 98.8646 84.3805 98.688 84.4688C94.6338 86.5159 90.7402 88.8361 87.0473 91.4773C86.3248 91.9991 85.6264 92.5611 85.0564 93.2435C84.7673 93.5887 84.7754 93.9419 85.0242 94.1667C85.2651 94.3915 85.6344 94.3834 85.9314 94.0382C86.967 92.8581 88.2676 92.0071 89.5601 91.1401C92.683 89.0448 95.9103 87.118 99.2901 85.4643C100.069 85.0869 99.9163 84.9826 100.406 85.7774C102.22 88.7076 103.609 91.7984 103.995 95.2665C104.155 96.7036 104.131 98.1085 103.4 99.4492C102.999 100.196 102.445 100.894 102.269 101.753C102.052 102.781 101.369 103.303 100.446 103.616C99.9564 103.784 99.4748 103.961 98.985 104.121C97.6203 104.555 96.2395 104.948 94.8827 105.414C90.8687 106.811 87.6575 109.364 84.8637 112.495C84.6148 112.776 84.2937 113.033 84.1652 113.362C83.9726 113.835 83.6836 113.835 83.2902 113.755C81.1387 113.314 78.9631 113.193 76.7794 113.282C76.1211 113.306 75.4628 113.346 74.8045 113.402C74.4513 113.434 74.1944 113.619 74.2024 114.004C74.2104 114.405 74.4995 114.526 74.8366 114.574C74.949 114.59 75.0614 114.558 75.1738 114.55C78.2566 114.269 81.3073 114.446 84.3338 115.088C86.4131 115.521 88.5004 115.859 90.6198 116.067C92.097 116.212 93.5822 116.404 95.0433 116.709C96.4803 117.007 97.4677 117.793 98.0217 119.158C98.4231 120.137 98.7843 121.133 99.0653 122.161C99.9966 125.54 101.466 128.663 103.561 131.489C104.259 132.436 104.87 133.448 105.512 134.435C105.632 134.628 105.753 134.837 105.809 135.054C105.881 135.351 105.801 135.559 105.407 135.503C105.215 135.471 105.046 135.511 104.87 135.343C103.609 134.203 102.14 133.336 100.791 132.316C95.9424 128.663 90.6118 125.886 84.9841 123.67C84.3981 123.437 83.82 123.196 83.226 122.971C82.9129 122.851 82.5917 122.835 82.3991 123.196C82.2385 123.501 82.367 123.822 82.7684 124.039C83.0172 124.176 83.2982 124.264 83.5631 124.368C86.5496 125.556 89.4959 126.817 92.3458 128.318C96.3278 130.413 99.9083 133.111 103.553 135.704C103.657 135.776 103.714 135.856 103.698 136.009C102.1 136.555 100.446 136.836 98.7603 137.045C96.5686 137.318 94.6017 136.844 92.8757 135.423C92.7232 135.294 92.5546 135.182 92.386 135.07C91.3022 134.315 90.114 133.857 88.7734 133.841C88.5004 133.841 88.2836 133.753 88.0589 133.601C85.4016 131.834 82.7282 130.108 80.1111 128.278C79.3324 127.732 78.5215 127.25 77.7348 126.72C77.4136 126.504 77.1327 126.536 76.9079 126.841C76.6831 127.154 76.7714 127.435 77.0524 127.676C77.1166 127.732 77.1889 127.78 77.2611 127.82C80.1352 129.715 83.0092 131.618 85.8833 133.52C86.084 133.649 86.3649 133.705 86.4532 133.994C86.2445 134.162 86.0197 134.082 85.803 134.058C84.9038 133.954 84.0769 133.625 83.2741 133.247C79.228 131.345 74.9731 130.478 70.5015 130.646C68.3339 130.726 66.2225 131.007 64.2075 131.874C62.4413 132.637 60.6511 133.328 58.9009 134.106C57.6807 134.652 56.332 134.885 55.208 135.672C55.0635 135.768 54.8789 135.64 54.7103 135.6C53.8031 135.391 52.9682 134.989 52.2055 134.484C49.7409 132.854 47.204 131.337 44.6431 129.867C43.5433 129.233 42.5879 128.39 41.7931 127.395C40.9662 126.367 40.1875 125.324 39.473 124.208C38.895 123.301 38.2287 122.425 37.6988 121.486C36.3501 119.094 35.3225 116.573 35.0977 113.811C34.9211 111.668 34.8408 109.516 34.7284 107.365C34.6482 105.872 34.4153 104.402 34.0862 102.949C33.3075 99.4893 32.015 96.2138 30.6502 92.9625C29.1409 89.3659 27.6316 85.7693 26.1384 82.1647C26.018 81.8677 25.7772 81.5787 25.9217 81.2174C26.0822 81.2014 26.1464 81.3138 26.2347 81.378C28.7957 83.4573 30.9312 85.9379 32.89 88.5711C34.6963 90.9956 36.1574 93.6288 37.3456 96.3985C37.4821 96.7196 37.6828 96.9364 38.0681 96.8641C38.4213 96.7919 38.622 96.4627 38.5418 96.0693C38.5016 95.8767 38.4133 95.692 38.317 95.5154C37.9397 94.7768 37.5463 94.0382 37.1609 93.2997C34.6883 88.4908 31.4128 84.3163 27.3185 80.7839C27.0054 80.511 26.6683 80.2541 26.4435 79.8687C26.7325 79.7884 26.9492 79.8607 27.174 79.9249C28.9001 80.3745 30.5298 81.089 32.2157 81.6509C35.3867 82.7026 38.1083 84.4527 40.4685 86.7969C40.6291 86.9575 40.9422 87.0699 40.8699 87.3107C40.6933 87.9289 41.1589 88.1376 41.4961 88.4106C42.5397 89.2696 43.3104 90.3213 43.7921 91.5897C44.1614 92.553 44.4825 93.5325 44.7073 94.544C45.6145 98.7106 46.329 102.917 47.1238 107.108C47.18 107.397 47.3164 107.59 47.6135 107.622C47.9025 107.654 48.1032 107.509 48.2236 107.236C48.344 106.955 48.3039 106.69 48.2316 106.393C47.5653 103.431 46.9953 100.453 46.4735 97.4582C45.9838 94.6885 45.3736 91.9509 43.9768 89.4141C44.8759 89.0528 45.1408 88.242 45.3817 87.4552C46.0641 85.2636 46.6742 83.0559 47.3807 80.8722C48.3601 77.8778 48.8498 74.803 48.9863 71.6721C49.0505 70.1548 49.0184 68.6214 49.0585 67.1041C49.0826 66.2451 49.1789 65.3781 49.2351 64.5191C49.476 64.5672 49.492 64.6876 49.5242 64.792C49.8533 65.8919 50.1905 66.9837 50.4956 68.0915C51.7319 72.5391 52.7675 77.0348 53.185 81.6429C53.209 81.9239 53.2572 82.2129 53.3214 82.4859C53.3857 82.7749 53.6024 82.9274 53.8914 82.9033C54.1804 82.8792 54.3651 82.7106 54.3892 82.4056C54.4052 82.2049 54.4052 82.0042 54.3731 81.8035C54.1162 79.9329 53.9235 78.0463 53.5864 76.1919C52.8719 72.2982 51.7881 68.493 50.6722 64.6957C50.624 64.5191 50.4554 64.3585 50.6641 64.1417C51.3385 64.5431 51.9326 65.0329 52.4464 65.6189C54.2125 67.6661 55.4328 70.0263 56.4443 72.515C57.496 75.1 58.1383 77.8055 58.8126 80.4949C58.8768 80.7518 58.917 81.0087 59.0695 81.2174C59.3746 81.6509 59.9606 81.5947 60.1854 81.1131C60.2898 80.8963 60.2737 80.6635 60.2737 80.4307C60.2818 80.1979 60.2737 79.965 60.3139 79.7403C60.354 79.5235 60.338 79.2827 60.5146 79.0579C60.6591 80.3424 60.932 81.5385 61.3093 82.7187C61.9757 84.806 62.0399 86.9254 61.6786 89.0849C61.3334 91.1883 60.4905 93.0909 59.4709 94.9294C58.5236 96.6393 57.504 98.3011 56.5246 99.9951C55.6094 101.577 55.0394 103.279 54.6862 105.069C54.0359 108.352 53.9075 111.676 54.06 115.008C54.1002 115.834 54.2527 116.653 54.5016 117.456C54.6059 117.801 54.8147 118.074 55.1679 117.97C55.6656 117.825 55.6736 118.106 55.7459 118.436C55.9787 119.487 56.356 120.475 57.1348 121.253C57.5602 121.679 58.058 121.968 58.6761 121.807C58.9732 121.727 59.0856 121.847 59.206 122.072C59.6395 122.899 59.5753 123.798 59.5673 124.689C59.5673 125.251 59.1097 125.508 58.7885 125.861C58.1784 126.536 58.2105 127.668 58.8447 128.286C59.4549 128.888 60.6109 128.92 61.3013 128.358C62.0399 127.756 62.1844 126.841 61.6385 126.054C61.4779 125.821 61.2772 125.605 61.0605 125.412C60.8518 125.219 60.7634 125.019 60.7715 124.738C60.8036 123.798 60.7233 122.867 60.4503 121.96C62.9551 121.398 63.5733 121.149 65.6525 119.728C65.9415 119.527 66.1583 119.551 66.4232 119.688C67.4107 120.202 68.1493 121.004 68.8798 121.823C69.1046 122.08 69.2411 122.305 69.2411 122.714C69.2491 123.63 69.514 124.481 70.5095 124.858C71.3444 125.179 72.3239 124.954 72.942 124.256C73.6083 123.517 73.7047 122.433 73.1989 121.526C72.6931 120.619 71.4087 119.953 70.2928 120.98C70.1884 121.077 70.1161 121.205 69.9154 121.205C69.0484 120.25 68.1493 119.295 66.9772 118.628C67.4267 118.074 67.9325 117.641 68.2055 117.087C68.9521 115.618 70.1081 114.558 71.3444 113.53C72.8537 112.278 74.0338 110.704 75.2702 109.187C75.4468 108.97 75.5752 108.778 75.9606 108.866C77.4538 109.187 79.0915 108.272 79.6615 106.867C80.2074 105.51 79.4046 104.234 77.9515 104.057C76.7313 103.913 74.7644 104.892 74.5797 106.723C74.5396 107.092 74.4995 107.469 74.5316 107.838C74.5557 108.152 74.4433 108.368 74.2586 108.609C73.3033 109.797 72.3239 110.961 71.2722 112.061C70.9029 112.447 70.5256 112.824 70.0519 113.129C70.0278 113.033 70.0118 113.009 70.0198 112.984C70.1001 111.853 70.1322 110.737 69.3133 109.805C69.0966 109.556 69.3214 109.372 69.4338 109.195C70.3088 107.774 70.9912 106.257 71.6174 104.708C71.786 104.298 72.0268 104.097 72.4523 103.961C73.801 103.535 74.5075 102.508 74.668 101.167C74.7564 100.437 74.4593 99.7542 73.8251 99.2886C72.5246 98.3413 70.2285 99.2003 69.8592 100.774C69.6104 101.833 69.9475 102.757 70.5336 103.6C70.6701 103.8 70.7102 103.897 70.6299 104.105C70.0278 105.695 69.3294 107.228 68.4543 108.689C68.366 108.834 68.2857 109.043 68.077 108.978C67.3465 108.738 66.5758 108.762 65.773 108.649C66.07 107.999 66.359 107.485 66.9451 107.148C67.5311 106.811 67.9004 106.241 68.1733 105.631C68.5105 104.876 68.2857 104.218 67.7479 103.656C67.1859 103.062 66.2065 102.893 65.4358 103.206C64.7132 103.503 64.36 104.065 64.352 104.9C64.352 105.583 64.5607 106.201 64.914 106.771C65.0986 107.068 65.1468 107.333 64.9701 107.654C64.8497 107.879 64.7614 108.127 64.6811 108.368C64.5607 108.746 64.3118 108.898 63.9345 108.962C62.5296 109.219 61.2772 109.821 60.0811 110.592C59.3023 111.09 58.636 111.724 57.9135 112.294C57.9135 112.366 57.8733 112.398 57.8011 112.406C57.761 112.543 57.6004 112.72 57.5602 112.679C57.4318 112.583 57.5281 112.439 57.6084 112.326C57.5924 112.342 57.6164 112.326 57.6325 112.302ZM17.4601 13.9021C17.3477 13.8138 17.2192 13.7416 17.1229 13.6372C14.9152 11.2609 12.852 8.75614 10.7807 6.26744C10.6202 6.08279 10.572 5.88209 10.5399 5.64125C10.3954 4.35676 10.275 3.07227 10.3231 1.77975C10.3312 1.59511 10.2428 1.37032 10.5238 1.20976C11.7361 1.98848 12.8199 2.95988 13.9277 3.91522C14.0241 4.00353 14.0883 4.15606 14.1124 4.29254C14.4977 6.24336 15.2363 8.08178 15.8946 9.94429C16.3683 11.293 16.9463 12.6016 17.4681 13.9262L17.428 13.9423L17.4601 13.9021ZM20.2298 202.762C20.1174 202.674 20.0531 202.562 20.013 202.409C19.6116 200.972 19.1861 199.543 18.7767 198.114C17.2594 192.816 15.3086 187.67 13.3015 182.54C13.1972 182.275 13.0768 182.01 12.9242 181.769C12.7316 181.464 12.4345 181.343 12.1054 181.528C11.7842 181.713 11.7361 182.01 11.8966 182.347C12.1214 182.845 12.3623 183.334 12.563 183.84C15.0597 190.319 17.3316 196.87 19.0978 203.589C19.3868 204.681 19.716 205.765 19.8926 206.953C19.5474 206.584 19.3708 206.182 19.1941 205.797C18.3351 203.942 17.3236 202.176 16.304 200.41C15.4932 198.989 14.6743 197.568 13.9839 196.091C11.72 191.258 9.40793 186.449 7.24036 181.576C4.278 174.921 1.81339 168.129 1.30762 160.767C1.19522 159.098 1.17916 157.452 1.51634 155.806C1.56451 155.573 1.46818 155.268 1.79733 155.14C1.82141 155.22 1.85352 155.3 1.86958 155.373C2.7045 159.218 3.83646 162.967 5.19319 166.66C6.41346 169.968 7.97894 173.147 9.06273 176.511C9.27949 177.177 9.49624 177.353 9.83341 177.233C10.1786 177.113 10.2509 176.816 10.0582 176.189C9.61665 174.768 9.13497 173.355 8.54089 171.983C6.22079 166.572 4.25392 161.04 3.0176 155.276C2.96943 155.068 2.88112 154.867 3.0176 154.546C3.3628 155.324 3.66787 156.031 3.97294 156.729C5.98798 161.426 7.94683 166.138 10.3312 170.658C11.8003 173.452 13.2614 176.254 14.562 179.128C16.5128 183.447 18.1665 187.87 19.0416 192.551C19.6678 195.93 19.9006 199.358 20.2298 202.786C20.1414 202.891 20.302 202.963 20.2619 203.059C20.2538 202.955 20.2378 202.859 20.2298 202.762ZM35.1298 40.0656C34.8328 40.2021 34.6642 40.1378 34.4956 40.1057C33.4279 39.9211 32.4726 39.4635 31.5895 38.8614C28.6913 36.8704 26.018 34.6145 23.5694 32.1017C20.3341 28.7701 17.6046 25.0451 15.14 21.1194C13.5825 18.6387 12.2017 16.0536 11.2303 13.2759C10.6202 11.5258 10.0261 9.7757 9.9137 7.90516C10.4355 7.77672 10.7245 8.01756 11.0216 8.38685C13.1249 10.9719 15.3005 13.4927 17.6367 15.877C17.8775 16.1259 18.1425 16.3427 18.3994 16.5674C18.6884 16.8163 19.0015 16.9207 19.3386 16.6718C19.6277 16.447 19.6357 16.142 19.5072 15.8208C19.4671 15.7165 19.435 15.6041 19.3948 15.4997C19.0496 14.6166 18.7125 13.7335 18.3512 12.8585C17.2754 10.2975 16.2639 7.70446 15.5012 5.03112C15.1962 3.97141 14.9553 2.88763 15.0757 1.67539C15.3086 1.78778 15.4852 1.86806 15.6538 1.95637C16.9302 2.61467 18.1987 3.27297 19.4831 3.92325C21.5945 4.99098 23.5775 6.24336 25.4079 7.72855C27.5112 9.4305 29.4861 11.2689 31.3486 13.2278C32.9302 14.8976 34.4153 16.6477 35.6677 18.5825C37.9718 22.1389 39.2322 26.0646 39.8744 30.2232C40.2517 32.6878 40.0591 35.0802 39.184 37.4163C39.0797 37.6893 38.9994 37.9542 38.7585 38.1469C38.3009 38.5162 37.9878 38.4439 37.8273 37.8819C37.3054 36.1077 36.5187 34.454 35.7319 32.7922C34.3351 29.8619 32.609 27.1083 31.2443 24.162C31.0917 23.8328 30.8188 23.6964 30.4655 23.8168C30.1364 23.9292 29.9839 24.2824 30.1605 24.6597C30.3933 25.1816 30.6823 25.6793 30.9472 26.1931C32.609 29.3401 34.4073 32.4148 35.8122 35.6903C36.31 36.8544 36.7515 38.0265 37.0084 39.2708C37.0646 39.5518 37.1047 39.7605 36.7997 39.913C36.4946 40.0656 36.3983 39.8488 36.2538 39.6722C34.5358 37.5207 32.8017 35.3772 31.0998 33.2096C30.6662 32.6557 30.1364 32.1499 29.9357 31.4274C29.8474 31.1223 29.6065 30.9457 29.2694 31.026C28.892 31.1223 28.7957 31.4113 28.8358 31.7646C28.876 32.1499 29.0606 32.471 29.2934 32.7681C30.2408 33.9562 31.18 35.1524 32.1273 36.3406C33.1148 37.5608 34.1022 38.7811 35.1298 40.0656ZM85.2169 39.03C85.3052 38.9497 85.3935 38.8774 85.4658 38.7971C85.9555 38.2512 85.9073 37.9381 85.2169 37.6732C84.9359 37.5689 84.8797 37.4163 84.8637 37.1755C84.8155 36.4369 84.7433 35.6903 84.6871 34.9517C84.4944 32.3265 85.1206 29.894 86.4292 27.6221C88.2114 24.5233 90.5235 21.882 93.237 19.578C96.8576 16.4952 100.976 14.3838 105.632 13.3402C106.869 13.0592 108.121 12.9468 109.389 13.019C110.57 13.0833 110.818 13.4606 110.345 14.5604C110.056 15.2428 109.703 15.9011 109.365 16.5674C108.506 18.2614 107.784 20.0035 107.342 21.8499C107.085 22.9176 106.708 23.9292 106.194 24.9006C105.432 26.3456 104.605 27.7586 103.698 29.1233C102.879 30.3597 102.63 31.604 103.232 33.0169C103.898 34.5664 103.433 35.9311 102.397 37.1514C101.891 37.7455 101.329 38.2833 100.719 38.765C98.2786 40.7078 95.4848 41.7996 92.402 42.177C91.3664 42.3054 90.3308 42.3054 89.3193 42.0646C87.7779 41.7033 86.3569 41.1333 85.7468 39.4715C85.6665 39.2146 85.4016 39.1825 85.2169 39.03ZM2.43958 124.505C2.79281 124.778 2.91323 125.139 3.08984 125.452C4.57504 128.109 6.00403 130.791 7.53739 133.416C9.89764 137.454 12.4666 141.372 14.6824 145.49C17.4119 150.564 19.5715 155.854 21.0085 161.442C21.8514 164.725 22.3893 168.057 22.7265 171.421C22.8228 172.416 22.9914 173.412 22.863 174.431C22.7827 174.343 22.7506 174.239 22.7185 174.134C20.3903 167.535 17.7411 161.065 15.14 154.57C14.297 152.466 13.3577 150.403 12.4506 148.332C12.3141 148.019 12.2097 147.682 11.9047 147.473C11.5996 147.256 11.3106 147.272 11.0457 147.529C10.8048 147.762 10.7807 148.059 11.0055 148.3C11.4069 148.741 11.5835 149.287 11.8083 149.809C15.1239 157.5 18.1987 165.287 21.0807 173.147C21.3617 173.917 21.6909 174.68 21.8354 175.491C21.6186 175.411 21.5303 175.226 21.4099 175.065C20.0772 173.299 18.873 171.445 17.6688 169.598C12.9563 162.349 9.07076 154.698 6.25291 146.518C4.51884 141.5 3.20224 136.378 2.46366 131.112C2.29507 129.916 2.22281 128.703 2.09436 127.459C2.36732 127.604 2.39943 127.812 2.47168 127.989C2.85703 128.92 3.21829 129.851 3.62772 130.767C4.62321 133.006 5.63474 135.238 6.66233 137.462C6.81487 137.791 6.94332 138.16 7.27248 138.377C7.52937 138.546 7.73809 138.466 7.75415 138.16C7.76218 137.992 7.73809 137.815 7.68993 137.655C7.41697 136.844 7.20021 136.009 6.83895 135.246C5.31362 132.035 3.94884 128.76 2.69646 125.436C2.57605 125.155 2.42352 124.874 2.43958 124.505ZM56.1473 35.6662C56.34 35.8508 56.629 35.9311 56.5005 36.2201C56.3881 36.477 56.1794 36.5011 55.9305 36.3727C55.778 36.2924 55.5853 36.2282 55.4328 36.3325C55.1037 36.5653 54.8548 36.3807 54.5818 36.2282C52.7755 35.2487 51.3385 33.884 50.1503 32.2222C49.0264 30.6487 48.1754 28.9226 47.3485 27.1886C45.5021 23.3271 43.8082 19.4013 43.5513 15.0421C43.479 13.8941 43.3988 12.7381 43.7199 11.4616C43.9607 11.9192 44.1454 12.2323 44.3059 12.5614C45.4459 14.9458 46.5217 17.3542 47.774 19.6823C48.8498 21.6813 49.9336 23.6723 51.4027 25.4224C51.6275 25.6873 51.8443 25.9522 52.1172 26.161C52.3581 26.3376 52.631 26.45 52.912 26.2493C53.193 26.0486 53.3375 25.7917 53.193 25.4385C53.1609 25.3582 53.1528 25.2699 53.1288 25.1896C52.045 22.3476 51.2341 19.4174 50.0139 16.6236C48.8899 14.0386 48.0149 11.3733 47.75 8.54741C47.6777 7.76066 47.3887 6.97391 47.8222 6.20322C47.9105 6.05068 47.8463 5.84998 47.7419 5.7135C47.3084 5.19168 47.5332 4.62169 47.5091 4.00353C47.8142 4.16409 47.8463 4.38085 47.9346 4.54944C49.0023 6.64476 50.062 8.74008 51.1217 10.8434C51.7158 12.0236 52.3179 13.1957 52.6551 14.4801C52.7434 14.8334 52.9441 15.0501 53.3295 14.9779C53.6907 14.9137 53.7309 14.6247 53.7228 14.3196C53.7068 13.7897 53.49 13.3161 53.2973 12.8424C52.3019 10.426 50.9692 8.17009 49.8694 5.80181C49.7489 5.53689 49.5563 5.28802 49.5322 4.99098C49.8372 4.89464 49.9577 5.08732 50.1102 5.21576C51.5553 6.41195 52.7836 7.82488 54.0199 9.22177C55.7539 11.1806 57.3756 13.2438 58.4674 15.6442C60.0008 19.024 60.5708 22.5724 60.2818 26.2814C60.0971 28.6416 59.4468 30.8333 58.3711 32.9206C58.1945 33.2578 58.0339 33.619 57.6245 33.9241C57.785 31.0742 57.5683 28.3687 57.191 25.6632C56.7735 22.725 55.8021 19.9312 55.0314 17.0812C54.9752 16.8645 54.8708 16.6477 54.7504 16.455C54.5738 16.1821 54.2928 16.0777 53.9958 16.2222C53.7068 16.3667 53.5864 16.6317 53.7228 16.9448C54.1965 18.0847 54.4373 19.305 54.8066 20.4771C56.0269 24.3627 56.5648 28.3526 56.5648 32.4229C56.5648 33.3862 56.5246 34.3737 56.0108 35.329C55.786 34.8393 55.5773 34.3978 55.3766 33.9562C55.2241 33.6271 54.9592 33.4585 54.6139 33.603C54.2687 33.7475 54.1804 34.0365 54.341 34.3897C54.5176 34.7831 54.6782 35.1845 54.8708 35.5699C55.2642 36.3968 55.5211 36.4208 56.1473 35.6662ZM41.0947 146.582C39.7058 149.047 38.2688 151.326 36.6391 153.478C34.2789 156.601 32.2317 159.917 30.7626 163.561C29.446 166.845 28.5549 170.249 27.7761 173.693C27.0295 176.976 26.7164 180.3 26.7566 183.68C26.7887 186.265 27.0135 188.85 26.8449 191.435C26.8369 191.547 26.8449 191.667 26.8609 191.78C26.9492 192.334 27.2383 192.51 27.7681 192.326C28.3782 192.109 28.868 191.708 29.3416 191.29C30.2809 190.439 31.1881 189.564 32.1193 188.705C36.7194 184.482 40.6612 179.722 43.7761 174.287C44.7073 172.665 45.7028 171.092 46.7545 169.55C46.9231 169.301 47.0435 168.932 47.4369 168.996C48.1835 169.117 48.914 168.972 49.7008 168.9C49.195 170.176 48.609 171.365 48.0229 172.545C46.0801 176.462 43.5111 179.955 40.613 183.19C37.3616 186.819 33.7089 190.006 29.5423 192.575C29.1409 192.824 28.7716 193.064 28.868 193.65C28.9001 193.843 28.7234 194.076 28.6271 194.285C27.7842 196.083 27.158 197.961 26.7485 199.896C25.9136 203.814 25.3436 207.788 24.6773 211.738C24.4445 213.126 24.2037 214.523 23.9548 215.993C23.6577 215.72 23.5453 215.455 23.4249 215.206C23.0958 214.539 22.5659 213.897 22.4776 213.199C22.3813 212.468 22.6783 211.681 22.8549 210.927C23.8584 206.704 24.4846 202.433 24.6291 198.098C24.7174 195.425 24.7335 192.751 24.6934 190.078C24.6853 189.765 24.6934 189.428 24.581 189.139C24.2438 188.264 24.2197 187.356 24.1715 186.441C23.9869 183.126 24.292 179.858 25.0305 176.623C25.5845 174.182 26.4033 171.83 27.1098 169.438C28.1936 165.769 29.5102 162.196 31.4209 158.865C33.1951 155.774 35.0897 152.764 37.1449 149.857C37.7068 149.063 38.325 148.276 38.7264 147.401C39.1037 146.566 39.6898 146.461 40.4364 146.518C40.621 146.526 40.8137 146.55 41.0947 146.582ZM0.464668 185.149C0.512833 185.117 0.569031 185.076 0.617203 185.044C1.21128 185.542 1.6448 186.192 2.08634 186.827C5.5946 191.836 9.33568 196.669 13.149 201.454C15.999 205.026 18.6161 208.759 20.864 212.749C20.9764 212.95 21.0807 213.151 21.169 213.367C21.1931 213.424 21.1289 213.528 21.0807 213.584C21.0085 213.656 20.9202 213.608 20.864 213.544C20.6151 213.271 20.3662 212.99 20.1174 212.709C17.7892 210.172 15.445 207.643 13.3497 204.906C12.9804 204.424 12.5951 203.966 12.2097 203.501C12.0411 203.3 11.8645 203.107 11.5996 203.043C11.3026 202.963 11.0216 202.987 10.8369 203.276C10.6442 203.573 10.7326 203.87 10.9895 204.031C11.3427 204.255 11.5835 204.577 11.8244 204.89C14.8991 208.912 18.3271 212.629 21.8434 216.257C22.0361 216.458 22.2528 216.651 22.3733 216.94C21.9799 216.948 21.6427 216.763 21.3135 216.611C19.2905 215.712 17.3798 214.596 15.6056 213.271C10.853 209.699 6.64629 205.564 3.08183 200.787C1.47621 198.636 0.103409 196.356 -0.763626 193.803C-1.41389 191.892 -1.87149 189.941 -1.68684 187.902C-1.60657 186.971 -1.42995 186.056 -0.851936 185.165C-0.731514 185.382 -0.659256 185.494 -0.595032 185.614C0.585098 188.007 1.79733 190.383 3.08183 192.727C4.0211 194.437 4.93629 196.163 5.97192 197.817C6.24487 198.259 6.53388 198.684 6.93528 199.021C7.20824 199.246 7.50528 199.318 7.77823 199.029C8.05119 198.748 7.98696 198.451 7.714 198.202C7.20021 197.729 6.87107 197.119 6.51783 196.524C4.71954 193.482 3.08182 190.359 1.48424 187.212C1.14706 186.521 0.809875 185.831 0.464668 185.149ZM56.1553 104.21C56.067 104.049 56.1072 103.945 56.1393 103.832C56.4925 102.548 57.0545 101.36 57.7128 100.212C58.8608 98.2209 60.1132 96.2941 61.1408 94.2389C63.1237 90.265 63.6214 86.1707 62.2647 81.8918C61.767 80.3263 61.5341 78.7127 61.5502 77.0669C61.5582 76.1517 61.6385 75.2285 61.494 74.3133C61.4699 74.1608 61.5181 74.0323 61.5823 73.9039C61.8874 73.3499 62.2567 72.8361 62.6902 72.3705C62.915 72.1216 63.0595 72.2099 63.2361 72.4267C63.509 72.7558 63.6295 73.085 63.5251 73.5265C63.3003 74.4739 63.1398 75.4372 62.923 76.3845C62.8347 76.7618 62.915 77.0428 63.2762 77.1392C63.6535 77.2355 63.8703 76.9866 63.9586 76.6495C64.0469 76.3203 64.1111 75.9751 64.1754 75.6379C64.2556 75.2445 64.3359 74.8512 64.4323 74.3695C64.8417 74.8431 65.0424 75.2927 65.2913 75.7021C65.4197 75.9109 65.4117 76.1276 65.3555 76.3605C64.9701 78.0062 64.6089 79.66 64.1352 81.2897C64.071 81.5064 64.0148 81.7312 63.9747 81.956C63.9185 82.237 63.9747 82.4939 64.2797 82.5822C64.6169 82.6866 64.8337 82.5099 64.9541 82.2049C65.0183 82.0443 65.0424 81.8757 65.0906 81.7071C65.4839 80.3664 65.8211 79.0097 66.1262 77.5406C66.4875 78.0223 66.8327 78.4799 66.7684 78.9776C66.6721 79.7483 66.5276 80.5591 66.1904 81.2495C65.8372 81.956 65.7087 82.7106 65.4358 83.4251C65.3154 83.7382 65.3475 84.0674 65.7087 84.228C65.9977 84.3564 66.2707 84.1477 66.4232 83.682C66.6239 83.0559 66.7845 82.4216 66.9772 81.7954C67.1136 81.3459 67.1779 80.8722 67.4107 80.4548C67.6676 80.5511 67.6676 80.7438 67.7318 80.8963C68.2777 82.2209 68.7032 83.5857 69.0083 84.9906C69.4257 86.9414 69.6585 88.9163 69.2652 90.8752C68.5587 94.3513 67.0976 97.5144 64.9701 100.356C63.5893 102.195 61.9677 103.824 60.4985 105.599C58.2105 108.368 56.2998 111.347 55.4569 114.903C55.4328 115.016 55.4569 115.2 55.2642 115.248C55.2401 115.2 55.192 115.16 55.192 115.12C55.1438 113.37 55.1197 111.612 55.208 109.862C55.2562 108.89 55.3365 107.919 55.5131 106.963C55.5452 106.803 55.497 106.562 55.7138 106.546C56.34 106.498 56.4684 105.976 56.6852 105.567C57.48 104.065 58.2587 102.572 59.1819 101.143C59.3666 100.854 59.5592 100.565 59.7359 100.268C59.9285 99.9469 59.8884 99.6579 59.5432 99.4652C59.2301 99.2806 58.9892 99.4331 58.8046 99.682C58.6039 99.963 58.4353 100.26 58.2426 100.549C57.48 101.713 56.8538 102.965 56.1553 104.21ZM96.5766 194.879C95.8942 194.477 95.1958 194.076 94.5214 193.658C93.2771 192.888 92.0408 192.101 90.965 191.089C88.2676 188.577 86.5737 185.446 85.3935 182.01C84.2054 178.55 83.8682 174.961 83.8441 171.332C83.8361 170.273 83.9806 169.221 84.2696 168.185C84.4141 167.688 84.5988 167.639 85.0403 167.696C86.2365 167.856 87.3042 168.306 88.2515 169.036C91.4226 171.477 93.7267 174.576 95.2119 178.277C96.3759 181.191 96.697 184.266 96.9218 187.356C97.0342 188.954 97.1868 190.552 97.4115 192.141C97.4999 192.775 97.6684 193.41 97.6122 194.204C95.0593 191.041 92.9881 187.75 91.6233 184.041C92.394 184.651 93.1165 185.293 93.8391 185.943C94.3529 186.409 94.6659 186.473 94.9309 186.16C95.1637 185.879 95.1235 185.614 94.5937 185.157C93.2129 183.961 92.0408 182.516 90.4914 181.504C90.4271 181.456 90.3629 181.384 90.3308 181.311C89.9535 180.364 89.4959 179.441 89.1828 178.365C90.676 179.513 91.9605 180.741 93.3172 181.889C93.5581 182.09 93.8069 182.299 94.0879 182.435C94.3529 182.564 94.6659 182.572 94.8506 182.267C95.0272 181.978 94.9389 181.721 94.674 181.512C92.8115 180.067 91.1336 178.405 89.3112 176.92C88.4924 176.254 88.0187 175.451 87.7698 174.447C87.4889 173.307 87.1437 172.183 86.7904 171.067C86.6539 170.634 86.3569 170.481 86.0117 170.586C85.6825 170.69 85.5702 170.971 85.6986 171.421C86.6459 174.881 87.7859 178.269 89.1828 181.584C91.1657 186.273 93.261 190.897 96.5766 194.879ZM43.8242 140.513C44.3942 139.846 44.8438 139.3 45.3094 138.763C45.5182 138.522 45.7189 138.281 45.7911 137.96C45.8874 137.558 45.5663 137.012 45.2051 136.94C44.8358 136.86 44.611 137.069 44.5869 137.631C44.5789 137.904 44.4344 138.04 44.2899 138.217C43.9206 138.658 43.5031 139.068 43.19 139.541C42.7485 140.208 42.2026 140.521 41.3757 140.32C41.7289 139.614 42.2186 139.019 42.7003 138.417C42.9893 138.064 43.2944 137.719 43.5673 137.35C43.7761 137.069 43.7921 136.756 43.5031 136.507C43.2462 136.282 42.8127 136.338 42.5959 136.651C41.753 137.879 40.7334 138.987 40.043 140.32C39.9306 140.537 39.8664 140.818 39.4811 140.842C39.6416 140.055 40.027 139.389 40.4364 138.755C41.6085 136.94 42.8769 135.206 44.4585 133.713C44.627 133.552 44.7956 133.4 44.9401 133.215C45.2452 132.814 45.2211 132.469 44.9 132.236C44.627 132.043 44.2417 132.083 43.9848 132.42C43.198 133.448 42.2026 134.291 41.456 135.351C40.8378 136.226 40.2036 137.093 39.5694 137.968C39.7058 137.245 40.0992 136.659 40.4203 136.033C40.7334 135.407 40.7254 135.078 40.3802 134.909C40.035 134.749 39.7781 134.917 39.4249 135.535C38.7906 136.643 38.2367 137.791 37.8915 139.052C37.7952 138.971 37.739 138.947 37.7149 138.899C36.5026 136.266 35.9166 133.52 36.4224 130.63C36.6793 129.145 37.2733 127.788 38.2126 126.584C38.4936 126.223 38.7023 126.207 39.0556 126.448C39.5292 126.769 39.9788 127.106 40.3401 127.571C41.2874 128.808 42.3631 129.956 43.7199 130.735C46.5538 132.364 49.3235 134.106 52.0851 135.84C52.1814 135.905 52.2858 135.953 52.3902 136.009C53.2251 136.459 54.1082 136.82 55.0555 136.932C55.5613 136.988 55.8422 137.229 56.0349 137.623C56.4443 138.474 56.8217 139.349 57.0384 140.272C57.2552 141.195 57.0304 142.03 56.3962 142.753C55.6175 143.644 54.6541 144.222 53.5221 144.559C52.2136 144.952 51.0254 144.752 49.9496 143.917C49.5001 143.563 49.0425 143.21 48.617 142.833C47.2924 141.621 45.775 140.802 43.8242 140.513ZM75.0373 160.438C74.9811 160.511 74.941 160.591 74.8848 160.639C71.2481 163.842 68.5025 167.68 66.7042 172.183C66.4874 172.737 66.5276 173.058 66.8969 173.211C67.2421 173.355 67.499 173.235 67.7639 172.729C68.0288 172.224 68.2777 171.702 68.5025 171.18C69.1769 169.59 69.9716 168.073 71.0233 166.692C71.1357 166.548 71.1758 166.315 71.4648 166.323C71.6816 166.821 71.8261 167.342 71.9064 167.872C72.1232 169.341 72.2837 170.827 72.6129 172.28C72.7493 172.874 72.6209 173.355 72.3158 173.885C70.8146 176.454 70.0037 179.232 69.8913 182.21C69.8352 183.728 69.779 185.253 69.7228 186.77C69.7147 187.011 69.7147 187.252 69.6023 187.493C69.3294 187.252 69.2892 186.955 69.1929 186.69C69.1126 186.449 69.0645 186.192 68.9762 185.952C68.8236 185.51 68.5587 185.341 68.2135 185.438C67.8843 185.542 67.7398 185.831 67.8442 186.281C67.9084 186.562 68.0048 186.827 68.1091 187.1C68.3018 187.613 68.5105 188.127 68.7112 188.641C68.4704 188.737 68.2697 188.665 68.077 188.625C67.8281 188.569 67.5712 188.504 67.3384 188.4C65.4599 187.565 64.2235 186.104 63.3806 184.274C63.3324 184.177 63.2762 184.041 63.3083 183.945C63.493 183.391 63.1959 182.941 63.0113 182.467C62.6019 181.456 62.3048 180.428 62.2807 179.312C62.2567 177.843 62.353 176.39 62.6179 174.953C63.0193 172.802 63.5652 170.69 64.6651 168.779C66.8567 164.958 70.068 162.277 74.1221 160.599C74.4031 160.495 74.6841 160.286 75.0373 160.438ZM58.3309 135.816C58.3631 135.551 58.4995 135.559 58.5959 135.511C60.4423 134.724 62.2808 133.93 64.1352 133.167C65.1387 132.75 66.1503 132.332 67.2341 132.155C70.5577 131.626 73.8652 131.69 77.1567 132.372C79.3564 132.83 81.4196 133.689 83.4668 134.604C84.8476 135.222 86.2766 135.375 87.7618 135.11C89.1507 134.861 90.4432 135.118 91.6073 135.937C91.9123 136.153 92.2254 136.362 92.5225 136.587C94.3288 137.96 96.3599 138.457 98.5997 138.177C99.2018 138.096 99.8119 138.064 100.414 138.008C100.318 138.144 100.197 138.217 100.061 138.257C97.8691 138.939 95.6935 139.654 93.4939 140.288C91.7678 140.786 90.0016 140.866 88.2114 140.585C85.9796 140.24 83.8843 139.493 81.8291 138.602C80.5687 138.048 79.3243 137.462 78.0479 136.948C73.4799 135.142 68.6871 135.11 63.8783 135.254C62.9712 135.278 62.064 135.583 61.1568 135.206C61.0605 135.166 60.8999 135.174 60.8277 135.238C60.0811 135.792 59.198 135.64 58.3309 135.816ZM84.7914 75.1723C86.2044 73.2215 87.4086 71.3028 88.9018 69.5928C89.9374 68.4127 90.973 67.2245 92.113 66.1327C92.3298 65.932 92.402 65.6992 92.2977 65.4343C92.1692 65.1051 91.8802 65.081 91.5751 65.1131C91.2942 65.1452 91.1015 65.3138 90.9329 65.5145C88.9901 67.7383 86.9189 69.8577 85.3052 72.3544C85.2089 72.499 85.1366 72.6756 84.8878 72.7318C85.1928 70.9495 85.7548 69.3118 86.397 67.6821C87.7939 64.1337 89.9053 61.1152 92.9319 58.771C95.3965 56.8523 98.1662 55.4875 101.096 54.4438C101.723 54.2191 102.365 54.1067 103.039 54.1307C103.328 54.1388 103.665 54.1227 103.818 54.4037C103.995 54.7248 103.85 55.0299 103.617 55.3189C103.256 54.6526 103.039 54.5081 102.646 54.773C101.883 55.2868 101.137 55.8247 100.518 56.507C100.205 56.8523 100.213 57.2135 100.486 57.4142C100.815 57.6551 101.064 57.4785 101.313 57.2456C101.955 56.6435 102.67 56.1378 103.561 55.5116C103.328 55.8889 103.216 56.1056 103.071 56.3063C100.173 60.2642 97.3955 64.3103 94.6981 68.4127C92.683 71.4714 89.9294 73.5667 86.4854 74.7789C85.9716 74.9314 85.4818 75.1803 84.7914 75.1723ZM114.006 67.4573C113.773 67.6741 113.492 67.7062 113.219 67.7785C110.77 68.3806 108.29 68.8783 105.937 69.8176C105.271 70.0825 104.613 70.3555 103.962 70.6525C103.649 70.797 103.433 71.0539 103.609 71.4152C103.778 71.7684 104.083 71.7925 104.42 71.656C104.629 71.5677 104.838 71.4714 105.046 71.383C107.96 70.1227 111.051 69.4804 114.118 68.7659C114.19 68.7498 114.287 68.7338 114.295 68.8863C114.214 68.9425 114.126 69.0067 114.03 69.0629C111.613 70.4438 109.261 71.929 106.917 73.4302C105.68 74.217 104.38 74.8753 102.983 75.3489C98.8004 76.7699 94.5375 76.6013 90.2505 75.9831C90.2826 75.8065 90.387 75.7583 90.4994 75.7262C92.9801 75.1322 95.3965 74.3053 97.8932 73.7433C98.985 73.5025 100.061 73.1974 101.153 72.9566C101.53 72.8763 101.715 72.6916 101.691 72.3143C101.666 71.9691 101.369 71.7764 100.928 71.8085C100.783 71.8166 100.647 71.8647 100.502 71.8969C97.7166 72.5551 94.9228 73.2134 92.1853 74.0484C91.6715 74.2009 91.1497 74.3213 90.6278 74.4578C92.1371 73.3579 93.7588 72.507 95.3804 71.656C97.5159 70.5401 99.6915 69.5205 101.971 68.7258C104.452 67.8587 107.029 67.4814 109.63 67.2566C111.075 67.1442 112.544 67.088 114.006 67.4573ZM37.8353 124.095C36.8639 123.638 36.1815 122.899 35.5232 122.144C33.1309 119.383 31.5975 116.172 30.594 112.687C30.1765 111.242 30.1605 109.765 30.305 108.264C30.4254 107.044 30.5217 105.815 30.4495 104.579C30.3612 103.062 29.8393 101.673 29.2372 100.308C28.6673 98.9916 28.0812 97.691 27.5032 96.3744C27.2864 95.8767 27.158 95.3789 27.2222 94.8009C27.3506 93.693 27.3587 92.5691 27.4791 91.4612C27.5513 90.8029 27.5433 90.1286 27.736 89.4542C27.9929 89.5987 28.025 89.8155 28.0973 89.9841C28.7154 91.4371 29.3175 92.8902 29.9277 94.3433C31.0757 97.0889 32.0872 99.8827 32.8258 102.781C33.5563 105.671 33.6206 108.617 33.7811 111.555C33.8614 113.073 33.9337 114.59 34.2548 116.075C34.7927 118.54 35.8764 120.78 37.1449 122.939C37.3616 123.333 37.6025 123.718 37.8353 124.095ZM107.246 165.729C106.547 165.777 106.018 165.632 105.472 165.584C103.128 165.368 100.832 164.926 98.5596 164.284C94.8345 163.24 91.4868 161.241 87.7939 160.181C87.7939 160.093 87.7779 160.053 87.7939 160.045C89.6886 158.375 91.6635 156.81 93.9033 155.613C94.1843 155.461 94.4171 155.477 94.69 155.638C95.5009 156.119 96.3117 156.617 97.0824 157.171C99.0412 158.576 100.864 160.149 102.67 161.739C104.155 163.039 105.64 164.332 107.246 165.729ZM61.1006 72.3464C61.1889 71.3509 61.2772 70.5401 61.3254 69.7293C61.4217 68.1959 61.6465 66.6866 61.3896 65.1212C61.0765 63.2346 61.0685 61.2998 60.932 59.3811C60.8357 58.0083 60.8116 56.6275 60.6751 55.2547C60.362 52.0354 59.8001 48.8483 59.2542 45.6611C58.8046 43.0279 57.8252 40.5312 57.1749 37.9542C57.1187 37.7294 56.8698 37.4083 57.2231 37.3039C57.5121 37.2156 57.488 37.617 57.5602 37.8017C58.7083 40.9808 59.8161 44.1759 60.4744 47.5076C60.8839 49.5547 61.502 51.5618 61.7268 53.6491C62.064 56.7238 62.4413 59.7986 62.4253 62.8974C62.4253 63.1222 62.4413 63.363 62.5136 63.5798C62.6902 64.0534 63.204 64.1417 63.5412 63.7644C63.6696 63.6199 63.7499 63.4272 63.8543 63.2506C64.4323 62.2953 65.0344 61.348 65.5803 60.3685C66.1984 59.2687 67.0896 58.3615 67.7318 57.2697C68.6149 55.7604 69.6184 54.3234 70.662 52.9105C72.653 50.2131 75.0855 47.9411 77.4217 45.5648C79.1718 43.7826 81.1387 42.2251 82.9691 40.5312C83.6033 39.9452 83.5953 39.9452 84.3178 40.4991C83.5792 41.1494 82.8727 41.8157 82.1181 42.4258C79.244 44.7459 76.7393 47.4193 74.4754 50.3335C71.1839 54.5723 67.9726 58.8673 65.1468 63.4433C63.8864 65.4824 62.8106 67.5858 62.1202 69.8818C62.064 70.0664 61.8954 70.2672 61.9837 70.4598C62.4012 71.359 61.6546 71.6961 61.1006 72.3464ZM66.8648 116.734C66.8969 116.774 66.937 116.814 66.9691 116.854C66.6962 117.159 66.4152 117.456 66.1583 117.785C65.8853 118.138 65.5723 118.259 65.1147 118.163C64.641 118.058 64.1433 118.05 63.6535 118.098C63.2762 118.13 62.923 118.235 62.6179 118.476C62.3771 118.676 62.2326 118.909 62.4092 119.222C62.5778 119.519 62.8427 119.6 63.1398 119.447C63.4448 119.295 63.7419 119.238 64.2557 119.303C63.0595 120.049 61.9596 120.579 60.7153 120.724C60.2818 120.772 59.8161 120.852 59.4147 120.475C59.1739 120.25 58.7966 120.274 58.5156 120.418C58.1463 120.611 57.9295 120.483 57.7288 120.186C56.7012 118.66 56.2276 116.485 57.5602 114.63C58.8849 112.792 60.6109 111.443 62.6982 110.576C62.9792 110.464 63.2602 110.279 63.5813 110.375C63.6616 110.512 63.5652 110.6 63.5171 110.688C62.9952 111.684 62.4012 112.631 61.7991 113.579C61.6947 113.747 61.5743 113.908 61.4779 114.092C61.3495 114.349 61.3656 114.606 61.6144 114.783C61.8553 114.951 62.1122 114.919 62.3129 114.702C62.4814 114.51 62.634 114.301 62.7705 114.084C63.4528 113.017 64.1111 111.949 64.7052 110.825C65.1708 109.934 65.4599 109.789 66.4714 109.934C66.7925 109.982 67.1538 109.942 67.4749 110.167C67.3063 110.624 67.0093 110.969 66.7524 111.339C66.078 112.294 65.3475 113.209 64.5607 114.076C64.3761 114.285 64.1513 114.55 64.4242 114.831C64.6811 115.104 64.9461 114.967 65.1789 114.767C65.2913 114.67 65.3876 114.574 65.5 114.478C66.4714 113.571 67.2501 112.503 68.0208 111.427C68.1653 111.226 68.2376 110.969 68.4864 110.881C68.5426 110.897 68.5908 110.897 68.5988 110.913C68.639 110.985 68.6711 111.066 68.7032 111.146C69.0163 111.973 68.8156 112.784 68.655 113.595C68.5426 114.165 68.2617 114.566 67.7559 114.871C66.8166 115.425 65.8934 116.003 64.8899 116.445C64.5527 116.589 64.3841 116.838 64.5206 117.199C64.649 117.528 64.9541 117.544 65.2511 117.472C65.4438 117.424 65.6285 117.336 65.8131 117.255C66.1663 117.079 66.5196 116.902 66.8648 116.734ZM81.7649 168.177C80.6409 165.512 79.8622 162.863 78.7302 160.35C78.6981 160.27 78.6981 160.181 78.6821 160.101C78.5295 159.306 78.2325 158.568 77.9836 157.805C77.7267 157.018 76.8356 156.641 76.7313 155.774C76.7232 155.734 76.659 155.678 76.6108 155.662C76.2335 155.533 76.1532 155.172 75.9846 154.883C75.5913 154.217 75.222 153.534 74.8206 152.876C72.1713 148.605 68.9842 144.776 65.2592 141.396C63.5331 139.83 61.6867 138.417 59.6395 137.285C59.487 137.197 59.2542 137.189 59.2221 136.924C59.479 136.876 59.7359 136.812 59.9847 136.78C61.6224 136.587 61.6144 136.603 62.9872 137.526C65.3555 139.116 67.491 140.986 69.5301 142.969C73.4638 146.791 76.6108 151.174 78.9229 156.143C80.4804 159.475 81.3875 163.047 82.7603 166.451C82.8326 166.628 82.8165 166.772 82.6961 166.925C82.3991 167.31 82.1181 167.696 81.7649 168.177ZM51.9486 145.956C50.2708 146.582 48.9782 146.75 47.6777 146.542C46.915 146.421 46.1524 146.277 45.3897 146.14C43.0535 145.723 40.7415 145.016 38.333 145.514C38.044 145.57 37.8995 145.458 37.8433 145.193C37.5302 143.876 36.7756 142.793 36.0531 141.685C35.3386 140.593 34.7606 139.453 34.4956 138.168C34.0059 135.72 33.9979 133.263 34.3832 130.807C34.592 129.498 35.0977 128.31 36.2538 127.371C36.2056 127.555 36.1895 127.636 36.1574 127.708C35.3225 129.603 34.9934 131.561 35.1459 133.649C35.3546 136.603 36.4786 139.196 37.8594 141.733C38.1644 142.295 38.5578 142.415 39.176 142.255C39.3687 142.207 39.5613 142.134 39.746 142.054C41.6567 141.227 43.5593 141.452 45.4539 142.126C46.618 142.536 47.5171 143.363 48.4323 144.141C49.4037 145 50.4715 145.699 51.9486 145.956ZM59.7359 151.046C58.7243 152.258 57.7048 153.462 56.7012 154.674C56.2356 155.228 56.1955 155.541 56.5166 155.782C56.7976 155.991 57.0465 155.902 57.5041 155.373C58.4995 154.225 59.487 153.069 60.4825 151.921C60.6671 151.704 60.8839 151.511 61.0765 151.302C60.362 153.125 59.7439 154.939 59.1659 156.761C58.7966 157.934 58.3952 159.098 57.8814 160.222C57.7931 160.406 57.777 160.639 57.4639 160.695C55.3525 161.081 53.3134 161.747 51.2582 162.365C51.0816 162.421 50.921 162.574 50.7203 162.429C50.7364 162.261 50.8729 162.18 50.9692 162.092C52.1092 161 53.2492 159.908 54.3892 158.817C54.5979 158.616 54.8147 158.423 54.9832 158.199C55.1599 157.974 55.1438 157.709 54.9511 157.484C54.7504 157.259 54.4935 157.243 54.2447 157.396C54.0761 157.5 53.9316 157.645 53.7871 157.781C52.6551 158.881 51.5312 159.989 50.3912 161.081C50.2387 161.225 50.1423 161.474 49.8292 161.442C49.8533 159.908 50.0781 158.415 50.3591 156.922C50.4072 156.673 50.5598 156.537 50.7444 156.384C53.4579 154.144 56.5166 152.483 59.7359 151.046ZM104.757 33.8679C104.573 33.314 104.428 32.7922 104.235 32.2864C103.946 31.5237 104.051 30.8333 104.476 30.159C104.966 29.3802 105.448 28.6015 105.921 27.8148C106.997 26.0165 108.049 24.2021 108.514 22.1309C108.795 20.8946 109.317 19.7466 109.719 18.5504C110.192 17.1214 111.148 16.4229 112.577 16.2624C113.002 16.2142 113.428 16.158 113.853 16.15C114.014 16.15 114.27 16.0858 114.343 16.3667C114.27 16.5514 114.078 16.5915 113.941 16.6718C113.227 17.1053 112.593 17.6432 111.95 18.1731C111.669 18.4059 111.549 18.6788 111.798 18.9919C112.039 19.297 112.352 19.2568 112.649 19.0722C112.866 18.9357 113.05 18.7511 113.259 18.5985C113.508 18.4139 113.709 18.1169 114.158 18.0446C114.054 18.3256 113.989 18.5102 113.925 18.6869C113.01 21.0712 111.966 23.3993 110.77 25.6552C109.735 27.606 108.643 29.5247 107.326 31.307C106.604 32.2623 105.825 33.1775 104.757 33.8679ZM107.398 166.989C106.788 167.503 106.186 167.768 105.576 167.993C104.035 168.555 102.445 168.908 100.832 169.157C98.6238 169.494 96.4321 169.518 94.2645 168.94C93.8069 168.82 93.2691 168.828 93.2931 168.113C93.3012 167.961 93.0684 167.792 92.9399 167.648C92.6027 167.262 92.2334 166.893 91.9123 166.491C90.684 164.982 89.536 163.417 88.4041 161.602C88.8215 161.747 89.0864 161.827 89.3433 161.932C90.8285 162.542 92.3137 163.144 93.7829 163.778C97.3393 165.303 101.032 166.283 104.886 166.652C105.664 166.724 106.475 166.724 107.398 166.989ZM95.525 195.577C95.2199 195.593 95.0995 195.609 94.9951 195.601C94.8265 195.577 94.6579 195.537 94.4893 195.497C91.3584 194.742 88.8295 193.016 86.7583 190.608C84.093 187.501 82.4472 183.864 81.4196 179.93C80.8095 177.586 80.4723 175.218 80.9139 172.794C81.1949 171.236 81.9656 169.936 82.9771 168.659C83.0654 169.253 82.8647 169.719 82.8326 170.2C82.6881 172.505 82.8246 174.784 83.1216 177.072C83.5069 180.027 84.2776 182.853 85.5862 185.534C86.9269 188.272 88.6048 190.752 91.0132 192.671C92.3619 193.747 93.831 194.638 95.525 195.577ZM44.7073 67.6018C44.5468 66.6385 44.4263 65.7634 44.2497 64.9044C43.6235 61.8136 42.8047 58.771 41.9778 55.7283C40.7174 51.0961 39.168 46.5844 36.9522 42.3134C36.7916 42.0084 37.0726 41.1494 37.3938 40.9567C37.755 40.7399 38.1243 40.5312 38.5257 40.3064C39.2723 41.9361 39.9547 43.5498 40.7254 45.1152C43.8563 51.5056 45.4459 58.3053 46.056 65.354C46.0801 65.6028 46.1443 65.8517 45.9436 66.0845C45.5422 66.5502 45.1569 67.0399 44.7073 67.6018ZM83.5471 71.9771C83.4106 69.8818 83.0574 67.8748 83.2099 65.8437C83.234 65.5226 83.1296 65.2657 82.7924 65.1934C82.4713 65.1212 82.2465 65.2817 82.0779 65.5547C81.9334 65.7955 81.9656 66.0524 81.9656 66.3093C82.0137 68.3725 82.1903 70.4277 82.4232 72.4749C82.4472 72.6675 82.4232 72.8682 82.4232 73.0609C81.7649 72.1056 81.227 71.1583 80.7453 70.1869C79.4367 67.5456 78.939 64.7679 79.3564 61.8377C79.6535 59.7986 80.5044 58.0645 82.0619 56.6917C82.3991 56.3947 82.7443 56.1137 83.2982 55.9933C83.0333 56.9566 82.8165 57.8397 82.5516 58.7067C82.2626 59.6701 82.0137 60.6335 81.8612 61.629C81.805 61.9982 81.8692 62.2712 82.2305 62.3756C82.6078 62.488 82.8326 62.2391 82.937 61.9099C83.0333 61.6129 83.0734 61.2918 83.1296 60.9867C83.3624 59.8548 83.7638 58.779 84.1251 57.5266C84.2214 57.928 84.1974 58.1528 84.1733 58.3856C83.9405 60.6174 83.8923 62.8653 84.0689 65.0971C84.2134 66.8552 84.1813 68.5973 83.9645 70.3314C83.9083 70.8693 83.9083 71.4312 83.5471 71.9771ZM43.0134 9.84796C42.4113 7.17461 42.1544 4.64577 43.1338 2.11693C43.4228 2.21327 43.5192 2.35777 43.6316 2.49425C44.33 3.3372 44.9883 4.20423 45.7269 4.99901C46.2166 5.52886 46.3611 6.10688 46.3852 6.78926C46.4815 9.29402 46.9231 11.7426 47.7419 14.1028C48.2638 15.6201 48.914 17.0893 49.5001 18.5825C50.0139 19.875 50.4715 21.1916 50.8408 22.5403C50.616 22.2754 50.4153 22.0024 50.2467 21.7054C48.906 19.3371 47.6456 16.9207 46.5136 14.448C45.9276 13.1716 45.3496 11.8951 44.6511 10.6748C44.2979 10.0567 43.8804 9.575 43.0134 9.84796ZM85.1848 113.932C85.4658 113.619 85.6986 113.33 85.9555 113.057C88.0267 110.841 90.2425 108.826 93.0282 107.517C94.1441 106.996 95.2761 106.522 96.4642 106.169C97.9896 105.719 99.4988 105.205 101.072 104.708C100.823 105.221 100.518 105.599 100.205 105.976C99.6835 106.594 99.0653 107.116 98.4552 107.638C96.8255 109.027 94.9389 109.998 92.9801 110.841C90.6118 111.861 88.1472 112.655 85.9555 114.052C85.7066 114.213 85.4738 114.165 85.1848 113.932ZM32.0069 80.2541C30.7867 79.9891 30.6662 79.949 29.9758 79.2104C28.2899 77.4041 26.5639 75.6379 24.7094 74.0082C22.0361 71.664 19.4831 69.1753 16.5609 67.1201C16.3923 66.9997 16.2639 66.8873 16.2559 66.6465C16.2398 66.0123 16.7215 65.5868 16.9222 65.0489C16.9784 64.8964 17.3477 64.7679 17.6126 64.9767C17.725 65.065 17.8294 65.1613 17.9498 65.2496C22.1003 68.3725 25.6648 72.1136 29.0365 76.0393C30.1444 77.3318 31.172 78.7127 32.0069 80.2541ZM77.3414 160.173C77.4939 160.527 77.6304 160.743 77.6545 161.008C77.7589 162.413 77.7267 163.802 77.3574 165.183C76.7072 167.631 75.0935 169.51 73.7368 171.621C73.4398 170.987 73.4398 170.377 73.3434 169.791C73.0945 168.33 73.0223 166.829 72.3319 165.472C72.1793 165.175 72.3319 164.982 72.5085 164.782C72.9099 164.332 73.2952 163.866 73.7127 163.433C74.8206 162.285 75.9927 161.193 77.3414 160.173ZM82.3509 159.146C83.0975 157.018 84.5345 155.557 86.4693 154.594C88.6288 153.526 90.7964 153.847 92.9479 154.787C92.8195 155.027 92.5947 155.116 92.402 155.22C91.0935 155.951 89.8973 156.834 88.7332 157.773C87.9946 158.367 87.24 158.929 86.4934 159.515C86.3328 159.636 86.2124 159.796 85.9716 159.748C84.7914 159.507 83.5872 159.475 82.3509 159.146ZM56.9662 161.924C56.8136 162.18 56.7334 162.333 56.645 162.469C55.2642 164.436 53.4981 165.946 51.3546 167.021C50.6079 167.391 49.8373 167.744 49.0023 167.816C47.6135 167.945 46.2246 167.72 44.6511 167.76C45.8152 166.933 46.7384 166.146 47.6054 165.279C48.1112 164.773 48.5367 164.252 49.3957 164.187C50.1664 164.131 50.921 163.722 51.6757 163.465C53.3776 162.871 55.1358 162.485 56.9662 161.924ZM6.64627 50.4619C8.57301 50.759 10.3793 51.048 12.1856 51.2968C12.5068 51.345 12.6192 51.5136 12.7396 51.7464C13.3497 52.9827 13.9839 54.203 14.4817 55.4875C14.5459 55.648 14.7466 55.8166 14.5459 56.0414C13.8555 55.8648 13.1731 55.6721 12.4827 55.5035C11.2785 55.2065 10.0502 55.1102 8.8299 54.9255C8.38033 54.8613 7.92274 54.8131 7.72205 54.2833C7.26444 53.0871 6.90317 51.8588 6.64627 50.4619ZM-0.466591 54.9416C-0.14547 55.0138 -0.0330658 55.0299 0.0793228 55.062C1.62071 55.5357 3.04971 56.2582 4.46265 57.0208C6.38136 58.0645 8.25189 59.1884 9.99399 60.489C11.3507 61.4925 12.6111 62.6244 14.0722 63.4915C14.859 63.9571 14.8429 63.9812 14.6663 64.8482C14.6503 64.9285 14.6101 64.9445 14.4977 64.8883C14.2007 64.3665 13.719 63.9731 13.1891 63.6199C12.6192 63.2346 12.0171 62.8974 11.3989 62.5923C9.64878 61.7173 7.75415 61.2276 5.88361 60.6897C5.09686 60.4649 4.3904 60.1839 3.86055 59.5095C3.54745 59.1081 3.11392 58.795 2.74464 58.4338C1.6769 57.3661 0.657341 56.2502 -0.466591 54.9416ZM63.5893 59.3008C63.5492 59.3088 63.509 59.3169 63.4689 59.3249C63.2361 57.1734 63.0354 55.0138 62.7624 52.8703C62.4975 50.7349 61.8312 48.6717 61.4057 46.3756C61.9998 46.9456 62.5778 47.3631 63.1959 47.2828C64.0068 47.1784 64.3038 47.6601 64.6651 48.1659C64.93 48.5352 65.1628 48.9446 65.4599 49.2818C65.797 49.6752 65.8131 50.0766 65.6927 50.5422C64.9862 53.4724 64.2958 56.3866 63.5893 59.3008ZM8.57301 56.1458C10.7807 56.2983 12.8761 56.6676 14.8831 57.4624C15.1962 57.5828 15.2845 57.8477 15.3326 58.1367C15.4531 58.8432 15.6136 59.5497 15.6618 60.2562C15.71 60.9947 15.7902 61.7413 15.5173 62.4639C15.2524 62.4558 15.0838 62.2873 14.8911 62.1668C13.992 61.6049 13.1169 60.9947 12.1937 60.4729C11.142 59.8788 10.3392 59.0439 9.66483 58.0725C9.24738 57.4865 8.81386 56.9245 8.57301 56.1458ZM11.8485 50.0123C10.9814 50.0284 10.291 49.8357 9.58455 49.7314C8.56498 49.5708 7.55345 49.2015 6.46967 49.5949C6.14854 47.3631 5.90769 45.1875 6.04417 42.9236C7.29655 43.9512 8.4847 44.9226 9.80131 45.7254C9.94582 45.8137 10.1064 45.8779 10.1706 46.0625C10.6442 47.3711 11.2303 48.6476 11.8485 50.0123ZM95.2761 70.3795C95.2681 70.0905 95.4286 69.9942 95.549 69.8898C97.8691 67.8668 100.462 66.3254 103.384 65.3459C104.918 64.8322 106.483 64.5191 108.113 64.5913C109.783 64.6636 111.316 65.1452 112.946 66.0524C109.686 65.9561 106.676 66.3173 103.706 67.0158C100.743 67.7142 98.0217 69.0389 95.2761 70.3795ZM76.5145 158.632C70.943 159.997 66.7765 163.184 63.7338 167.937C63.6375 167.656 63.8141 167.463 63.8944 167.262C65.5241 163.441 68.2215 160.551 71.7057 158.367C72.7734 157.701 73.9375 157.211 75.1578 156.866C75.4789 156.77 75.7117 156.77 75.8482 157.123C76.0328 157.596 76.37 158.006 76.5145 158.632ZM82.7282 160.511C83.9967 160.599 85.0965 160.759 86.1883 161C86.5496 161.081 86.7824 161.257 86.9751 161.57C87.826 162.967 88.7493 164.316 89.7287 165.632C90.3147 166.419 90.9329 167.198 91.5912 167.953C91.3744 168.033 91.254 167.945 91.1256 167.888C89.6083 167.254 88.2114 166.411 86.8306 165.536C84.944 164.332 83.8361 162.518 82.7282 160.511ZM3.44308 64.9526C3.65984 64.7519 3.85252 64.7117 4.04519 64.6475C5.55447 64.1177 7.1119 63.6922 8.56498 63.0098C8.97441 62.8171 9.32765 62.8412 9.70497 63.0018C10.572 63.3791 11.4792 63.6841 12.2659 64.1819C12.7315 64.4709 13.3577 64.6555 13.6307 65.2978C12.9403 65.4744 12.3221 65.8517 11.5996 65.8838C8.854 66.0042 6.15657 65.6671 3.44308 64.9526ZM8.4285 87.0619C8.61315 83.4573 8.29202 79.8687 9.143 76.3605C9.84947 78.0062 10.58 79.6118 11.3828 81.1853C11.5193 81.4502 11.4069 81.6831 11.3106 81.9239C10.7567 83.3449 9.96989 84.6454 9.17512 85.9379C8.94231 86.3233 8.67738 86.6926 8.4285 87.0619ZM47.5653 73.9922C46.2728 72.9325 45.0686 71.945 43.8724 70.9656C45.0044 69.0549 46.2246 67.3128 47.9667 65.7152C47.6938 68.5893 47.9426 71.2546 47.5653 73.9922ZM14.9232 45.918C15.0276 46.0144 15.1079 46.0625 15.148 46.1268C15.9508 47.5236 16.6171 48.9687 17.147 50.486C17.2433 50.759 17.2353 50.9597 17.0828 51.2005C16.4004 52.2602 15.8866 53.4082 15.4531 54.5964C15.3888 54.5643 15.3166 54.5482 15.2925 54.5C14.7546 53.4002 14.2248 52.2843 13.6789 51.1844C13.5665 50.9516 13.6066 50.7349 13.6548 50.5181C13.992 48.9848 14.297 47.4434 14.9232 45.918ZM4.34222 80.1818C4.03716 79.3951 3.93279 78.6886 3.8204 77.9901C3.57956 76.4969 3.59562 76.4889 4.68744 75.4131C4.80785 75.2927 4.92827 75.1723 5.05672 75.0519C6.41346 73.7834 7.95485 72.7719 9.56849 71.8487C9.04666 72.8442 8.57301 73.8477 8.24386 74.9074C8.20372 75.0358 8.10739 75.1562 8.01105 75.2686C6.72656 76.802 5.54643 78.4156 4.34222 80.1818ZM3.86055 74.5702C4.11745 73.1572 4.63927 72.0975 5.47418 71.1824C7.24036 69.2315 9.55244 68.1558 11.9127 67.1523C12.1696 67.0399 12.4425 67.0559 12.7797 67.1121C12.3944 67.6741 12.0331 68.1477 11.72 68.6615C11.4149 69.1673 10.9975 69.5125 10.4997 69.8256C8.23583 71.2225 5.93179 72.5792 3.86055 74.5702ZM2.23888 60.77C1.131 61.0349 0.159607 61.2677 -0.81179 61.4925C-1.80727 61.7253 -2.85895 61.7574 -3.79823 62.207C-3.95077 62.2792 -4.07119 62.2311 -4.19161 62.1588C-5.42793 61.4042 -6.60003 60.5612 -7.69987 59.5818C-7.46706 59.4052 -7.26636 59.4935 -7.07368 59.4774C-5.86948 59.4132 -4.65724 59.4293 -3.47711 59.2607C-2.89909 59.1804 -2.43346 59.2526 -1.91163 59.4373C-1.13291 59.7102 -0.330109 59.927 0.464668 60.1839C0.986488 60.3685 1.56451 60.4408 2.23888 60.77ZM17.7009 52.5091C18.0381 54.789 18.3994 56.9004 18.3191 59.06C18.2709 60.4087 18.1425 61.7413 17.5484 62.9857C17.3959 63.3068 17.1791 63.5155 16.8098 63.3951C16.4566 63.2747 16.4807 62.9857 16.5529 62.6806C16.9142 61.0509 16.7777 59.4132 16.3362 57.8397C16.0391 56.8041 16.1676 55.8889 16.5449 54.9496C16.6332 54.7409 16.6733 54.5081 16.7697 54.3074C17.0266 53.7293 17.2032 53.1272 17.7009 52.5091ZM11.4631 71.1181C11.9207 72.3785 12.3462 73.5346 12.9242 74.6264C13.0446 74.8592 13.133 75.1 13.0768 75.365C12.7958 76.8341 12.4907 78.2952 12.009 79.7322C11.7602 79.5636 11.712 79.3308 11.6076 79.1301C10.845 77.653 10.3874 76.0474 9.713 74.5301C9.63272 74.3454 9.70497 74.2009 9.77722 74.0484C10.2107 73.0449 10.7566 72.1056 11.4631 71.1181ZM44.2337 166.7C45.0204 163.264 46.5618 160.446 48.906 157.99C49.0585 158.263 48.9863 158.463 48.9542 158.648C48.7695 159.748 48.7374 160.864 48.6892 161.98C48.6652 162.502 48.5207 162.879 48.1112 163.232C47.5011 163.754 46.9712 164.364 46.3932 164.918C45.759 165.52 45.1168 166.122 44.2337 166.7ZM85.4658 66.9194C85.3855 66.9034 85.3133 66.8793 85.233 66.8633C85.233 66.1568 85.1126 65.4262 85.2571 64.7438C85.5541 63.3229 86.1803 62.0464 87.3122 61.0509C88.8536 59.7102 90.4352 58.4258 92.0809 57.2215C93.245 56.3706 94.4893 55.6561 95.814 55.0941C96.0548 54.9897 96.2876 54.8774 96.5365 54.8292C96.7773 54.781 97.0101 54.5803 97.3875 54.7409C91.816 57.3099 87.7377 61.2276 85.4658 66.9194ZM45.6627 168.908C45.1729 170 40.7334 177.064 40.2116 177.562C40.4524 175.684 40.9341 173.893 41.6406 172.167C42.0741 171.1 42.612 170.088 43.3426 169.197C43.479 169.028 43.5994 168.804 43.8724 168.812C44.4745 168.844 45.0606 168.876 45.6627 168.908ZM6.06023 42.177C6.03614 39.4474 6.74261 36.2201 7.62569 35.2247C8.09935 36.7098 7.91472 38.2272 8.27598 39.6561C8.63725 41.0771 9.02259 42.4981 9.41596 43.9512C8.64527 43.4614 7.87457 42.9958 7.25642 42.3536C6.89515 41.9843 6.54994 41.896 6.06023 42.177ZM-2.28896 63.0579C-2.2729 63.0178 -2.2729 62.9777 -2.25684 62.9777C-0.105324 62.5201 2.07028 62.1347 4.15758 61.4202C4.23786 61.3961 4.3342 61.3721 4.40645 61.3961C5.35376 61.6932 6.33318 61.8939 7.32866 62.2953C6.54192 62.6726 5.79531 62.8733 5.06476 63.1141C4.14153 63.4192 3.12196 63.5637 2.31915 64.0695C1.64479 64.495 1.14705 64.3906 0.536919 64.1819C-0.161522 63.933 -0.876015 63.7082 -1.57446 63.4513C-1.82333 63.347 -2.12839 63.3068 -2.28896 63.0579ZM-4.90611 54.0986C-4.01499 54.2351 -3.23627 54.3555 -2.45755 54.476C-2.23276 54.5081 -2.14445 54.7007 -2.016 54.8452C-1.26136 55.7123 -0.514755 56.5793 0.255943 57.4303C0.850021 58.0886 1.46818 58.7308 2.18267 59.5015C0.713539 59.1081 -0.578979 58.7549 -1.83136 58.2652C-2.09628 58.1608 -2.36924 58.0966 -2.49769 57.7915C-2.69839 57.3099 -3.08373 56.9486 -3.39683 56.5392C-3.95879 55.8166 -4.42442 55.0379 -4.90611 54.0986ZM7.55344 77.8617C7.31261 80.7919 7.3688 83.7302 7.12796 86.6605C6.31712 85.5205 5.80334 84.252 5.22531 83.0157C4.82391 82.1647 4.97644 81.4342 5.43404 80.6956C6.0522 79.7082 6.75064 78.7689 7.55344 77.8617ZM104.099 161.426C103.882 161.241 103.657 161.065 103.449 160.872C101.715 159.322 99.9564 157.813 98.0698 156.448C95.8621 154.851 93.534 153.486 90.7242 152.876C91.1175 152.731 91.4226 152.764 91.7357 152.78C93.9515 152.9 95.9103 153.687 97.6925 154.987C100.173 156.786 102.132 159.106 104.099 161.426ZM-13.4078 52.9265C-10.9432 55.1262 -8.06113 56.6676 -5.14694 58.209C-5.81327 58.2813 -6.45551 58.2813 -7.10579 58.2813C-9.2252 58.2813 -9.2252 58.2813 -10.6622 56.78C-10.7184 56.7158 -10.7826 56.6596 -10.8388 56.5954C-11.8343 55.4795 -12.7977 54.3475 -13.4078 52.9265ZM12.7235 49.1774C12.1696 48.0696 11.7602 47.058 11.3828 46.0465C11.3186 45.8699 11.2303 45.7013 11.3347 45.4765C11.5193 45.0831 11.5193 44.6416 11.6076 44.2241C11.7682 43.4855 11.8725 42.7229 12.2659 41.904C12.7155 42.5141 13.0687 43.06 13.4942 43.5417C14.0722 44.2 14.3372 44.8664 13.7993 45.6772C13.7029 45.8137 13.6789 45.9983 13.6146 46.1589C13.2373 47.0901 13.0446 48.0776 12.7235 49.1774ZM26.1545 38.5162C28.8599 39.7043 31.3326 41.0289 34.1986 41.615C30.3853 43.4213 27.0616 41.0289 26.1545 38.5162ZM-4.42442 57.1011C-6.78467 56.2502 -10.9994 53.6089 -11.7621 52.5251C-10.0039 52.9908 -8.30198 53.4885 -6.55989 53.7936C-6.32707 53.8337 -6.23074 53.9943 -6.1344 54.1709C-5.64469 55.1423 -5.09075 56.0735 -4.42442 57.1011ZM42.4996 27.1484C42.6361 27.4696 42.7404 27.6943 42.7485 27.9593C42.8047 29.9101 42.9492 31.8609 42.604 33.8037C42.2427 35.7946 41.48 37.5689 39.7861 38.9978C41.9617 35.2809 42.2026 31.2588 42.4996 27.1484ZM41.1188 78.2872C41.2793 78.2872 41.3757 78.3915 41.4881 78.4718C42.8368 79.4432 44.0651 80.5511 45.2131 81.7553C45.5743 82.1326 45.7108 82.4859 45.4941 82.9595C45.4298 83.104 45.3736 83.2566 45.2934 83.4813C44.057 82.2049 42.8528 80.9846 41.5282 79.9008C40.9582 79.4432 40.8137 78.9455 41.1188 78.2872ZM13.3899 72.9004C12.9483 71.9852 12.6432 71.078 12.4104 70.1387C12.3542 69.9219 12.3061 69.7132 12.4666 69.4884C13.0286 68.7338 13.5745 67.9631 14.1284 67.2004C14.2408 67.0479 14.3853 66.9676 14.562 67.0961C14.6984 67.1924 14.867 67.2807 14.8108 67.4975C14.7626 67.6661 14.7065 67.8266 14.6503 67.9872C14.3131 68.9907 14.0401 70.0103 13.8153 71.0378C13.6949 71.6399 13.6708 72.2742 13.3899 72.9004ZM43.3907 72.0735C44.4424 72.8843 45.5503 73.6871 46.5297 74.6344C46.8107 74.9074 47.3566 74.9074 47.4128 75.3088C47.469 75.7102 47.3004 76.1437 47.2442 76.5692C47.2362 76.6414 47.2201 76.6816 47.0836 76.6735C45.767 75.4533 44.4263 74.1929 43.0616 72.9485C42.9171 72.812 42.9251 72.7077 42.9973 72.5873C43.0856 72.4187 43.1097 72.1939 43.3907 72.0735ZM25.6728 84.5812C25.729 84.5812 25.7852 84.5892 25.8414 84.5892C26.1705 85.376 26.4997 86.1627 26.8208 86.9575C26.869 87.0859 26.9252 87.2465 26.8931 87.3669C26.58 88.7638 26.4595 90.1848 26.3552 91.6057C26.3471 91.7502 26.3471 91.9429 26.1304 91.975C25.5443 89.5184 25.4079 87.0619 25.6728 84.5812ZM44.4825 86.0022C43.4549 84.8702 42.5157 83.7061 41.4238 82.7026C40.886 82.2049 40.7415 81.7553 40.8619 81.1211C40.8699 81.0729 40.9181 81.0408 40.9743 80.9605C42.1865 82.0042 43.3506 83.096 44.4504 84.2601C44.8358 84.6695 45.0124 85.0147 44.7394 85.5205C44.6672 85.665 44.7073 85.8576 44.4825 86.0022ZM42.3952 73.8878C43.6235 75.0037 44.7956 76.0474 45.9436 77.1311C46.2407 77.4121 46.5217 77.669 46.9391 77.7092C46.9552 78.1828 46.7625 78.5521 46.6501 79.09C46.032 78.4156 45.5422 77.8216 44.9562 77.3238C44.1935 76.6816 43.4309 76.0313 42.6762 75.365C42.1303 74.8993 42.0821 74.6264 42.3952 73.8878ZM75.7197 107.1C75.7358 106.193 76.7313 105.205 77.6224 105.213C78.5135 105.221 78.9149 105.912 78.4493 106.682C78.0719 107.301 77.51 107.686 76.8115 107.846C76.2335 107.991 75.7117 107.606 75.7197 107.1ZM70.935 101.4C70.9511 100.645 71.6174 100.124 72.4924 100.14C73.1588 100.156 73.5843 100.629 73.4398 101.272C73.3033 101.874 72.9982 102.395 72.4523 102.725C71.6977 103.182 71.3284 103.046 71.0875 102.211C71.0153 101.938 70.8949 101.665 70.935 101.4ZM45.9838 80.9686C45.7991 80.7759 45.6225 80.5912 45.4459 80.4066C44.3541 79.2666 43.1579 78.231 41.8333 77.372C41.3998 77.091 41.3034 76.8903 41.472 76.4728C41.5202 76.3444 41.5844 76.224 41.6326 76.1116C41.8493 76.1196 41.9617 76.2721 42.0902 76.3765C43.4469 77.4763 44.7635 78.6163 45.9356 79.9329C46.2888 80.3263 46.2969 80.5832 45.9838 80.9686ZM67.8362 14.7451C67.8924 14.5444 67.9405 14.2554 68.061 13.9985C68.3419 13.3803 68.7915 13.2599 69.3856 13.6292C69.9877 13.9985 70.1563 14.6006 70.1804 15.2428C70.2125 16.158 69.9154 16.3828 69.0163 16.2142C68.3901 16.0938 67.8442 15.4435 67.8362 14.7451ZM9.31962 37.9542C9.96186 38.8212 10.6121 39.6963 11.2624 40.5553C11.3748 40.7078 11.423 40.8604 11.3427 41.0289C11.0055 41.7515 10.8369 42.5382 10.564 43.3731C9.97792 41.9843 9.30357 39.2628 9.31962 37.9542ZM64.0951 37.9542C63.4207 37.9622 62.8748 37.4163 62.7785 36.6376C62.7062 36.0596 62.9872 35.6421 63.5492 35.4896C64.1433 35.329 64.633 35.618 64.9461 36.3245C65.0023 36.453 65.0344 36.5894 65.0665 36.7339C65.2351 37.4886 64.8738 37.9381 64.0951 37.9542ZM73.4719 21.1194C73.4558 20.156 73.7127 19.9151 74.2988 20.156C75.3344 20.5815 75.7117 22.1871 75.0133 23.0782C74.8286 23.311 74.5637 23.3592 74.379 23.0702C73.9455 22.4038 73.4959 21.7375 73.4719 21.1194ZM43.7038 88.1296C42.0902 87.0217 41.1107 85.5847 41.1509 84.1156C42.1383 85.0227 42.9813 85.9861 43.76 87.0057C44.1454 87.5114 44.1454 87.5194 43.7038 88.1296ZM83.0413 163.529C83.9324 164.83 85.1206 165.793 86.3489 166.724C85.7227 166.636 85.1366 166.524 84.5265 166.556C84.2455 166.564 84.0448 166.5 83.9164 166.211C83.5551 165.343 83.234 164.468 83.0413 163.529ZM62.1122 44.9306C62.1122 44.481 62.3691 44.2 62.8186 44.1278C63.2602 44.0636 63.5973 44.2321 63.8382 44.5934C64.1111 45.0028 64.1031 45.4524 63.9185 45.894C63.8623 46.0304 63.7499 46.1027 63.5893 46.1268C62.9069 46.2552 62.1122 45.621 62.1122 44.9306ZM71.232 123.838C70.7263 123.83 70.3971 123.477 70.4212 122.955C70.4453 122.458 71.1277 121.695 71.5371 121.711C71.9706 121.727 72.3239 122.201 72.3158 122.771C72.3078 123.389 71.8422 123.846 71.232 123.838ZM72.38 35.5217C72.3881 35.032 72.8537 34.4299 73.3274 34.3175C73.8893 34.181 74.355 34.6386 74.2104 35.2247C74.09 35.7385 73.7368 36.0756 73.223 36.1961C72.6289 36.3486 72.372 36.1238 72.38 35.5217ZM63.9586 19.2328C63.9747 19.3291 63.9586 19.4254 63.9988 19.4977C64.1673 19.8268 64.0228 20.0275 63.7419 20.1961C63.4769 20.3567 63.204 20.4049 62.9391 20.2523C62.65 20.0998 62.6019 19.8188 62.642 19.5137C62.6902 19.1364 62.8186 18.7912 63.0434 18.4942C63.3083 18.149 63.6134 18.3738 63.8864 18.4862C64.1352 18.5825 64.2476 18.7511 64.0309 19.008C63.9747 19.0642 63.9747 19.1605 63.9586 19.2328ZM78.08 38.9095C79.236 37.7696 82.1582 37.5849 83.4106 38.5402C81.6284 38.1629 79.8863 38.2432 78.08 38.9095ZM65.5401 104.948C65.5482 104.852 65.4599 104.571 65.7168 104.394C65.9737 104.21 66.5758 104.258 66.8407 104.491C67.1458 104.756 67.1859 105.069 66.9691 105.406C66.8166 105.647 66.6641 105.896 66.4634 106.088C66.1984 106.353 65.9576 106.305 65.773 105.992C65.6124 105.719 65.5161 105.422 65.5401 104.948ZM59.495 127.13C59.4629 126.793 59.6877 126.52 60.0168 126.472C60.3701 126.423 60.7313 126.688 60.7474 127.018C60.7634 127.323 60.5065 127.588 60.1613 127.628C59.8081 127.66 59.5271 127.451 59.495 127.13ZM84.1813 45.7414C84.4864 44.6014 84.7995 43.4614 85.1045 42.3215C85.1768 43.4936 84.8396 44.7379 84.1813 45.7414Z" fill="#4A719C"/>
<path d="M77.205 121.615C77.229 121.92 77.3736 122.144 77.6545 122.297C78.3931 122.682 79.1879 122.891 79.9746 123.132C80.2717 123.22 80.5527 123.116 80.6811 122.803C80.8096 122.482 80.657 122.249 80.368 122.104C80.1432 121.992 79.8944 121.912 79.6616 121.815C79.1397 121.615 78.5858 121.502 78.1121 121.141C77.7027 120.828 77.205 121.125 77.205 121.615Z" fill="#4A719C"/>
<path d="M38.9592 98.4536C38.6381 98.5018 38.4133 98.7266 38.5016 99.0316C38.6863 99.6578 38.9271 100.268 39.192 100.862C39.3044 101.119 39.5774 101.183 39.8584 101.087C40.1393 100.999 40.3079 100.782 40.2437 100.501C40.0751 99.8104 39.8022 99.1521 39.3686 98.574C39.2723 98.4616 39.1198 98.4536 38.9592 98.4536Z" fill="#4A719C"/>
<path d="M81.6364 95.9008C81.6283 96.4146 82.11 96.7758 82.5917 96.6233C83.1537 96.4467 83.5551 96.0132 83.9886 95.6519C84.3017 95.387 84.0769 94.8892 83.6594 94.817C83.4186 94.7769 83.2018 94.8411 83.0092 94.9776C82.7041 95.1783 82.4151 95.403 82.0137 95.4271C81.7728 95.4352 81.6444 95.684 81.6364 95.9008Z" fill="#4A719C"/>
<path d="M53.2972 86.3313C53.2972 86.6203 53.2571 86.9093 53.3053 87.1903C53.3695 87.6158 53.6746 87.8406 54.0117 87.7764C54.389 87.6961 54.5496 87.4071 54.5014 87.0779C54.4372 86.5962 54.365 86.1226 54.3569 85.6329C54.3569 85.2877 54.1161 85.103 53.795 85.103C53.4738 85.103 53.2651 85.2957 53.2651 85.6489C53.2651 85.8817 53.2651 86.1065 53.2651 86.3393C53.2812 86.3313 53.2892 86.3313 53.2972 86.3313Z" fill="#4A719C"/>
<path d="M74.3868 95.2905C74.3868 95.5795 74.4911 95.7481 74.6838 95.8364C74.9246 95.9488 75.1976 95.9648 75.3983 95.7481C75.7114 95.4109 75.9522 95.0175 76.0967 94.584C76.169 94.3592 76.1048 94.1264 75.88 93.9899C75.7034 93.8775 75.4946 93.8213 75.318 93.9578C74.8524 94.311 74.6276 94.8409 74.3868 95.2905Z" fill="#4A719C"/>
<path d="M52.7434 93.6046C52.7514 93.6929 52.7514 93.7732 52.7595 93.8615C52.8156 94.3753 53.1207 94.6723 53.5061 94.6081C53.8834 94.5359 54.0761 94.1746 53.9476 93.6608C53.8994 93.4601 53.8753 93.2674 53.8593 93.0747C53.8272 92.7456 53.6345 92.5369 53.3054 92.5369C52.9682 92.5449 52.7835 92.7456 52.7755 93.0908C52.7675 93.2594 52.7755 93.436 52.7755 93.6046C52.7594 93.6046 52.7514 93.6046 52.7434 93.6046Z" fill="#4A719C"/>
<path d="M75.7842 126.953C76.2257 126.937 76.4585 126.456 76.1856 126.078C75.9688 125.773 75.6236 125.605 75.3025 125.428C75.1179 125.324 74.9091 125.396 74.7566 125.556C74.588 125.733 74.5158 125.926 74.6281 126.175C74.7726 126.504 75.439 126.969 75.7842 126.953Z" fill="#4A719C"/>
<path d="M29.9919 23.2309C30.4174 23.255 30.6663 22.8295 30.4495 22.4362C30.2328 22.0348 29.9518 21.6655 29.6788 21.2962C27.4149 18.2214 25.143 15.1627 22.8951 12.0719C22.3974 11.3896 21.7712 10.7794 21.5464 9.90436C21.4581 9.55113 20.9443 9.37451 20.6151 9.51099C20.2539 9.66352 20.1094 10.0408 20.3582 10.4342C20.7998 11.1407 21.2654 11.8311 21.7551 12.4974C24.2438 15.8612 26.7486 19.2169 29.2533 22.5807C29.4621 22.8456 29.6306 23.1667 29.9919 23.2309Z" fill="#4A719C"/>
<path d="M38.1001 32.3265C38.0038 32.0535 37.8994 31.7003 37.7549 31.3551C37.3214 30.2954 36.8638 29.2517 36.4222 28.192C36.3018 27.895 36.1573 27.622 35.8924 27.4213C35.6676 27.2527 35.4268 27.2126 35.1859 27.3892C34.9371 27.5739 34.9049 27.8388 35.0334 28.0796C35.8282 29.5728 36.4223 31.1463 37.0484 32.7038C37.1769 33.0169 37.3936 33.1614 37.7228 33.0731C38.06 32.9928 38.1483 32.7359 38.1001 32.3265Z" fill="#4A719C"/>
<path d="M23.818 25.5348C23.81 25.7837 23.9224 25.9924 24.0669 26.169C24.9821 27.301 25.8973 28.433 26.8366 29.5489C27.1256 29.9021 27.4708 29.9583 27.7357 29.7576C28.0247 29.5408 28.0247 29.2036 27.6875 28.7782C26.9409 27.8389 26.1702 26.9157 25.4236 25.9844C25.2069 25.7195 25.0222 25.4305 24.8055 25.1655C24.6449 24.9648 24.4201 24.9167 24.1873 25.005C23.9464 25.0933 23.8421 25.294 23.818 25.5348Z" fill="#4A719C"/>
<path d="M16.8258 18.6306C16.8498 18.8634 16.9622 19.0561 17.1148 19.2408C17.8774 20.164 18.6401 21.0952 19.4028 22.0185C19.4911 22.1309 19.5954 22.2352 19.7159 22.3075C19.9326 22.4279 20.1574 22.4359 20.3501 22.2513C20.5427 22.0666 20.5668 21.8499 20.4464 21.6251C20.3501 21.4485 20.2216 21.2959 20.1012 21.1354C19.6356 20.5574 19.1619 19.9874 18.6963 19.4013C18.4314 19.0722 18.1424 18.7671 18.0621 18.3095C18.0059 18.0125 17.7008 17.876 17.3797 17.9563C17.0345 18.0446 16.8338 18.2613 16.8258 18.6306Z" fill="#4A719C"/>
<path d="M100.63 19.7866C100.454 19.7866 100.301 19.8508 100.165 19.9632C96.6726 22.765 93.1563 25.5427 90.2902 29.0189C88.8853 30.7289 87.6891 32.5834 86.5732 34.494C86.4287 34.7429 86.2923 34.9918 86.1799 35.2567C86.0033 35.6742 86.0996 35.9873 86.4368 36.1318C86.79 36.2843 87.0469 36.1237 87.2235 35.8187C87.2556 35.7705 87.2717 35.7143 87.2958 35.6661C89.4473 31.5798 92.3213 28.0796 95.8055 25.0611C97.2987 23.7605 98.8401 22.5242 100.365 21.2638C100.606 21.0631 100.863 20.8624 101.04 20.6055C101.281 20.2442 101.04 19.8027 100.63 19.7866Z" fill="#4A719C"/>
<path d="M104.372 22.3716C104.147 22.3636 103.866 22.5161 103.577 22.6285C100.736 23.7284 98.2709 25.4303 95.9588 27.3731C95.4129 27.8307 94.875 28.3124 94.3452 28.7941C94.1926 28.9306 94.0481 29.067 93.9277 29.2276C93.735 29.4845 93.711 29.7655 93.9598 29.9983C94.2087 30.2311 94.4817 30.199 94.7305 29.9822C95.2684 29.5086 95.7902 29.0189 96.3361 28.5533C98.6241 26.5783 101.057 24.8202 103.899 23.7123C104.163 23.608 104.428 23.5116 104.701 23.4233C105.039 23.3109 105.151 23.0781 105.079 22.757C104.998 22.46 104.758 22.3716 104.372 22.3716Z" fill="#4A719C"/>
<path d="M86.991 39.1825C87.0632 39.5116 87.2719 39.6802 87.6091 39.624C87.8339 39.5919 88.0426 39.4956 88.2514 39.3993C90.5153 38.4038 92.5544 37.0229 94.6417 35.7304C95.1555 35.4173 95.6532 35.0802 96.151 34.751C96.3437 34.6226 96.5363 34.5021 96.6567 34.2934C96.8013 34.0365 96.7772 33.7957 96.5765 33.5869C96.3918 33.3943 96.159 33.3702 95.9503 33.4906C95.6773 33.6431 95.4365 33.8519 95.1716 34.0204C92.6909 35.61 90.2584 37.2798 87.569 38.5001C87.28 38.6286 86.991 38.7811 86.991 39.1825Z" fill="#4A719C"/>
<path d="M108.354 14.2071C108.306 14.1991 108.137 14.3276 107.961 14.4159C106.283 15.299 104.717 16.3506 103.32 17.6351C103.216 17.7315 103.104 17.8278 103.015 17.9322C102.831 18.165 102.831 18.4139 103.023 18.6306C103.216 18.8554 103.473 18.8955 103.722 18.751C103.898 18.6547 104.051 18.5262 104.203 18.3898C105.408 17.2739 106.756 16.3587 108.193 15.5799C108.442 15.4435 108.699 15.315 108.892 15.0902C109.028 14.9216 109.068 14.737 108.988 14.5283C108.908 14.3356 108.731 14.2473 108.354 14.2071Z" fill="#4A719C"/>
<path d="M98.9045 31.8611C98.76 31.8611 98.5914 31.8691 98.5191 31.9976C98.2622 32.4712 97.7886 32.704 97.3872 33.0171C97.1062 33.2419 96.8653 33.5149 97.1303 33.8922C97.3952 34.2534 97.7243 34.1571 98.0374 33.9484C98.487 33.6513 98.9687 33.3864 99.354 32.993C99.5547 32.7923 99.6109 32.5435 99.4985 32.2866C99.3861 32.0377 99.2015 31.8691 98.9045 31.8611Z" fill="#4A719C"/>
<path d="M90.8851 32.5673C90.8931 33.0409 91.3989 33.3219 91.7441 33.0329C92.2418 32.6154 92.6834 32.1257 93.1249 31.644C93.2775 31.4754 93.2694 31.2105 93.1249 31.0018C92.9724 30.785 92.7155 30.7128 92.5228 30.8412C91.9127 31.2587 91.3507 31.7404 90.9333 32.3505C90.8851 32.4147 90.8931 32.5111 90.8851 32.5673Z" fill="#4A719C"/>
<path d="M53.6585 31.2188C53.4497 30.6569 53.2089 29.9825 52.9359 29.3242C52.8396 29.0834 52.6068 28.9308 52.3499 28.8586C52.1331 28.8024 51.9485 28.8746 51.812 29.0272C51.6755 29.1797 51.5792 29.3884 51.7076 29.5731C52.1652 30.2153 52.2616 31.0021 52.6148 31.6845C52.7673 31.9735 52.9921 32.126 53.3133 32.0136C53.6263 31.9092 53.7066 31.6443 53.6585 31.2188Z" fill="#4A719C"/>
<path d="M61.6868 100.581C61.4299 100.573 61.2453 100.718 61.1249 100.918C60.4987 101.978 59.8805 103.038 59.2623 104.105C59.0857 104.419 59.0938 104.732 59.4309 104.924C59.744 105.101 60.0009 104.932 60.1535 104.667C60.8118 103.592 61.4701 102.524 62.0882 101.432C62.313 101.047 62.0722 100.621 61.6868 100.581Z" fill="#4A719C"/>
<path d="M65.3396 92.5369C65.3316 92.9142 65.3798 93.1711 65.6929 93.2434C66.0381 93.3237 66.2388 93.131 66.3271 92.8259C66.6402 91.7903 66.9613 90.7627 67.3948 89.7672C67.5152 89.4943 67.4029 89.2775 67.154 89.117C66.9131 88.9644 66.7124 89.0768 66.5278 89.2053C66.4636 89.2534 66.3993 89.3257 66.3672 89.406C65.9016 90.4416 65.5484 91.5173 65.3396 92.5369Z" fill="#4A719C"/>
<path d="M61.8232 97.4101C62.0159 97.4021 62.1844 97.2897 62.2968 97.113C62.642 96.5511 62.9872 95.9891 63.3164 95.4191C63.485 95.1381 63.4448 94.8652 63.1719 94.6645C62.8829 94.4477 62.6019 94.5441 62.4173 94.7929C61.9837 95.4031 61.6064 96.0453 61.3415 96.7437C61.213 97.0729 61.4699 97.4021 61.8232 97.4101Z" fill="#4A719C"/>
<path d="M63.5249 90.2249C63.5009 90.5782 63.5892 90.811 63.8862 90.8993C64.2234 90.9956 64.4241 90.819 64.5445 90.5059C64.7934 89.8717 64.9218 89.1893 65.3473 88.6274C65.4677 88.4668 65.4115 88.242 65.251 88.0734C65.0984 87.9129 64.9058 87.8888 64.697 87.9289C64.4803 87.9691 64.3277 88.1136 64.2314 88.2821C63.8862 88.9083 63.6855 89.5907 63.5249 90.2249Z" fill="#4A719C"/>
<path d="M64.1436 95.6278C63.9349 95.6519 63.7663 95.7482 63.6699 95.9489C63.4291 96.4387 63.1883 96.9203 62.9555 97.41C62.8109 97.7151 62.8752 97.98 63.1722 98.1486C63.4452 98.3012 63.678 98.1647 63.8385 97.9479C64.1998 97.4662 64.4728 96.9203 64.6574 96.3503C64.7859 95.9811 64.4968 95.6198 64.1436 95.6278Z" fill="#4A719C"/>
<path d="M57.9217 106.843C57.9298 107.124 58.0743 107.308 58.3874 107.333C58.6844 107.349 58.9814 107.044 58.9814 106.722C58.9814 106.417 58.8209 106.249 58.5158 106.225C58.1867 106.201 57.9298 106.465 57.9217 106.843Z" fill="#4A719C"/>
<path d="M66.9451 177.466C66.9692 176.984 67.0094 176.494 67.0174 176.013C67.0254 175.571 66.7846 175.258 66.4634 175.29C66.0942 175.322 65.9175 175.579 65.8854 175.924C65.8373 176.551 65.8051 177.177 65.757 177.795C65.7329 178.132 65.773 178.453 65.6125 178.79C65.4037 179.224 65.6606 179.553 66.1584 179.641C66.6079 179.722 66.9532 179.481 66.9772 179.007C67.0094 178.493 66.9853 177.979 66.9853 177.466C66.9692 177.466 66.9612 177.466 66.9451 177.466Z" fill="#4A719C"/>
<path d="M98.0859 58.0002C97.8771 58.0163 97.7005 58.0966 97.556 58.2491C96.3919 59.4292 95.0432 60.4167 93.9273 61.653C93.7507 61.8457 93.5661 62.0223 93.4858 62.2792C93.3895 62.5522 93.4456 62.785 93.6785 62.9616C93.9354 63.1462 94.1923 63.09 94.3689 62.8733C95.5008 61.4523 97.0422 60.4568 98.2705 59.1402C98.3669 59.0359 98.4792 58.9395 98.5435 58.8111C98.7361 58.4578 98.4792 58.0163 98.0859 58.0002Z" fill="#4A719C"/>
<path d="M76.7229 154.843C76.8674 155.389 77.0922 155.975 77.5097 156.456C77.6702 156.649 77.9111 156.681 78.1359 156.537C78.3285 156.416 78.4088 156.216 78.3366 156.015C78.1519 155.477 77.9673 154.931 77.6381 154.449C77.5016 154.249 77.2688 154.176 77.028 154.289C76.8353 154.385 76.7149 154.538 76.7229 154.843Z" fill="#4A719C"/>
<path d="M75.1338 152.186C75.471 152.137 75.6877 151.969 75.6476 151.68C75.5753 151.206 75.4388 150.732 75.1659 150.323C75.0535 150.154 74.8608 150.058 74.6441 150.122C74.4113 150.195 74.2105 150.355 74.2346 150.604C74.2908 151.15 74.4755 151.656 74.8769 152.049C74.9411 152.129 75.0615 152.153 75.1338 152.186Z" fill="#4A719C"/>
<path d="M41.9781 51.0801C41.6329 51.0801 41.392 51.4574 41.4964 51.8187C41.9138 53.2717 42.3233 54.7168 42.7407 56.1699C42.7809 56.3063 42.7889 56.4509 42.8371 56.5873C42.9174 56.7961 43.0859 56.8924 43.3107 56.8763C43.5516 56.8603 43.6479 56.6917 43.7041 56.483C43.7603 56.2823 43.7041 56.0896 43.672 55.8889C43.5596 55.1262 43.3268 54.3876 43.1181 53.6491C42.9575 53.1032 42.8451 52.5412 42.7568 51.9792C42.6605 51.4253 42.3393 51.0801 41.9781 51.0801Z" fill="#4A719C"/>
<path d="M40.5966 48.6798C40.9258 48.6075 41.0944 48.3988 41.0382 48.0616C40.9579 47.5719 40.7492 47.1304 40.3799 46.7852C40.1792 46.6005 39.9303 46.5283 39.6814 46.729C39.4326 46.9216 39.4165 47.1785 39.569 47.4194C39.7778 47.7325 39.9223 48.0697 40.0909 48.4068C40.1872 48.5995 40.3638 48.6878 40.5966 48.6798Z" fill="#4A719C"/>
<path d="M21.4101 70.2912C21.4262 70.4759 21.5305 70.6043 21.675 70.7167C22.1086 71.0459 22.534 71.3831 22.9756 71.7122C23.2244 71.8968 23.4974 71.9932 23.7382 71.7122C23.963 71.4473 23.9068 71.1824 23.6821 70.9415C23.2405 70.4839 22.7508 70.0825 22.1808 69.8015C21.7874 69.6008 21.378 69.8979 21.4101 70.2912Z" fill="#4A719C"/>
<path d="M17.6688 67.1121C17.6928 67.1683 17.7169 67.2887 17.7892 67.369C18.1505 67.7383 18.5117 68.0995 18.8971 68.4367C19.0737 68.5893 19.3145 68.6374 19.5233 68.4608C19.7641 68.2681 19.7962 68.0032 19.6356 67.7704C19.3226 67.3289 18.9533 66.9194 18.4796 66.6465C18.0862 66.4217 17.6688 66.6465 17.6688 67.1121Z" fill="#4A719C"/>
</svg>
