<svg width="254" height="187" viewBox="0 0 254 187" fill="none" xmlns="http://www.w3.org/2000/svg">
<path d="M125.753 31.223C138.042 39.968 149.409 51.0459 158.771 64.0213C190.413 107.865 187.187 156.742 151.563 173.196C144.127 176.634 135.865 178.385 127.157 178.605" stroke="black" stroke-width="16" stroke-linecap="round" stroke-linejoin="round"/>
<path d="M158.771 64.0213C190.413 107.865 187.187 156.742 151.563 173.196C115.939 189.65 61.4149 167.453 29.7727 123.605C-1.86948 79.7559 1.35605 30.8838 36.98 14.4296C72.604 -2.02453 127.134 20.1771 158.771 64.0213Z" stroke="#F96CB3" stroke-width="16" stroke-linecap="round" stroke-linejoin="round"/>
<path d="M94.2716 64.0213C62.6295 107.865 65.855 156.742 101.479 173.196C137.103 189.65 191.633 167.449 223.275 123.605C254.917 79.7605 251.692 30.8838 216.062 14.4296C180.45 -2.02453 125.914 20.1771 94.2716 64.0213Z" stroke="#9E0050" stroke-width="16" stroke-linecap="round" stroke-linejoin="round"/>
</svg>
